<svg width="1366" height="335" viewBox="0 0 1366 335" fill="none" xmlns="http://www.w3.org/2000/svg">
<path fill-rule="evenodd" clip-rule="evenodd" d="M38.5546 289.008L35.7715 296.3L-0.506013 292.809L-1.04785 271.168C-1.04785 271.168 0.778648 274.176 12.2867 277.156C23.7948 280.136 29.6732 283.237 29.6732 283.237L27.8179 284.356C27.8179 284.356 17.6073 283.052 13.5237 283.052C9.44011 283.052 6.09923 284.167 6.1598 285.098C6.22356 286.031 7.89397 287.831 9.81305 288.141C11.7289 288.452 38.5546 289.008 38.5546 289.008Z" fill="#0F9998"/>
<path fill-rule="evenodd" clip-rule="evenodd" d="M1357.91 16.7983L1355.21 45.7386L1331.37 43.4987L1357.91 16.7983Z" fill="#0D7F28"/>
<path fill-rule="evenodd" clip-rule="evenodd" d="M1250.1 55.2939L1252.91 58.6275C1252.91 58.6275 1245.63 87.4814 1238.43 88.271C1231.25 89.0606 1226.51 85.5518 1226.51 85.5518L1225.64 74.6731C1225.64 74.6731 1213.01 71.954 1213.97 66.6113C1214.93 61.2598 1217.74 55.9961 1225.02 55.2066C1232.3 54.417 1250.1 55.2939 1250.1 55.2939Z" fill="#D54279"/>
<path fill-rule="evenodd" clip-rule="evenodd" d="M940.247 22.8901L962.505 51.8304L934.55 42.9281L940.247 22.8901Z" fill="#0F898B"/>
<path fill-rule="evenodd" clip-rule="evenodd" d="M1345.08 101.026L1364.13 88.7578L1364.03 125.191L1345.08 101.026Z" fill="#7A3085"/>
<path fill-rule="evenodd" clip-rule="evenodd" d="M1146.14 137.127L1158.55 160.725L1166.12 140.05L1146.14 137.127Z" fill="#E1CB11"/>
<path fill-rule="evenodd" clip-rule="evenodd" d="M1337.46 275.736V296.836L1366 280.159L1337.46 275.736Z" fill="#765194"/>
<path fill-rule="evenodd" clip-rule="evenodd" d="M1043.39 197.033L1135.06 211.693L1133.34 214.957L1043 200.297L1043.39 197.033Z" fill="#D34074"/>
<path fill-rule="evenodd" clip-rule="evenodd" d="M1098.52 309.307C1099.11 308.751 1105.26 298.984 1105.26 298.984L1091.04 297.777L1105.34 289.734L1099.02 282.486L1112.8 285.165L1103.92 275.185L1113.6 276.388L1116.28 281.512L1120.99 277.624L1124.08 278.159L1127.79 282.734L1122.66 285.121L1129.18 293.556L1128.94 296.15L1121.64 294.456L1126.19 301.028L1118.19 312.795L1115.44 311.111L1117.18 305.026L1116.07 304.066L1114.53 310.256L1110.86 309.34L1110.33 302.95L1109.27 302.81L1103.21 309.952C1103.21 309.952 1097.92 309.868 1098.52 309.307Z" fill="#098587"/>
<path fill-rule="evenodd" clip-rule="evenodd" d="M667.23 282.591L664.031 311.454L638.293 306.118L667.23 282.591Z" fill="#DAB1C8"/>
<path fill-rule="evenodd" clip-rule="evenodd" d="M763.192 49.055C763.053 48.5609 757.259 37.8539 757.259 37.8539C757.259 37.8539 751.374 37.7656 747.998 37.0471C744.622 36.3311 732.576 36.6891 732.576 36.6891C732.576 36.6891 726.874 38.5699 722.494 39.5128C718.114 40.4531 711.405 43.9473 711.405 43.9473C711.405 43.9473 716.699 46.8592 720.943 48.1576C725.185 49.4585 734.905 49.3677 734.905 49.3677L733.261 45.1121C733.261 45.1121 732.122 40.6775 734.127 41.0355C736.134 41.3935 738.371 43.7684 738.874 46.2769C739.374 48.7854 739.603 50.3082 739.603 50.3082L745.215 49.9955C745.215 49.9955 742.707 42.1549 744.53 41.5725C746.355 40.9901 747.634 42.4675 748.273 44.439C748.91 46.4105 749.914 49.055 749.914 49.055C749.914 49.055 763.328 49.5466 763.192 49.055Z" fill="#EB4F1C"/>
<path fill-rule="evenodd" clip-rule="evenodd" d="M850.574 93.7173L847.729 115.157L856.391 112.456L854.689 118.993L861.929 119.847L865.053 123.819L871.589 123.251L878.406 121.406L882.377 113.311C869.168 103.458 857.574 95.6511 850.574 93.7173Z" fill="#F6B820"/>
<path fill-rule="evenodd" clip-rule="evenodd" d="M-1.11523 77.7246L-0.377419 95.6876C-0.377419 95.6876 -1.11509 91.9993 9.2182 93.3097C19.5567 94.62 34.5689 98.396 34.5689 98.396L35.4717 97.1632C35.4717 97.1632 7.74265 85.6793 3.55877 82.2331C-0.625107 78.787 -1.11523 77.7246 -1.11523 77.7246Z" fill="#0F9998"/>
<path fill-rule="evenodd" clip-rule="evenodd" d="M-1.11621 74.0418L-1.0645 66.5323C-1.0645 66.5323 5.88123 67.3529 9.98336 66.5323C14.082 65.7082 14.192 64.7773 14.192 64.7773C14.192 64.7773 12.1703 65.7081 17.5825 70.0422C22.9947 74.3729 30.1088 80.3619 30.1088 80.3619L27.5919 83.817C27.5919 83.817 13.9789 79.3758 10.6435 77.4035C7.30818 75.4279 3.86284 74.3868 2.76939 74.2765C1.67595 74.1696 -1.11621 74.0418 -1.11621 74.0418Z" fill="#0F9998"/>
<path fill-rule="evenodd" clip-rule="evenodd" d="M50.8078 44.2237L44.7493 10.7051L26.3008 11.2657L50.8078 44.2237Z" fill="#984C9E"/>
<path fill-rule="evenodd" clip-rule="evenodd" d="M179.233 166.622L154.433 334.259L161.429 334.982L184.183 167.353L179.233 166.622Z" fill="#E26493"/>
<path fill-rule="evenodd" clip-rule="evenodd" d="M750.247 282.591L750.436 293.316L787.564 294.015L787.436 282.909L750.247 282.591Z" fill="#0F973D"/>
<path fill-rule="evenodd" clip-rule="evenodd" d="M248.673 184.893C248.673 184.893 257.05 180.759 260.36 167.965C263.67 155.167 265.656 137.57 265.656 137.57C265.656 137.57 258.592 122.674 251.863 123.89C245.134 125.102 244.582 128.851 245.134 133.378C245.686 137.9 252.085 144.96 252.085 144.96C252.085 144.96 249.105 165.813 248.774 169.232C248.444 172.651 248.673 184.893 248.673 184.893Z" fill="#EE4738"/>
<path fill-rule="evenodd" clip-rule="evenodd" d="M231.777 3.01919C231.777 3.01919 230.305 17.2859 242.374 19.9054C254.443 22.5248 260.938 17.1774 263.146 12.8803C265.343 8.57231 265.656 0.811035 265.656 0.811035L231.777 3.01919Z" fill="#E4C835"/>
<path fill-rule="evenodd" clip-rule="evenodd" d="M456.105 30.9937C456.105 30.9937 464.839 24.4146 473.036 24.4146H481.999L478.4 42.1924C478.4 42.1924 468.21 44.6198 464.074 42.741C459.937 40.8601 456.105 30.9937 456.105 30.9937Z" fill="#129640"/>
<path fill-rule="evenodd" clip-rule="evenodd" d="M404.184 293.725L398.811 270.847L410.049 267.467L413.83 272.937L418.208 271.943L422.485 265.976L433.029 268.361L431.137 274.328L439.691 277.712L449.144 275.225L456.106 278.808L449.043 291.437H419.801L404.184 293.725Z" fill="#8A4898"/>
</svg>
