<svg width="200" height="200" viewBox="0 0 200 200" fill="none" xmlns="http://www.w3.org/2000/svg">
<ellipse cx="99.8255" cy="100" rx="99.8255" ry="100" fill="#F6F8FA"/>
<path fill-rule="evenodd" clip-rule="evenodd" d="M121.409 75.6754H78.2417C76.7516 75.6754 75.5437 76.8854 75.5437 78.3781V121.621C75.5437 123.114 76.7516 124.324 78.2417 124.324H121.409C122.9 124.324 124.107 123.114 124.107 121.621V78.3781C124.107 76.8854 122.9 75.6754 121.409 75.6754ZM78.2417 72.9727C75.2616 72.9727 72.8457 75.3927 72.8457 78.3781V121.621C72.8457 124.607 75.2616 127.027 78.2417 127.027H121.409C124.39 127.027 126.805 124.607 126.805 121.621V78.3781C126.805 75.3927 124.39 72.9727 121.409 72.9727H78.2417Z" fill="#A7B9D1"/>
<path d="M111.292 94.5942L79.5906 126.351H122.131C124.34 126.351 126.131 124.56 126.131 122.351V108.108L111.292 94.5942Z" fill="#A7B9D1"/>
<path d="M92.1422 99.9995L72.8457 116.654L75.9934 125.675H97.1746C99.3837 125.675 101.175 123.884 101.175 121.675V107.087L92.1422 99.9995Z" fill="#A7B9D1"/>
<ellipse cx="89.0337" cy="89.1891" rx="5.39597" ry="5.40541" fill="#A7B9D1"/>
</svg>
