<svg width="429" height="243" viewBox="0 0 429 243" fill="none" xmlns="http://www.w3.org/2000/svg">
<g clip-path="url(#clip0)">
<path opacity="0.1" d="M238.519 33.7294C213.826 33.587 190.158 27.2532 167.53 20.239C144.902 13.2248 122.475 5.41147 98.2907 1.97756C82.7365 -0.222046 65.0108 -0.154797 52.7038 7.34997C40.8618 14.5738 37.2678 26.6321 35.4511 37.7844C34.0797 46.1754 33.3703 54.9896 37.8628 62.708C40.98 68.0646 46.3907 72.4994 50.1856 77.6107C63.3833 95.3935 54.9146 117.924 41.5159 135.928C35.2107 144.374 27.8966 152.465 23.1046 161.405C18.3126 170.346 16.2437 180.517 20.8387 189.407C25.3942 198.221 35.9003 204.67 47.2182 209.112C70.2087 218.128 97.0927 220.213 123.275 221.127C181.248 223.153 239.41 220.249 297.414 217.349C318.884 216.273 340.444 215.189 361.503 211.81C373.199 209.927 385.254 207.091 393.624 200.757C404.265 192.71 406.629 179.473 399.142 169.899C386.594 153.833 352.885 150.585 343.971 133.234C339.06 123.68 343.6 112.796 350.181 103.666C364.297 84.079 388.324 66.6087 389.081 44.5969C389.601 29.4766 377.487 14.6411 359.151 7.93943C339.904 0.889622 313.54 2.47207 299.779 15.2108C285.623 28.3253 260.339 33.856 238.519 33.7294Z" fill="#6C63FF"/>
<path d="M224.477 97.2271C224.477 97.2271 213.647 77.9647 197.332 72.4143C190.476 70.1287 184.543 65.6728 180.423 59.7151C178.489 56.8719 176.819 53.8566 175.434 50.707" stroke="#535461" stroke-width="2" stroke-miterlimit="10"/>
<path d="M165.181 47.1496C167.037 48.9615 175.695 50.8327 175.695 50.8327C175.695 50.8327 173.571 42.2044 171.715 40.3925C170.822 39.5227 169.622 39.0445 168.378 39.063C167.135 39.0816 165.949 39.5954 165.083 40.4914C164.216 41.3875 163.74 42.5923 163.758 43.841C163.777 45.0896 164.289 46.2798 165.181 47.1496Z" fill="#6C63FF"/>
<path d="M170.097 62.7752C172.639 63.2816 180.922 60.1286 180.922 60.1286C180.922 60.1286 174.432 54.0361 171.906 53.5297C170.685 53.2889 169.418 53.545 168.385 54.2417C167.352 54.9384 166.636 56.0185 166.397 57.2445C166.157 58.4706 166.412 59.742 167.106 60.7792C167.8 61.8164 168.876 62.5344 170.097 62.7752Z" fill="#6C63FF"/>
<path d="M187.91 79.6627C190.357 78.8121 195.921 71.8968 195.921 71.8968C195.921 71.8968 187.291 69.9188 184.844 70.7654C184.254 70.961 183.708 71.2724 183.239 71.6815C182.77 72.0906 182.387 72.5892 182.111 73.1483C181.836 73.7074 181.674 74.3159 181.634 74.9385C181.595 75.561 181.68 76.1852 181.883 76.7747C182.086 77.3642 182.404 77.9073 182.818 78.3725C183.232 78.8376 183.734 79.2155 184.294 79.4842C184.855 79.753 185.464 79.9071 186.084 79.9377C186.705 79.9684 187.325 79.8749 187.91 79.6627Z" fill="#6C63FF"/>
<path d="M204.268 89.4035C206.822 88.9801 213.47 83.1053 213.47 83.1053C213.47 83.1053 205.297 79.6872 202.739 80.1105C201.512 80.3141 200.415 80.9988 199.69 82.0141C198.966 83.0294 198.672 84.2922 198.875 85.5245C199.078 86.7568 199.76 87.8578 200.771 88.5852C201.783 89.3127 203.041 89.607 204.268 89.4035Z" fill="#6C63FF"/>
<path d="M188.117 53.3757C188.117 55.9788 183.432 63.5192 183.432 63.5192C183.432 63.5192 178.738 55.9828 178.738 53.3797C178.738 52.1311 179.232 50.9336 180.112 50.0507C180.991 49.1679 182.184 48.6719 183.428 48.6719C184.672 48.6719 185.864 49.1679 186.744 50.0507C187.623 50.9336 188.117 52.1311 188.117 53.3797V53.3757Z" fill="#6C63FF"/>
<path d="M207.108 65.006C206.32 67.4905 199.621 73.2783 199.621 73.2783C199.621 73.2783 197.39 64.6737 198.163 62.2011C198.534 61.0092 199.362 60.0143 200.464 59.4352C201.567 58.8561 202.853 58.7404 204.04 59.1134C205.228 59.4864 206.219 60.3176 206.795 61.4241C207.372 62.5307 207.488 63.822 207.116 65.0139L207.108 65.006Z" fill="#6C63FF"/>
<path d="M224.018 78.8509C223.675 81.4303 218.024 88.2783 218.024 88.2783C218.024 88.2783 214.379 80.1762 214.722 77.5968C214.888 76.3592 215.536 75.2384 216.525 74.4809C217.514 73.7234 218.762 73.3913 219.995 73.5576C221.227 73.7239 222.344 74.375 223.099 75.3677C223.853 76.3604 224.184 77.6133 224.018 78.8509Z" fill="#6C63FF"/>
<path opacity="0.25" d="M165.181 47.1496C167.037 48.9615 175.695 50.8327 175.695 50.8327C175.695 50.8327 173.571 42.2044 171.715 40.3925C170.822 39.5227 169.622 39.0445 168.378 39.063C167.135 39.0816 165.949 39.5954 165.083 40.4914C164.216 41.3875 163.74 42.5923 163.758 43.841C163.777 45.0896 164.289 46.2798 165.181 47.1496Z" fill="black"/>
<path opacity="0.25" d="M170.097 62.7752C172.639 63.2816 180.922 60.1286 180.922 60.1286C180.922 60.1286 174.432 54.0361 171.906 53.5297C170.685 53.2889 169.418 53.545 168.385 54.2417C167.352 54.9384 166.636 56.0185 166.397 57.2445C166.157 58.4706 166.412 59.742 167.106 60.7792C167.8 61.8164 168.876 62.5344 170.097 62.7752Z" fill="black"/>
<path opacity="0.25" d="M187.91 79.6627C190.357 78.8121 195.921 71.8968 195.921 71.8968C195.921 71.8968 187.291 69.9188 184.844 70.7654C184.254 70.961 183.708 71.2724 183.239 71.6815C182.77 72.0906 182.387 72.5892 182.111 73.1483C181.836 73.7074 181.674 74.3159 181.634 74.9385C181.595 75.561 181.68 76.1852 181.883 76.7747C182.086 77.3642 182.404 77.9073 182.818 78.3725C183.232 78.8376 183.734 79.2155 184.294 79.4842C184.855 79.753 185.464 79.9071 186.084 79.9377C186.705 79.9684 187.325 79.8749 187.91 79.6627Z" fill="black"/>
<path opacity="0.25" d="M204.268 89.4035C206.822 88.9801 213.47 83.1053 213.47 83.1053C213.47 83.1053 205.297 79.6872 202.739 80.1105C201.512 80.3141 200.415 80.9988 199.69 82.0141C198.966 83.0294 198.672 84.2922 198.875 85.5245C199.078 86.7568 199.76 87.8578 200.771 88.5852C201.783 89.3127 203.041 89.607 204.268 89.4035Z" fill="black"/>
<path opacity="0.25" d="M188.117 53.3757C188.117 55.9788 183.432 63.5192 183.432 63.5192C183.432 63.5192 178.738 55.9828 178.738 53.3797C178.738 52.1311 179.232 50.9336 180.112 50.0507C180.991 49.1679 182.184 48.6719 183.428 48.6719C184.672 48.6719 185.864 49.1679 186.744 50.0507C187.623 50.9336 188.117 52.1311 188.117 53.3797V53.3757Z" fill="black"/>
<path opacity="0.25" d="M207.108 65.006C206.32 67.4905 199.621 73.2783 199.621 73.2783C199.621 73.2783 197.39 64.6737 198.163 62.2011C198.534 61.0092 199.362 60.0143 200.464 59.4352C201.567 58.8561 202.853 58.7404 204.04 59.1134C205.228 59.4864 206.219 60.3176 206.795 61.4241C207.372 62.5307 207.488 63.822 207.116 65.0139L207.108 65.006Z" fill="black"/>
<path opacity="0.25" d="M224.018 78.8509C223.675 81.4303 218.024 88.2783 218.024 88.2783C218.024 88.2783 214.379 80.1762 214.722 77.5968C214.888 76.3592 215.536 75.2384 216.525 74.4809C217.514 73.7234 218.762 73.3913 219.995 73.5576C221.227 73.7239 222.344 74.375 223.099 75.3677C223.853 76.3604 224.184 77.6133 224.018 78.8509Z" fill="black"/>
<path d="M223.861 96.8502C223.861 96.8502 221.733 74.8304 209.064 63.1203C203.716 58.2431 200.089 51.7561 198.727 44.6333C198.107 41.2468 197.799 37.8103 197.805 34.3672" stroke="#535461" stroke-width="2" stroke-miterlimit="10"/>
<path d="M189.861 26.9366C190.827 29.3498 197.987 34.5838 197.987 34.5838C197.987 34.5838 199.528 25.8289 198.558 23.4156C198.335 22.8327 197.998 22.3003 197.568 21.8493C197.137 21.3983 196.622 21.0378 196.051 20.7888C195.481 20.5398 194.867 20.4072 194.244 20.3989C193.622 20.3905 193.005 20.5065 192.428 20.7401C191.851 20.9737 191.326 21.3202 190.884 21.7594C190.441 22.1987 190.091 22.7219 189.852 23.2986C189.613 23.8753 189.491 24.494 189.492 25.1186C189.494 25.7431 189.619 26.3611 189.861 26.9366Z" fill="#6C63FF"/>
<path d="M188.034 43.209C190.155 44.7044 198.994 45.187 198.994 45.187C198.994 45.187 195.549 36.9978 193.433 35.5024C192.416 34.7837 191.156 34.5002 189.93 34.7142C188.704 34.9283 187.613 35.6223 186.898 36.6438C186.182 37.6652 185.899 38.9303 186.112 40.1608C186.326 41.3912 187.017 42.4863 188.034 43.205V43.209Z" fill="#6C63FF"/>
<path d="M197.515 65.9123C200.096 66.1299 207.974 62.0669 207.974 62.0669C207.974 62.0669 200.88 56.746 198.299 56.5284C197.06 56.4235 195.829 56.8172 194.879 57.6229C193.929 58.4286 193.336 59.5803 193.231 60.8247C193.127 62.0691 193.519 63.3042 194.322 64.2583C195.124 65.2124 196.272 65.8074 197.511 65.9123H197.515Z" fill="#6C63FF"/>
<path d="M208.541 81.4661C211.047 82.1189 219.496 79.4525 219.496 79.4525C219.496 79.4525 213.4 73.004 210.894 72.3314C210.287 72.1394 209.648 72.0731 209.016 72.1367C208.383 72.2002 207.77 72.3921 207.214 72.7009C206.657 73.0097 206.169 73.4288 205.779 73.9328C205.389 74.4368 205.105 75.0152 204.945 75.6327C204.784 76.2503 204.751 76.8941 204.846 77.5252C204.941 78.1562 205.163 78.7613 205.498 79.3035C205.833 79.8458 206.275 80.314 206.796 80.6797C207.317 81.0453 207.907 81.3008 208.529 81.4305L208.541 81.4661Z" fill="#6C63FF"/>
<path d="M208.322 41.9613C207.274 44.3349 199.944 49.3276 199.944 49.3276C199.944 49.3276 198.695 40.5292 199.743 38.1515C200.246 37.0094 201.181 36.1148 202.341 35.6645C203.502 35.2141 204.793 35.245 205.93 35.7502C207.068 36.2554 207.959 37.1936 208.408 38.3584C208.856 39.5232 208.825 40.8192 208.322 41.9613Z" fill="#6C63FF"/>
<path d="M220.984 60.3209C219.274 62.2713 210.793 64.8309 210.793 64.8309C210.793 64.8309 212.223 56.0602 213.946 54.1059C214.352 53.6412 214.846 53.2614 215.398 52.9882C215.951 52.715 216.552 52.5538 217.167 52.5138C217.782 52.4737 218.398 52.5557 218.981 52.7548C219.565 52.954 220.103 53.2666 220.566 53.6747C221.029 54.0828 221.407 54.5784 221.679 55.1332C221.952 55.6881 222.112 56.2913 222.152 56.9085C222.192 57.5257 222.11 58.1447 221.912 58.7302C221.714 59.3157 221.402 59.8562 220.996 60.3209H220.984Z" fill="#6C63FF"/>
<path d="M230.855 79.8594C229.5 82.0748 221.571 86.0388 221.571 86.0388C221.571 86.0388 221.504 77.1494 222.86 74.9301C223.528 73.9035 224.569 73.1792 225.761 72.911C226.953 72.6427 228.203 72.8517 229.244 73.4935C230.285 74.1354 231.036 75.1594 231.337 76.3481C231.638 77.5368 231.465 78.7965 230.855 79.8594Z" fill="#6C63FF"/>
<path opacity="0.1" d="M325.938 236.864C327.1 239.237 318.876 241.789 308.689 242.525C299.562 243.185 292.059 242.109 291.109 240.179C290.159 238.248 295.972 235.906 304.902 234.85C314.868 233.679 324.775 234.514 325.938 236.864Z" fill="#6C63FF"/>
<path d="M86.4336 111.317L211.979 66.6797V220.885L86.4336 218.259V111.317Z" fill="white"/>
<path opacity="0.2" d="M86.4336 111.317L211.979 66.6797V220.885L86.4336 218.259V111.317Z" fill="#6C63FF"/>
<path d="M0.230469 136.782L71.8541 111.316V218.258H0.230469V136.782Z" fill="white"/>
<path opacity="0.2" d="M0.230469 136.782L71.8541 111.316V218.258H0.230469V136.782Z" fill="#6C63FF"/>
<path d="M211.98 66.6797L337.522 111.317V218.259L211.98 220.885V66.6797Z" fill="white"/>
<path opacity="0.5" d="M211.98 66.6797L337.522 111.317V218.259L211.98 220.885V66.6797Z" fill="#6C63FF"/>
<path d="M425.022 137.102L352.496 111.316V218.258H425.022V137.102Z" fill="white"/>
<path opacity="0.5" d="M425.022 137.102L352.496 111.316V218.258H425.022V137.102Z" fill="#6C63FF"/>
<path d="M41.9663 155.346C41.458 155.346 41.0442 156.042 41.0442 156.901V176.254C41.0711 178.163 40.6227 180.05 39.7398 181.741C38.9162 183.193 37.6551 184.115 36.4492 184.115H35.6611C34.4788 184.115 33.3203 183.229 32.4139 181.666C31.4689 179.979 30.976 178.075 30.9834 176.139V151.168C30.9587 149.788 31.3132 148.427 32.008 147.236C32.6661 146.191 33.5291 145.614 34.4355 145.614C35.3419 145.614 36.1734 146.191 36.8 147.228C37.4645 148.438 37.7989 149.803 37.7694 151.184V174.501C37.7694 176.202 36.9812 177.706 36.0512 177.706C35.2631 177.706 34.3803 176.424 34.3803 174.501V161.185C34.3803 160.331 33.9665 159.63 33.4582 159.63C32.9498 159.63 32.5321 160.331 32.5321 161.185V174.486C32.5321 178.022 34.0454 180.689 36.0512 180.689C37.0285 180.689 37.931 180.08 38.5812 178.968C39.3084 177.589 39.6656 176.045 39.6176 174.486V151.168C39.6582 149.016 39.1263 146.893 38.0768 145.016C37.0995 143.375 35.7951 142.477 34.404 142.477C33.0129 142.477 31.7085 143.375 30.7193 145.016C29.6672 146.896 29.1364 149.024 29.1824 151.18V176.147C29.1824 179.007 29.9075 181.911 31.1134 183.913C32.3193 185.915 33.9508 187.078 35.6217 187.078H36.4295C38.065 187.078 39.7043 185.915 40.926 183.881C41.5584 182.808 42.0348 181.649 42.3407 180.44C42.6938 179.07 42.8713 177.661 42.8688 176.246V156.861C42.8688 156.003 42.4747 155.306 41.9506 155.306L41.9663 155.346Z" fill="white"/>
<path d="M218.394 198.438C218.394 198.438 220.731 201.507 217.315 206.14C213.898 210.773 211.076 214.689 212.219 217.569C212.219 217.569 217.374 208.965 221.567 208.866C225.76 208.767 223.005 203.612 218.394 198.438Z" fill="#6C63FF"/>
<path opacity="0.1" d="M218.395 198.438C218.598 198.735 218.758 199.06 218.872 199.403C222.962 204.229 225.142 208.731 221.209 208.846C217.544 208.953 213.15 215.528 212.098 217.19C212.13 217.324 212.171 217.456 212.22 217.585C212.22 217.585 217.374 208.981 221.567 208.882C225.76 208.783 223.006 203.612 218.395 198.438Z" fill="black"/>
<path d="M222.739 202.348C222.739 203.429 222.617 204.303 222.467 204.303C222.317 204.303 222.199 203.429 222.199 202.348C222.199 201.268 222.349 201.775 222.499 201.775C222.648 201.775 222.739 201.268 222.739 202.348Z" fill="#FFD037"/>
<path d="M224.228 203.639C223.286 204.153 222.463 204.466 222.392 204.335C222.321 204.205 223.026 203.679 223.968 203.148C224.91 202.618 224.539 203.01 224.61 203.148C224.681 203.287 225.174 203.121 224.228 203.639Z" fill="#FFD037"/>
<path d="M206.051 198.438C206.051 198.438 203.714 201.507 207.13 206.14C210.547 210.773 213.361 214.689 212.222 217.569C212.222 217.569 207.071 208.965 202.874 208.866C198.677 208.767 201.436 203.612 206.051 198.438Z" fill="#6C63FF"/>
<path opacity="0.1" d="M206.051 198.438C205.848 198.735 205.687 199.06 205.574 199.403C201.479 204.229 199.3 208.731 203.237 208.846C206.898 208.953 211.296 215.528 212.348 217.19C212.314 217.324 212.272 217.456 212.222 217.585C212.222 217.585 207.071 208.981 202.874 208.882C198.677 208.783 201.436 203.612 206.051 198.438Z" fill="black"/>
<path d="M201.707 202.348C201.707 203.429 201.825 204.303 201.975 204.303C202.125 204.303 202.247 203.429 202.247 202.348C202.247 201.268 202.093 201.775 201.947 201.775C201.802 201.775 201.707 201.268 201.707 202.348Z" fill="#FFD037"/>
<path d="M200.213 203.639C201.159 204.153 201.982 204.466 202.053 204.335C202.124 204.205 201.419 203.679 200.477 203.148C199.535 202.618 199.906 203.01 199.835 203.148C199.764 203.287 199.255 203.121 200.213 203.639Z" fill="#FFD037"/>
<path opacity="0.1" d="M212.222 241.036C225.716 241.036 236.655 239.352 236.655 237.274C236.655 235.196 225.716 233.512 212.222 233.512C198.728 233.512 187.789 235.196 187.789 237.274C187.789 239.352 198.728 241.036 212.222 241.036Z" fill="#6C63FF"/>
<path d="M224.8 213.436L224.682 214.393L224.516 215.746L224.449 216.308L224.284 217.665L224.213 218.227L224.051 219.58L222.179 234.969C222.014 236.342 219.779 237.414 217.08 237.414H207.366C204.666 237.414 202.436 236.342 202.266 234.969L200.395 219.58L200.229 218.227L200.162 217.665L199.997 216.308L199.926 215.746L199.764 214.393L199.646 213.436C199.551 212.645 200.761 212 202.29 212H222.159C223.689 212 224.894 212.657 224.8 213.436Z" fill="#444053"/>
<path d="M224.683 214.395L224.518 215.748H199.927L199.766 214.395H224.683Z" fill="#9D9CB5"/>
<path d="M224.449 216.312L224.283 217.665H200.162L199.996 216.312H224.449Z" fill="#9D9CB5"/>
<path d="M224.214 218.23L224.053 219.583H200.396L200.23 218.23H224.214Z" fill="#9D9CB5"/>
<path d="M164.718 129.871L160.954 134.892C160.923 134.939 160.879 134.975 160.827 134.997C160.775 135.019 160.718 135.025 160.663 135.014L156.773 134.081C156.7 134.053 156.635 134.004 156.588 133.941C156.541 133.878 156.512 133.803 156.505 133.725L155.812 128.554C155.791 128.415 155.823 128.274 155.902 128.158L159.658 123.146C159.798 122.945 159.866 122.701 159.851 122.456C159.835 122.211 159.736 121.978 159.571 121.797C158.86 121.084 157.911 120.661 156.907 120.61C156.852 120.604 156.797 120.604 156.742 120.61C155.693 120.689 153.447 121.469 151.713 123.917C150.03 126.291 148.269 130.667 149.829 135.556C150.015 136.146 150.224 136.925 149.601 137.752C148.978 138.579 132.872 158.719 132.872 158.719C131.363 160.448 131.473 163.645 132.872 165.504C133.17 165.929 133.561 166.278 134.016 166.525C134.471 166.772 134.976 166.91 135.493 166.928C135.996 166.919 136.488 166.78 136.923 166.524C137.357 166.269 137.718 165.905 137.972 165.469C137.972 165.469 153.002 144.185 153.735 143.215C153.833 143.053 153.969 142.917 154.131 142.819C154.293 142.72 154.476 142.662 154.665 142.65C154.925 142.663 155.175 142.756 155.382 142.915C156.181 143.463 157.129 143.751 158.097 143.742C160.343 143.742 162.704 142.357 164.146 140.442C165.633 138.517 166.498 136.181 166.625 133.748C166.675 132.421 166.366 131.104 165.73 129.939C165.689 129.843 165.622 129.761 165.537 129.7C165.453 129.639 165.353 129.603 165.25 129.594C165.146 129.585 165.042 129.604 164.949 129.649C164.855 129.695 164.775 129.765 164.718 129.852V129.871ZM136.344 163.083C136.253 163.222 136.13 163.336 135.984 163.415C135.839 163.493 135.676 163.535 135.511 163.535C135.345 163.535 135.183 163.493 135.037 163.415C134.892 163.336 134.768 163.222 134.677 163.083C134.457 162.756 134.339 162.37 134.339 161.975C134.339 161.581 134.457 161.195 134.677 160.868C134.768 160.729 134.892 160.615 135.037 160.536C135.183 160.457 135.345 160.416 135.511 160.416C135.676 160.416 135.839 160.457 135.984 160.536C136.13 160.615 136.253 160.729 136.344 160.868C136.565 161.194 136.683 161.58 136.684 161.975C136.685 162.37 136.568 162.756 136.348 163.083H136.344Z" fill="white"/>
<path d="M297.96 139.576C296.919 127.501 288.766 118.094 278.847 118.094C272.282 118.094 266.5 122.204 263.029 128.483C261.963 127.928 260.781 127.636 259.58 127.632C254.568 127.632 250.517 133.171 250.426 139.413C245.303 141.455 241.93 147.721 241.93 154.296C241.93 162.355 247.147 169.468 253.579 169.468H295.918C302.354 169.468 307.571 162.347 307.571 154.296C307.571 147.12 303.418 140.794 297.96 139.576ZM288.395 136.806L271.257 158.367C271.036 158.64 270.469 159.249 269.767 159.249C269.467 159.214 269.178 159.114 268.919 158.957C268.661 158.799 268.439 158.587 268.27 158.335L261.078 149.335C260.979 149.204 260.925 149.043 260.925 148.878C260.925 148.713 260.979 148.553 261.078 148.421L263.36 145.565C263.401 145.507 263.454 145.46 263.516 145.426C263.579 145.393 263.648 145.374 263.718 145.371C263.789 145.374 263.858 145.392 263.92 145.426C263.982 145.459 264.036 145.507 264.077 145.565L269.771 152.686L285.408 132.957C285.45 132.9 285.504 132.853 285.566 132.819C285.628 132.786 285.697 132.767 285.767 132.763C285.838 132.763 285.908 132.781 285.97 132.815C286.033 132.849 286.086 132.898 286.126 132.957L288.368 135.865C288.478 135.993 288.54 136.155 288.545 136.325C288.55 136.494 288.497 136.66 288.395 136.794V136.806Z" fill="white"/>
<path d="M401.749 158.694C403.901 158.694 405.646 156.358 405.646 153.476C405.646 150.594 403.901 148.258 401.749 148.258C399.597 148.258 397.852 150.594 397.852 153.476C397.852 156.358 399.597 158.694 401.749 158.694Z" fill="white"/>
<path d="M401.75 160.708C401.32 160.706 400.893 160.637 400.485 160.502L396.639 165.752C396.606 165.796 396.589 165.85 396.589 165.904C396.589 165.959 396.606 166.013 396.639 166.057L402.751 174.76C402.953 175.055 403.061 175.404 403.061 175.761C403.061 176.119 402.953 176.468 402.751 176.762C402.664 176.881 402.552 176.978 402.422 177.047C402.292 177.116 402.149 177.153 402.002 177.158C401.856 177.154 401.713 177.116 401.584 177.047C401.455 176.979 401.343 176.881 401.257 176.762L395.169 168.059C395.156 168.039 395.138 168.023 395.118 168.012C395.097 168.001 395.074 167.995 395.051 167.995C395.027 167.995 395.004 168.001 394.984 168.012C394.963 168.023 394.945 168.039 394.932 168.059L393.447 170.084C392.205 171.769 390.558 171.516 388.785 171.528C387.011 171.54 385.289 170.527 384.028 168.818L382.602 166.872C382.589 166.852 382.571 166.836 382.551 166.825C382.53 166.814 382.507 166.808 382.484 166.808C382.46 166.808 382.437 166.814 382.416 166.825C382.396 166.836 382.378 166.852 382.365 166.872L376.277 175.575C376.19 175.694 376.078 175.792 375.948 175.86C375.818 175.929 375.675 175.967 375.528 175.971C375.382 175.967 375.239 175.929 375.11 175.86C374.98 175.792 374.869 175.694 374.783 175.575C374.581 175.281 374.473 174.932 374.473 174.574C374.473 174.217 374.581 173.868 374.783 173.573L380.895 164.87C380.922 164.824 380.937 164.771 380.937 164.718C380.937 164.664 380.922 164.611 380.895 164.565L372.151 152.649C372.044 152.507 371.875 152.606 371.875 152.8V176.647C371.875 178.562 373.057 180.129 374.472 180.129L403.05 181.316C404.481 181.316 405.647 179.733 405.647 177.834V158.477C404.666 159.85 403.287 160.708 401.75 160.708Z" fill="white"/>
<path d="M396.35 153.477C396.346 152.284 396.572 151.102 397.016 149.995L374.463 148.809C374.157 148.816 373.856 148.888 373.579 149.02C373.302 149.151 373.056 149.339 372.855 149.572L385.596 166.939C385.944 167.47 386.413 167.909 386.966 168.219C387.518 168.529 388.136 168.7 388.768 168.72C389.951 168.72 391.101 169.278 391.945 168.126L398.478 159.217C397.182 157.892 396.35 155.815 396.35 153.477Z" fill="white"/>
<path d="M428.143 216.025C428.143 216.025 423.536 215.749 424.08 218.985C424.05 219.148 424.072 219.316 424.143 219.466C424.214 219.615 424.329 219.739 424.474 219.819C424.474 219.819 424.474 219.578 424.947 219.661C425.112 219.688 425.28 219.696 425.447 219.685C425.672 219.667 425.886 219.579 426.058 219.432C426.058 219.432 427.351 218.894 427.855 216.769C427.855 216.769 428.229 216.306 428.214 216.188L427.425 216.52C427.574 216.845 427.594 217.214 427.481 217.552C427.481 217.552 427.457 216.54 427.307 216.563C427.276 216.563 426.913 216.761 426.913 216.761C426.913 216.761 427.37 217.738 427.027 218.451C427.027 218.451 427.157 217.264 426.771 216.832L426.224 217.153C426.224 217.153 426.759 218.162 426.397 218.989C426.397 218.989 426.492 217.723 426.109 217.228L425.613 217.624C425.613 217.624 426.117 218.625 425.81 219.309C425.81 219.309 425.77 217.833 425.506 217.727C425.318 217.886 425.15 218.068 425.006 218.269C425.006 218.269 425.349 218.993 425.136 219.372C425.136 219.372 425.006 218.391 424.899 218.387C424.674 218.719 424.512 219.091 424.423 219.483C424.445 219.071 424.574 218.671 424.797 218.324C424.547 218.371 424.317 218.491 424.135 218.668C424.135 218.668 424.202 218.209 424.923 218.166C425.053 217.975 425.204 217.8 425.372 217.643C424.994 217.611 424.614 217.655 424.253 217.774C424.253 217.774 424.647 217.339 425.502 217.537L425.991 217.141C425.558 217.07 425.116 217.07 424.683 217.141C424.683 217.141 425.132 216.745 426.121 217.038L426.657 216.718C426.247 216.627 425.827 216.59 425.408 216.607C425.862 216.436 426.363 216.445 426.811 216.631L427.205 216.461C427.205 216.461 426.629 216.346 426.464 216.33C426.298 216.314 426.287 216.263 426.287 216.263C426.65 216.203 427.022 216.246 427.362 216.385C427.632 216.289 427.894 216.168 428.143 216.025Z" fill="#6C63FF"/>
<path opacity="0.1" d="M424.97 220.655C426.77 220.655 428.229 220.407 428.229 220.101C428.229 219.795 426.77 219.547 424.97 219.547C423.17 219.547 421.711 219.795 421.711 220.101C421.711 220.407 423.17 220.655 424.97 220.655Z" fill="#6C63FF"/>
<path d="M357.194 216.16C357.194 216.16 351.638 215.823 352.292 219.72C352.258 219.918 352.287 220.122 352.376 220.303C352.464 220.483 352.607 220.631 352.784 220.725C352.784 220.725 352.784 220.436 353.356 220.535C353.555 220.569 353.757 220.578 353.959 220.563C354.232 220.545 354.492 220.438 354.7 220.258C354.7 220.258 356.276 219.609 356.867 217.046C356.867 217.046 357.32 216.488 357.3 216.342L356.363 216.737C356.542 217.128 356.565 217.572 356.43 217.979C356.43 217.979 356.402 216.761 356.221 216.793C356.185 216.793 355.732 217.026 355.732 217.026C355.732 217.026 356.284 218.213 355.87 219.071C355.87 219.071 356.028 217.612 355.559 217.093L354.901 217.489C354.901 217.489 355.543 218.711 355.109 219.712C355.109 219.712 355.22 218.181 354.763 217.584L354.164 218.055C354.164 218.055 354.771 219.241 354.4 220.084C354.4 220.084 354.353 218.304 354.034 218.169C353.807 218.361 353.604 218.581 353.431 218.822C353.431 218.822 353.825 219.696 353.588 220.159C353.588 220.159 353.431 218.972 353.301 218.972C353.029 219.375 352.834 219.824 352.725 220.298C352.751 219.8 352.906 219.317 353.175 218.897C352.88 218.951 352.606 219.089 352.386 219.293C352.386 219.293 352.469 218.735 353.316 218.688C353.473 218.456 353.655 218.244 353.86 218.055C353.404 218.015 352.944 218.069 352.509 218.213C352.509 218.213 352.958 217.687 354.014 217.924L354.605 217.441C354.083 217.356 353.551 217.356 353.029 217.441C353.029 217.441 353.569 216.979 354.767 217.315L355.409 216.919C354.914 216.809 354.406 216.765 353.9 216.789C353.9 216.789 354.495 216.464 355.598 216.812L356.055 216.607C356.055 216.607 355.366 216.472 355.161 216.448C354.956 216.425 354.948 216.369 354.948 216.369C355.387 216.297 355.837 216.348 356.248 216.516C356.574 216.426 356.89 216.307 357.194 216.16Z" fill="#6C63FF"/>
<path opacity="0.1" d="M353.366 221.751C355.539 221.751 357.299 221.452 357.299 221.083C357.299 220.713 355.539 220.414 353.366 220.414C351.194 220.414 349.434 220.713 349.434 221.083C349.434 221.452 351.194 221.751 353.366 221.751Z" fill="#6C63FF"/>
<path d="M322.332 177.161C322.332 177.161 322.785 176.722 322.636 176.425C322.592 176.333 322.569 176.233 322.569 176.131C322.569 176.029 322.592 175.928 322.636 175.836C322.636 175.836 321.619 171.825 321.241 171.421C320.992 171.127 320.801 170.789 320.677 170.424C320.717 170.346 320.736 170.259 320.732 170.171C320.715 169.766 320.578 169.376 320.338 169.051C320.043 168.613 319.88 168.097 319.869 167.568C319.865 167.502 319.865 167.436 319.869 167.37C319.756 167.072 319.573 166.806 319.336 166.595C319.098 166.383 318.814 166.233 318.506 166.155C318.636 165.305 318.813 164.454 318.868 163.6C319.046 160.921 318.052 158.322 317.075 155.814C316.862 155.192 316.575 154.599 316.22 154.046C315.783 153.468 315.229 152.989 314.595 152.641C313.96 152.294 313.26 152.085 312.539 152.028C312.009 151.961 311.471 152.014 310.963 152.182C310.462 152.408 310.002 152.717 309.603 153.096C309.182 153.452 308.76 153.816 308.37 154.204L308.323 154.251L308.185 154.398L308.13 154.453L308 154.6L307.952 154.651C307.897 154.718 307.838 154.785 307.783 154.857C307.732 154.924 307.68 154.987 307.633 155.054L307.586 155.122L307.483 155.268L307.436 155.343C307.401 155.395 307.373 155.446 307.341 155.498L307.298 155.569C307.259 155.644 307.215 155.719 307.176 155.798L307.034 156.115V156.158L306.951 156.368C306.845 156.621 306.742 156.874 306.612 157.116L306.589 157.155L306.305 157.499C306.176 157.67 306.067 157.856 305.982 158.053L305.954 158.117C305.954 158.144 305.935 158.176 305.923 158.204L305.895 158.275C305.888 158.306 305.879 158.336 305.868 158.366C305.868 158.39 305.868 158.413 305.868 158.441L305.844 158.528C305.844 158.556 305.844 158.579 305.844 158.607C305.844 158.635 305.844 158.666 305.824 158.694V158.777V158.864C305.824 158.896 305.824 158.928 305.824 158.963C305.824 158.999 305.824 159.011 305.824 159.03C305.824 159.05 305.824 159.141 305.824 159.197C305.824 159.252 305.824 159.24 305.824 159.264C305.822 159.299 305.822 159.335 305.824 159.371C305.822 159.394 305.822 159.418 305.824 159.442C305.822 159.475 305.822 159.508 305.824 159.541V159.612C305.824 159.648 305.824 159.679 305.824 159.711C305.822 159.735 305.822 159.758 305.824 159.782L305.848 159.885C305.848 159.885 305.848 159.928 305.848 159.948L305.883 160.059C305.883 160.059 305.883 160.095 305.903 160.11C305.923 160.126 305.942 160.221 305.966 160.273C306.087 160.538 306.235 160.79 306.407 161.024C306.522 161.183 306.64 161.337 306.758 161.495L306.928 161.732C307.042 161.89 307.146 162.055 307.239 162.227C307.516 162.757 307.65 163.35 307.629 163.948C307.607 164.546 307.431 165.128 307.117 165.637L306.975 165.855C306.897 165.975 306.842 166.11 306.813 166.25C306.8 166.373 306.813 166.497 306.851 166.613C306.89 166.73 306.954 166.837 307.038 166.927L306.687 167.018C306.4 167.097 306.203 167.16 306.203 167.16C305.964 167.139 305.724 167.139 305.485 167.16C305.154 167.265 304.856 167.456 304.622 167.714C304.622 167.714 303.117 167.896 302.624 167.457C302.132 167.018 300.406 166.867 300.406 166.867C300.406 166.867 299.917 165.91 299.389 165.613C298.861 165.317 297.584 164.767 297.545 164.474C297.435 164.164 297.269 163.877 297.056 163.627C296.797 163.572 296.533 163.54 296.268 163.532L296.185 163.39L295.133 161.566C295.133 161.566 293.813 160.019 293.1 159.873C292.386 159.727 294.104 161.515 294.187 161.598C293.944 161.423 293.641 161.352 293.345 161.401C293.05 161.45 292.786 161.615 292.611 161.859C292.051 162.484 293.537 163.952 294.459 164.763L294.609 164.893C294.615 164.975 294.627 165.055 294.644 165.135C295.058 167.307 297.352 169.186 297.352 169.186C297.352 169.186 297.616 170.4 298.483 170.697C299.172 170.93 302.877 172.616 304.808 172.952C304.646 173.371 304.457 174.345 305.257 175.777C305.257 175.777 305.446 178.317 305.032 178.649C304.618 178.981 304.638 182.66 304.638 182.66C304.638 182.66 303.062 189.065 304.638 190.426C304.738 190.512 304.851 190.582 304.973 190.632C304.973 190.731 305.001 190.834 305.012 190.94C305.083 191.581 305.107 192.246 304.938 192.523C304.544 193.148 305.068 194.841 305.068 194.841C305.068 194.841 303.547 203.493 304.224 206.547C304.652 208.829 304.853 211.149 304.823 213.471C304.823 213.471 304.599 216.157 305.765 217.779C305.893 218.162 305.969 218.562 305.99 218.966C306.066 219.742 306.27 220.5 306.593 221.209C306.857 221.723 307.381 223.899 306.932 224.484C306.482 225.07 307.42 231.483 307.42 231.483C307.42 231.483 306.668 233.461 307.42 234.501L307.444 234.529C306.998 234.524 306.554 234.46 306.124 234.339C305.28 234.054 305.911 235.13 306.912 235.866C306.475 236.863 305.875 238.2 305.675 238.636C304.804 238.786 303.078 239.031 302.065 238.79C300.674 238.461 302.668 240.705 304.547 241.112C305.875 241.361 307.226 241.459 308.575 241.405L309.789 240.06C310.769 240.192 311.76 240.229 312.748 240.17L312.642 241.421H313.355V240.123C313.804 240.079 314.269 240.02 314.75 239.933C314.75 239.933 314.778 238.564 314.691 237.271L315.128 237.31L315.195 236.594L316.744 236.875L318.135 225.402C318.135 225.402 318.289 221.134 318.628 218.74C318.967 216.347 317.911 208.32 317.911 208.32C317.911 208.32 317.836 207.924 317.761 207.18C317.686 206.437 317.761 202.097 317.761 202.097C317.761 202.097 318.324 199.723 318.214 199.521C318.104 199.32 318.25 198.307 318.25 198.307C320.614 193.468 317.706 189.097 316.693 187.799C316.751 187.745 316.787 187.67 316.791 187.59C316.797 187.562 316.797 187.534 316.791 187.507C316.632 187.097 316.442 186.701 316.224 186.32L316.815 185.564C317.02 185.861 317.166 186.082 317.166 186.082C317.166 186.082 317.804 184.646 318.447 184.104C319.089 183.562 322.171 178.4 322.171 178.4C322.171 178.4 322.888 177.917 322.51 177.513C322.131 177.11 322.332 177.161 322.332 177.161ZM312.851 217.878C312.8 217.711 312.708 217.56 312.583 217.439C312.583 217.439 312.472 216.647 312.433 215.631C312.658 216.422 312.886 216.996 312.886 216.996L312.851 217.878ZM314.624 236.697C314.624 236.626 314.624 236.555 314.624 236.487H314.679L314.624 236.697ZM315.089 184.326V184.278C315.081 184.177 315.099 184.075 315.142 183.983C315.185 183.89 315.251 183.811 315.333 183.752C315.376 183.725 315.411 183.687 315.434 183.642C315.457 183.597 315.467 183.546 315.463 183.495C315.445 183.329 315.382 183.17 315.282 183.036C315.357 183.092 315.59 183.218 315.747 182.759C315.771 182.688 315.783 182.613 315.783 182.538C315.745 182.154 315.589 181.792 315.337 181.501L317.04 177.901C317.226 177.957 317.415 178 317.607 178.032C317.162 179.416 316.795 181.066 316.795 181.066L315.479 183.974C315.568 184.008 315.647 184.066 315.708 184.14L315.089 184.326Z" fill="url(#paint0_linear)"/>
<path d="M309.428 234.439C309.428 234.439 307.217 234.712 306.141 234.34C305.065 233.968 306.472 235.922 307.926 236.401C308.953 236.703 310.011 236.884 311.079 236.939L312.785 235.325L314.598 235.467L314.283 237.251L314.846 237.303L315.063 234.969L309.428 234.439Z" fill="#444053"/>
<path opacity="0.1" d="M309.428 234.439C309.428 234.439 307.217 234.712 306.141 234.34C305.065 233.968 306.472 235.922 307.926 236.401C308.953 236.703 310.011 236.884 311.079 236.939L312.785 235.325L314.598 235.467L314.283 237.251L314.846 237.303L315.063 234.969L309.428 234.439Z" fill="black"/>
<path d="M306.234 238.516C306.234 238.516 303.578 239.097 302.235 238.769C300.891 238.44 302.818 240.668 304.634 241.067C305.915 241.316 307.221 241.414 308.524 241.36L310.416 239.208L312.63 239.172L312.449 241.376H313.143V238.516H306.234Z" fill="#444053"/>
<path opacity="0.1" d="M306.234 238.516C306.234 238.516 303.578 239.097 302.235 238.769C300.891 238.44 302.818 240.668 304.634 241.067C305.915 241.316 307.221 241.414 308.524 241.36L310.416 239.208L312.63 239.172L312.449 241.376H313.143V238.516H306.234Z" fill="black"/>
<path d="M316.05 187.828C316.05 187.828 320.594 192.9 317.871 198.628C317.871 198.628 317.725 199.653 317.831 199.835C317.938 200.017 317.398 202.391 317.398 202.391C317.398 202.391 317.323 206.695 317.398 207.427C317.473 208.159 317.544 208.554 317.544 208.554C317.544 208.554 318.56 216.51 318.233 218.884C317.906 221.257 317.76 225.49 317.76 225.49L316.417 236.876L309.438 235.563L312.59 219.94L312.7 217.171C312.7 217.171 311.392 213.78 311.971 212.063C312.551 210.346 311.826 188.489 311.826 188.489L316.05 187.828Z" fill="#444053"/>
<path opacity="0.02" d="M316.05 187.828C316.05 187.828 320.594 192.9 317.871 198.628C317.871 198.628 317.725 199.653 317.831 199.835C317.938 200.017 317.398 202.391 317.398 202.391C317.398 202.391 317.323 206.695 317.398 207.427C317.473 208.159 317.544 208.554 317.544 208.554C317.544 208.554 318.56 216.51 318.233 218.884C317.906 221.257 317.76 225.49 317.76 225.49L316.417 236.876L309.438 235.563L312.59 219.94L312.7 217.171C312.7 217.171 311.392 213.78 311.971 212.063C312.551 210.346 311.826 188.489 311.826 188.489L316.05 187.828Z" fill="black"/>
<path d="M312.706 212.353C311.918 213.884 312.415 217.607 312.415 217.607C313.467 218.521 312.888 226.477 312.888 226.477C312.888 226.477 313.613 234.322 314.07 235.236C314.527 236.15 314.464 239.904 314.464 239.904C309.12 240.889 305.629 238.772 305.629 238.772C305.629 238.772 307.339 234.868 307.375 234.686C307.394 234.583 307.623 234.86 307.69 234.943L307.375 234.504C306.645 233.483 307.375 231.513 307.375 231.513C307.375 231.513 306.464 225.183 306.902 224.578C307.339 223.973 306.831 221.84 306.575 221.33C306.262 220.624 306.065 219.872 305.991 219.103C305.97 218.706 305.897 218.313 305.775 217.936C304.647 216.329 304.864 213.667 304.864 213.667C304.894 211.367 304.7 209.069 304.285 206.807C303.631 203.777 305.101 195.2 305.101 195.2C305.101 195.2 304.612 193.522 304.975 192.901C305.14 192.624 305.116 191.968 305.046 191.319C304.959 190.528 304.793 189.792 304.793 189.792L314.72 188.035C314.929 188.383 315.114 188.72 315.295 189.044C318.578 195.132 316.363 197.391 316.363 197.391L314.255 203.887C314.255 203.887 313.506 210.818 312.706 212.353Z" fill="#444053"/>
<path d="M296.988 164.729L295.569 165.916C295.569 165.916 295.289 165.695 294.919 165.358C294.028 164.567 292.594 163.099 293.134 162.482C293.215 162.363 293.32 162.261 293.441 162.184C293.562 162.106 293.698 162.053 293.84 162.029C293.982 162.005 294.127 162.01 294.267 162.044C294.407 162.078 294.539 162.139 294.655 162.225C294.576 162.138 292.929 160.37 293.607 160.512C294.285 160.654 295.577 162.189 295.577 162.189L296.594 163.997L296.988 164.729Z" fill="#EFB7B9"/>
<path d="M315.976 184.438L314.305 184.948L315.574 187.171L317.028 185.276L315.976 184.438Z" fill="#EFB7B9"/>
<path d="M312.053 163.527C314.683 163.527 316.814 161.387 316.814 158.748C316.814 156.108 314.683 153.969 312.053 153.969C309.424 153.969 307.293 156.108 307.293 158.748C307.293 161.387 309.424 163.527 312.053 163.527Z" fill="#EFB7B9"/>
<path d="M309.251 160.489C309.251 160.489 313.586 167.384 309.472 167.97C305.357 168.555 314.989 172.749 314.989 172.749L318.587 169.101C318.587 169.101 314.843 162.605 315.434 160.125C316.025 157.644 309.251 160.489 309.251 160.489Z" fill="#EFB7B9"/>
<path opacity="0.1" d="M315.307 189.044C314.347 189.338 313.369 189.567 312.379 189.728C312.379 189.728 307.019 192.102 305.069 191.311C304.982 190.52 304.816 189.784 304.816 189.784L314.72 188.035C314.94 188.383 315.133 188.72 315.307 189.044Z" fill="black"/>
<path d="M320.237 171.001L319.268 173.014L318.176 175.277L318.019 175.602L316.722 178.415L315.075 181.975C315.075 181.975 315.658 182.667 315.469 183.217C315.28 183.767 315.032 183.506 315 183.474C315.028 183.518 315.394 183.993 315.067 184.202C314.971 184.286 314.899 184.396 314.861 184.518C314.823 184.64 314.819 184.77 314.85 184.895C314.85 184.895 316.194 187.122 316.45 187.925C316.707 188.728 312.38 189.421 312.38 189.421C312.38 189.421 306.236 192.158 304.707 190.805C303.178 189.452 304.707 183.107 304.707 183.107C304.707 183.107 304.707 179.459 305.101 179.131C305.495 178.802 305.318 176.282 305.318 176.282C304.266 174.348 304.991 173.252 304.991 173.252L304.699 168.291C304.699 168.291 305.172 167.781 305.534 167.745C305.765 167.721 305.997 167.721 306.228 167.745C306.228 167.745 306.417 167.678 306.697 167.602C307.28 167.436 308.246 167.207 308.589 167.377C309.097 167.634 312.372 166.981 312.372 166.981C313.781 166.774 315.2 166.642 316.624 166.586C317.11 166.557 317.598 166.61 318.066 166.744C318.382 166.815 318.675 166.966 318.918 167.181C319.161 167.396 319.347 167.669 319.457 167.974C319.403 168.568 319.558 169.161 319.895 169.652C320.486 170.601 320.237 171.001 320.237 171.001Z" fill="#FF6484"/>
<path opacity="0.1" d="M296.988 164.728L295.569 165.914C295.569 165.914 295.289 165.693 294.919 165.357C294.805 164.126 295.849 163.964 296.586 163.996L296.988 164.728Z" fill="black"/>
<path d="M305.326 168.27L304.707 168.306C304.707 168.306 303.253 168.488 302.78 168.048C302.307 167.609 300.636 167.467 300.636 167.467C300.636 167.467 300.163 166.517 299.655 166.225C299.146 165.932 297.909 165.386 297.874 165.093C297.769 164.787 297.608 164.502 297.401 164.254C297.401 164.254 294.674 163.598 295.076 165.75C295.478 167.902 297.692 169.765 297.692 169.765C297.692 169.765 297.948 170.952 298.784 171.261C299.619 171.569 305.034 174.109 305.909 173.452C306.784 172.796 305.326 168.27 305.326 168.27Z" fill="#FF6484"/>
<path opacity="0.1" d="M319.903 169.64C319.566 169.15 319.412 168.556 319.466 167.963C319.356 167.657 319.17 167.384 318.927 167.169C318.684 166.954 318.391 166.804 318.075 166.732C317.845 166.663 317.608 166.617 317.369 166.594C317.681 166.667 317.97 166.818 318.209 167.031C318.448 167.244 318.631 167.514 318.741 167.816C318.684 168.41 318.839 169.004 319.178 169.494C319.758 170.443 319.505 170.847 319.505 170.847L318.536 172.856L317.44 175.127L317.287 175.452L315.99 178.264L314.343 181.825C314.343 181.825 314.922 182.517 314.737 183.067C314.552 183.617 314.304 183.356 314.268 183.324C314.3 183.368 314.662 183.842 314.339 184.052C314.243 184.136 314.171 184.245 314.132 184.367C314.093 184.489 314.088 184.62 314.118 184.744C314.118 184.744 315.466 186.972 315.718 187.775C315.97 188.578 311.647 189.27 311.647 189.27C311.647 189.27 307.38 191.169 305.074 191.023C307.045 191.794 312.376 189.417 312.376 189.417C312.376 189.417 316.711 188.724 316.447 187.921C316.183 187.118 314.847 184.891 314.847 184.891C314.816 184.767 314.82 184.636 314.858 184.514C314.896 184.392 314.968 184.282 315.064 184.199C315.379 183.989 315.025 183.514 314.997 183.471C315.029 183.502 315.297 183.724 315.466 183.213C315.636 182.703 315.072 181.971 315.072 181.971L316.719 178.411L318.016 175.598L318.173 175.273L319.265 173.011L320.234 170.997C320.234 170.997 320.487 170.589 319.903 169.64Z" fill="black"/>
<path d="M319.573 170.457L320.228 171.003C320.346 171.364 320.532 171.7 320.775 171.992C321.138 172.388 322.119 176.367 322.119 176.367C322.078 176.459 322.056 176.559 322.056 176.66C322.056 176.761 322.078 176.861 322.119 176.953C322.265 177.246 321.828 177.685 321.828 177.685C321.828 177.685 321.611 177.61 321.973 178.013C322.336 178.417 321.646 178.888 321.646 178.888C321.646 178.888 318.667 183.995 318.048 184.545C317.43 185.095 316.811 186.523 316.811 186.523C316.811 186.523 315.518 184.481 315.211 184.442L316.484 181.558C316.484 181.558 317.355 177.546 318.009 176.811C318.663 176.075 317.682 173.563 317.682 173.563L319.573 170.457Z" fill="#FF6484"/>
<path opacity="0.1" d="M319.991 177.896C319.448 178.553 318.486 178.687 317.627 178.596C317.501 178.596 317.379 178.565 317.253 178.541C317.067 178.505 316.882 178.462 316.701 178.411C316.052 178.223 315.441 177.921 314.896 177.52C314.782 177.417 314.648 177.337 314.502 177.287C314.329 177.267 314.154 177.3 314 177.383C313.846 177.465 313.722 177.594 313.643 177.75C313.458 178.047 313.371 178.395 313.182 178.691C312.976 178.97 312.706 179.196 312.396 179.349C312.085 179.501 311.742 179.577 311.397 179.57C310.704 179.55 310.02 179.417 309.371 179.174C309.952 178.553 310.395 177.815 310.672 177.01C310.79 176.475 310.825 175.925 310.774 175.38C310.616 172.797 309.722 170.075 307.621 168.572C307.259 168.311 306.833 168.002 306.699 167.61C307.282 167.444 308.248 167.215 308.591 167.385C309.099 167.642 312.374 166.989 312.374 166.989C313.783 166.782 315.203 166.65 316.626 166.594C317.112 166.565 317.6 166.618 318.068 166.752C317.833 167.825 317.793 168.932 317.95 170.02C318.1 170.691 318.341 171.338 318.667 171.942C318.857 172.302 319.061 172.662 319.255 173.022C319.81 174.019 320.338 175.02 320.437 176.144C320.521 176.764 320.361 177.392 319.991 177.896Z" fill="black"/>
<path opacity="0.1" d="M312.806 183.041C313.084 182.967 313.371 182.942 313.657 182.966C313.896 183.038 314.115 183.165 314.296 183.338H312.428C311.947 183.338 311.222 183.366 310.852 183.025C311.175 182.697 312.333 183.097 312.806 183.041Z" fill="black"/>
<path d="M306.331 158.183C306.048 158.575 305.869 159.033 305.812 159.514C305.756 159.994 305.823 160.482 306.008 160.929C306.308 161.637 306.883 162.187 307.238 162.867C307.505 163.395 307.634 163.982 307.613 164.574C307.592 165.165 307.423 165.742 307.12 166.25C306.981 166.429 306.882 166.635 306.828 166.855C306.741 167.413 307.317 167.812 307.774 168.137C309.87 169.64 310.765 172.362 310.926 174.945C310.981 175.49 310.947 176.041 310.828 176.575C310.552 177.381 310.109 178.119 309.527 178.739C310.177 178.98 310.861 179.114 311.553 179.135C311.899 179.141 312.241 179.064 312.552 178.91C312.862 178.757 313.132 178.531 313.338 178.253C313.527 177.96 313.614 177.612 313.799 177.311C313.877 177.154 314.002 177.026 314.156 176.943C314.31 176.86 314.485 176.827 314.658 176.848C314.804 176.899 314.937 176.979 315.052 177.082C315.854 177.673 316.795 178.044 317.783 178.158C318.631 178.257 319.592 178.114 320.148 177.457C320.518 176.949 320.678 176.317 320.593 175.693C320.404 173.482 318.54 171.737 318.11 169.569C317.76 167.808 318.39 166.008 318.504 164.22C318.678 161.57 317.716 158.986 316.775 156.506C316.566 155.891 316.288 155.302 315.947 154.749C315.531 154.185 314.999 153.716 314.387 153.375C313.775 153.033 313.098 152.828 312.4 152.771C311.884 152.703 311.359 152.756 310.867 152.926C310.381 153.149 309.936 153.454 309.551 153.828C308.653 154.619 307.726 155.41 307.187 156.51C306.974 156.953 306.836 157.428 306.599 157.855" fill="#925978"/>
<g opacity="0.1">
<path opacity="0.1" d="M307.192 157.219C307.425 156.788 307.587 156.313 307.776 155.874C307.98 155.463 308.234 155.079 308.532 154.73C307.989 155.237 307.537 155.834 307.196 156.495C306.991 156.926 306.854 157.385 306.629 157.804L306.917 157.559C306.843 157.66 306.776 157.766 306.716 157.876C306.9 157.677 307.06 157.456 307.192 157.219Z" fill="black"/>
<path opacity="0.1" d="M318.372 177.541C317.383 177.425 316.442 177.053 315.641 176.461C315.524 176.361 315.391 176.282 315.247 176.227C315.073 176.209 314.898 176.244 314.745 176.327C314.592 176.41 314.467 176.538 314.388 176.694C314.35 176.757 314.315 176.822 314.285 176.888C314.409 176.832 314.548 176.82 314.679 176.853C314.824 176.904 314.958 176.983 315.073 177.086C315.875 177.677 316.816 178.048 317.804 178.162C318.652 178.261 319.613 178.118 320.169 177.462C320.238 177.377 320.299 177.286 320.35 177.189C319.749 177.528 319.052 177.652 318.372 177.541Z" fill="black"/>
<path opacity="0.1" d="M312.125 178.514C311.434 178.493 310.751 178.359 310.103 178.118C310.682 177.495 311.124 176.756 311.4 175.951C311.521 175.418 311.555 174.869 311.502 174.325C311.345 171.741 310.454 169.015 308.35 167.516C307.893 167.188 307.321 166.788 307.404 166.23C307.463 166.011 307.563 165.806 307.699 165.625C308.002 165.118 308.172 164.542 308.193 163.951C308.213 163.36 308.084 162.774 307.818 162.247C307.463 161.566 306.888 161.012 306.584 160.308C306.425 159.918 306.354 159.498 306.375 159.077C306.397 158.657 306.512 158.246 306.71 157.875C306.61 157.981 306.503 158.082 306.391 158.176C306.31 158.289 306.221 158.397 306.127 158.5C305.928 158.87 305.814 159.281 305.793 159.701C305.772 160.121 305.844 160.541 306.005 160.929C306.304 161.637 306.88 162.187 307.234 162.868C307.501 163.395 307.63 163.983 307.61 164.574C307.589 165.166 307.419 165.742 307.116 166.25C306.978 166.429 306.879 166.635 306.825 166.855C306.738 167.413 307.313 167.813 307.77 168.137C309.867 169.641 310.761 172.362 310.923 174.946C310.977 175.491 310.944 176.041 310.824 176.576C310.549 177.381 310.105 178.119 309.524 178.74C310.173 178.981 310.858 179.114 311.55 179.135C311.896 179.141 312.238 179.064 312.548 178.911C312.859 178.757 313.128 178.532 313.335 178.253C313.358 178.213 313.382 178.174 313.402 178.134C313.019 178.376 312.577 178.507 312.125 178.514Z" fill="black"/>
</g>
<path d="M28.2253 225.655C27.408 225.548 26.6246 225.261 25.9317 224.813L25.8608 224.761C25.9177 224.679 25.9578 224.586 25.979 224.488C25.8817 224.3 25.8303 224.091 25.8293 223.879C25.8323 223.677 25.792 223.478 25.7111 223.293V222.304C25.4778 221.973 25.3613 221.574 25.38 221.169C25.3524 220.35 25.3209 216.331 25.3209 216.331C25.2753 216.12 25.2659 215.903 25.2933 215.69C25.3209 215.223 25.3209 215.049 25.3209 215.049C25.2236 214.778 25.1939 214.487 25.2342 214.202C25.2595 213.932 25.1836 213.663 25.0214 213.447L25.4707 211.231C25.4707 211.231 25.7189 203.588 24.9938 201.281C24.9938 201.281 24.9938 201.281 24.9938 201.254C25.0529 199.77 24.1544 197.298 24.6628 195.573C25.1712 193.848 25.2342 193.476 25.2342 193.476C25.2342 193.476 22.988 187.823 22.4205 186.482C22.0941 185.613 21.6988 184.771 21.2383 183.966C21.2015 183.915 21.166 183.868 21.1319 183.823L21.0728 183.752C21.1963 183.548 21.2705 183.317 21.2895 183.079C21.321 182.684 21.2619 182.185 21.5654 181.892C21.681 181.798 21.805 181.715 21.9358 181.643C22.1668 181.491 22.3506 181.277 22.4663 181.025C22.582 180.774 22.6248 180.494 22.59 180.219C22.5019 179.785 22.296 179.384 21.9949 179.06C22.028 178.866 22.0452 178.671 22.0461 178.474C22.0452 178.029 21.9535 177.589 21.7766 177.181C21.5997 176.772 21.3414 176.405 21.0176 176.101V175.919C21.0221 175.515 20.8963 175.121 20.659 174.795L20.7417 174.855L20.5999 174.732C20.5313 174.661 20.453 174.599 20.3674 174.55C19.7005 174.093 18.9212 173.829 18.1149 173.787C17.3086 173.745 16.5063 173.927 15.7961 174.313C15.4402 174.501 15.1348 174.772 14.9054 175.104C14.4365 175.832 14.5547 176.769 14.3104 177.596C14.0661 178.423 13.5222 179.032 13.0612 179.721C12.6001 180.409 12.2178 181.224 12.3912 182.027C12.5173 182.613 12.9272 183.135 12.9193 183.728C12.9 184.043 12.7709 184.341 12.5547 184.569C12.3385 184.798 12.049 184.943 11.7371 184.978H11.5597C12.1458 185.334 12.8075 185.546 13.4907 185.595C13.4907 185.651 13.4592 185.702 13.4473 185.758C12.9114 187.846 12.4188 190.505 12.4188 190.505C12.4188 190.505 12.7498 193.187 12.0602 195.284C11.3706 197.381 11.4612 201.697 11.4612 201.697C11.4612 201.697 13.3764 200.704 13.4986 201.345C13.6207 201.986 13.4986 202.16 13.4986 202.16C13.7753 202.306 14.0594 202.438 14.3498 202.555V202.812L14.2631 203.96C14.2324 204.197 14.2693 204.439 14.3695 204.656C14.535 204.976 14.3695 205.843 14.3695 205.843C14.3695 205.843 14.2276 205.93 14.3695 206.341C14.4325 206.675 14.394 207.019 14.2591 207.33C14.2591 207.33 14.0897 209.514 14.0582 209.981C13.9192 210.592 13.7185 211.187 13.4592 211.757C13.4592 211.757 13.9715 212.398 13.4592 212.489C12.9469 212.58 12.8917 213.36 12.8917 213.36C12.8917 213.36 12.2927 213.858 12.2927 214.032C10.4826 216.053 9.30771 218.567 8.91545 221.256C8.91545 221.256 8.28493 221.837 8.37557 222.391C8.4268 222.704 8.32434 222.811 8.22582 222.846C8.33616 222.846 8.45832 222.933 8.40315 223.206C8.31646 223.673 8.07607 224.662 8.07607 224.662H8.11942C7.62682 225.232 6.91354 226.185 6.8032 227.036V227.139L6.52734 227.744L8.89181 228.792L9.10067 228.472C9.10067 228.472 10.1489 229.659 11.3469 229.928C11.5528 229.973 11.7628 229.997 11.9735 229.999C12.6407 229.985 13.3 229.851 13.9202 229.603C13.9202 229.603 14.7872 228.527 12.541 228.322C12.541 228.322 11.2247 226.806 11.3587 226.165C11.4009 225.896 11.4286 225.623 11.4415 225.351C11.4415 225.291 11.4415 225.232 11.4415 225.176L11.5952 225.2L11.6228 224.71C11.6565 224.669 11.6819 224.623 11.6975 224.572C11.713 224.522 11.7185 224.469 11.7134 224.417C11.7134 224.215 11.5321 224.183 11.7134 224.069C11.8947 223.954 11.8907 224.069 11.8907 223.78C11.8907 223.491 11.7725 223.574 12.0405 223.281C12.3085 222.989 12.0129 222.466 12.0129 222.466C12.1787 222.342 12.3167 222.184 12.4178 222.003C12.519 221.822 12.5811 221.621 12.6001 221.414C12.5725 220.805 14.6059 216.928 15.0237 216.782C15.4414 216.635 15.4729 215.876 15.4729 215.876C15.4729 215.876 16.0443 215.994 16.2217 215.876C16.5027 215.56 16.7534 215.218 16.9704 214.855C16.9704 214.855 19.2442 209.087 19.2758 206.903L19.4255 206.409C19.4255 206.409 20.2925 207.544 20.1703 208.359C20.0482 209.174 20.8363 209.759 20.8363 209.759V212.236C20.923 212.667 20.9704 213.106 20.9782 213.545C20.9506 213.941 21.3328 214.36 21.187 214.713C21.1083 215.028 21.1083 215.358 21.187 215.674C21.187 215.674 21.1555 216.489 21.187 216.722C21.2186 216.956 21.0688 219.634 21.8491 220.801C21.8491 220.801 22.1762 221.644 21.8491 222.197C21.522 222.751 22.1446 223.305 22.1446 223.305C22.1446 223.305 21.7506 223.946 22.1446 224.413C22.3692 224.707 22.4697 225.078 22.4244 225.445C22.2668 226.039 22.1525 226.814 22.4244 227.356L22.4954 228.191L24.7889 228.013V227.55C25.7771 227.794 26.8007 227.858 27.8115 227.74C28.2021 227.705 28.5814 227.589 28.9257 227.401C29.2701 227.212 29.5722 226.955 29.8134 226.644C29.8134 226.644 30.7355 225.042 28.2253 225.655Z" fill="url(#paint1_linear)"/>
<path d="M29.384 226.659C29.1523 226.966 28.8595 227.22 28.5243 227.407C28.1892 227.594 27.8189 227.708 27.4372 227.743C26.4603 227.861 25.4701 227.795 24.5171 227.549V228.016L22.3024 228.19L22.2354 227.359C21.9792 226.813 22.0975 226.022 22.2551 225.429C22.3266 225.148 22.4174 224.873 22.527 224.606C22.527 224.606 24.4343 222.98 25.0688 224.21C25.2067 224.462 25.3977 224.681 25.6284 224.851C26.2941 225.295 27.0513 225.582 27.8431 225.69C30.2785 225.065 29.384 226.659 29.384 226.659Z" fill="#FF6484"/>
<path opacity="0.1" d="M23.4961 225.068C23.4961 225.068 23.4961 226.575 24.5916 226.547C25.6872 226.52 25.8369 225.946 25.4901 225.558C25.2537 225.284 25.05 224.982 24.8832 224.66L23.4961 225.068Z" fill="black"/>
<path d="M14.0391 229.619C13.4432 229.865 12.8074 229.999 12.1633 230.015C11.9593 230.013 11.756 229.99 11.5564 229.948C10.4018 229.687 9.38897 228.496 9.38897 228.496L9.188 228.816L6.90234 227.772L7.16244 227.163V227.056C7.26884 226.225 7.95059 225.272 8.43136 224.706C8.70328 224.389 8.91608 224.184 8.91608 224.184L11.6746 224.579C11.6746 224.579 11.6746 224.935 11.6746 225.37C11.6649 225.643 11.6386 225.916 11.5958 226.185C11.4815 226.822 12.7505 228.33 12.7505 228.33C14.8785 228.535 14.0391 229.619 14.0391 229.619Z" fill="#FF6484"/>
<path d="M8.54878 222.878C8.50211 222.89 8.45292 222.89 8.40625 222.878C8.45337 222.869 8.50166 222.869 8.54878 222.878Z" fill="#444053"/>
<path opacity="0.1" d="M11.6416 224.603C11.6416 224.603 11.6416 224.959 11.6416 225.394L8.41406 224.876C8.41406 224.876 8.41406 224.813 8.44953 224.71C8.70174 224.389 8.91454 224.184 8.91454 224.184L11.6416 224.603Z" fill="black"/>
<path opacity="0.1" d="M25.6352 224.835C25.1465 225.971 22.2422 225.702 22.2422 225.702C22.2585 225.61 22.2651 225.518 22.2619 225.425C22.3334 225.145 22.4242 224.87 22.5338 224.602C22.5338 224.602 24.4411 222.976 25.0756 224.206C25.2149 224.454 25.4058 224.669 25.6352 224.835Z" fill="black"/>
<path d="M25.6824 224.515C25.3948 225.817 22.2421 225.528 22.2421 225.528C22.3039 225.141 22.2103 224.746 21.9821 224.428C21.588 223.961 21.9821 223.324 21.9821 223.324C21.9821 223.324 21.3752 222.774 21.6944 222.22C22.0136 221.667 21.6944 220.828 21.6944 220.828C20.9456 219.669 21.0875 216.998 21.056 216.769C21.0244 216.539 21.056 215.725 21.056 215.725C20.9795 215.41 20.9795 215.082 21.056 214.767C21.1978 214.419 20.8274 214.012 20.8589 213.608C20.855 213.174 20.8142 212.741 20.7368 212.314V209.85C20.5265 209.686 20.3587 209.474 20.2476 209.232C20.1364 208.989 20.0852 208.724 20.0984 208.457C20.2126 207.642 19.3733 206.515 19.3733 206.515L19.2314 207.005C19.1999 209.181 17.0049 214.917 17.0049 214.917C16.7957 215.276 16.5543 215.615 16.2837 215.93C16.1103 216.049 15.5625 215.93 15.5625 215.93C15.5625 215.93 15.531 216.686 15.129 216.828C14.7271 216.971 12.7646 220.832 12.7882 221.441C12.7727 221.651 12.713 221.856 12.6132 222.041C12.5133 222.227 12.3756 222.389 12.2089 222.517C12.2089 222.517 12.4966 223.039 12.2365 223.328C11.9764 223.617 12.0946 223.53 12.0946 223.823C12.0946 224.115 12.0946 223.997 11.9212 224.112C11.7479 224.226 11.9212 224.258 11.9212 224.46C11.929 224.563 11.8981 224.666 11.8346 224.748L11.807 225.235L8.42578 224.693C8.42578 224.693 8.65434 223.704 8.74104 223.241C8.79227 222.968 8.67405 222.897 8.56765 222.881C8.66223 222.846 8.76075 222.739 8.71346 222.43C8.62676 221.876 9.23364 221.299 9.23364 221.299C9.58342 218.63 10.6978 216.12 12.4414 214.075C12.4414 213.901 13.0168 213.406 13.0168 213.406C13.0168 213.406 13.0759 212.615 13.5685 212.536C14.0611 212.457 13.5685 211.812 13.5685 211.812C13.8173 211.243 14.01 210.65 14.1438 210.044C14.1754 209.581 14.3369 207.405 14.3369 207.405C14.4674 207.094 14.5044 206.751 14.4433 206.42C14.3094 206.024 14.4433 205.925 14.4433 205.925C14.4433 205.925 14.6089 205.055 14.4433 204.738C14.3479 204.52 14.3138 204.279 14.3448 204.042L14.4236 202.903L14.5458 201.202C14.5458 201.202 23.5308 199.663 24.512 200.909C24.6208 201.063 24.6996 201.236 24.7445 201.419C25.446 203.714 25.2056 211.31 25.2056 211.31L24.7721 213.513C24.9305 213.73 25.0035 213.997 24.977 214.265C24.9391 214.549 24.9688 214.837 25.0637 215.107C25.0637 215.107 25.0637 215.281 25.0322 215.744C25.007 215.958 25.0176 216.175 25.0637 216.385C25.0637 216.385 25.0913 220.385 25.1189 221.2C25.1012 221.602 25.2131 221.998 25.4381 222.331V223.316C25.5162 223.5 25.5551 223.698 25.5524 223.898C25.5471 224.111 25.5917 224.322 25.6824 224.515Z" fill="#444053"/>
<path opacity="0.1" d="M12.1633 230.006C11.9593 230.004 11.756 229.981 11.5564 229.939C10.4018 229.678 9.38897 228.487 9.38897 228.487L9.188 228.807L6.90234 227.763L7.16244 227.154V227.047L9.5269 228.234C9.5269 228.234 11.4185 229.155 12.1633 230.006Z" fill="black"/>
<path opacity="0.1" d="M27.4362 227.743C26.4593 227.861 25.469 227.795 24.5161 227.549V228.016L22.3014 228.19L22.2344 227.359C22.9358 227.359 24.0668 227.387 24.5555 227.359C25.5286 227.356 26.4977 227.485 27.4362 227.743Z" fill="black"/>
<path opacity="0.1" d="M9.67896 222.132C9.79366 222.124 9.90873 222.139 10.0179 222.175C10.1312 222.245 10.2392 222.323 10.341 222.409C10.417 222.45 10.4895 222.498 10.5578 222.551C10.6405 222.634 10.676 222.757 10.7587 222.84C10.9164 222.994 11.1528 222.962 11.3735 223.034C11.3971 223.034 11.4208 223.034 11.4247 223.077C11.4249 223.089 11.4217 223.1 11.4153 223.11C11.409 223.12 11.4 223.128 11.3893 223.133C11.338 223.161 11.2803 223.176 11.2218 223.176C11.1632 223.176 11.1056 223.161 11.0543 223.133C10.9532 223.074 10.8604 223.002 10.7784 222.919C10.618 222.776 10.434 222.662 10.2346 222.583C9.96269 222.472 9.4898 222.444 9.31641 222.187C9.43124 222.14 9.55545 222.121 9.67896 222.132Z" fill="black"/>
<path opacity="0.1" d="M9.44818 222.74C9.50843 222.757 9.56659 222.781 9.62157 222.811L9.91713 222.961C9.70745 222.975 9.49808 222.929 9.31419 222.827C9.24736 222.802 9.18276 222.771 9.12109 222.736C9.22947 222.717 9.34028 222.718 9.44818 222.74Z" fill="black"/>
<path opacity="0.1" d="M9.84066 223.25C9.90346 223.242 9.96702 223.242 10.0298 223.25C10.1432 223.292 10.2476 223.355 10.3372 223.436C10.5542 223.61 10.8241 223.703 11.1017 223.701C11.0498 223.724 10.9928 223.734 10.9362 223.729H10.3136C10.2456 223.739 10.1766 223.739 10.1086 223.729C10.0193 223.709 9.93314 223.677 9.85248 223.634C9.74608 223.586 9.30865 223.46 9.30471 223.313C9.30077 223.167 9.73426 223.25 9.84066 223.25Z" fill="black"/>
<path opacity="0.1" d="M23.9727 223.99C24.1628 224.006 24.3539 224.006 24.5441 223.99C24.7462 223.982 24.9424 223.919 25.1115 223.808C25.2771 223.681 25.2416 223.547 25.0327 223.539C24.835 223.547 24.6408 223.594 24.4613 223.678C24.3685 223.716 24.2789 223.763 24.1933 223.816C24.1539 223.856 24.0121 223.994 23.9727 223.99Z" fill="black"/>
<path opacity="0.1" d="M24.6804 224.309C24.6804 224.38 24.5898 224.419 24.5228 224.443C24.3601 224.507 24.1887 224.546 24.0144 224.558C23.9711 224.558 23.8489 224.558 23.8647 224.491C23.8804 224.423 24.0617 224.443 24.1051 224.435C24.2996 224.407 24.4918 224.364 24.6804 224.309Z" fill="black"/>
<path opacity="0.1" d="M14.9969 212.796C14.7075 212.593 14.3648 212.48 14.0117 212.471C14.3693 212.45 14.7216 212.566 14.9969 212.796Z" fill="black"/>
<path opacity="0.1" d="M14.7281 211.624C14.9881 211.626 15.2427 211.698 15.465 211.834L15.2207 211.762C15.0592 211.711 14.8928 211.676 14.7242 211.659C14.6296 211.659 14.5311 211.659 14.4365 211.659C14.3419 211.659 14.2158 211.632 14.1055 211.628C14.2986 211.628 14.5153 211.616 14.7281 211.624Z" fill="black"/>
<path opacity="0.1" d="M15.6145 212.183C15.6972 212.183 15.7958 212.234 15.8115 212.317C15.6052 212.218 15.3902 212.139 15.1692 212.08C15.047 212.04 14.6726 211.874 14.5859 211.989C14.8973 212.08 15.2559 212.112 15.6145 212.183Z" fill="black"/>
<path opacity="0.1" d="M16.4026 209.606C16.7811 209.477 17.1222 209.257 17.3957 208.965C17.3924 209.095 17.3573 209.222 17.2933 209.335C17.2294 209.448 17.1387 209.544 17.0292 209.614C16.8078 209.752 16.5614 209.845 16.3041 209.887C16.0477 209.932 15.7976 210.007 15.5593 210.112C15.445 210.167 15.0903 210.508 14.976 210.508C14.8617 210.508 15.0627 210.258 15.114 210.219C15.5115 209.953 15.9456 209.746 16.4026 209.606Z" fill="black"/>
<path opacity="0.1" d="M23.4978 213.369C23.3756 213.326 21.8821 213.614 21.9727 213.326C22.0318 213.148 22.5165 213.215 22.6348 213.219C22.9281 213.227 23.2188 213.278 23.4978 213.369Z" fill="black"/>
<path d="M21.8704 178.69C21.8704 178.934 21.8439 179.176 21.7916 179.414C21.6082 180.242 21.116 180.967 20.4163 181.442C19.7165 181.916 18.8623 182.103 18.0292 181.965C17.1961 181.827 16.4475 181.373 15.9371 180.698C15.4267 180.023 15.1934 179.177 15.2852 178.334C15.3769 177.491 15.7867 176.716 16.4303 176.167C17.074 175.618 17.9025 175.338 18.7457 175.384C19.5889 175.429 20.3826 175.797 20.9638 176.412C21.5449 177.027 21.8694 177.842 21.8704 178.69Z" fill="#FBBEBE"/>
<path d="M20.2805 180.049C20.2805 180.049 19.2126 183.182 19.8195 183.819C20.4264 184.456 15.457 184.836 15.457 184.836C15.457 184.836 17.5338 181.094 17.3328 180.164C17.1319 179.234 20.2805 180.049 20.2805 180.049Z" stroke="#6C63FF" stroke-miterlimit="10"/>
<path opacity="0.1" d="M24.731 201.412C24.735 201.484 24.735 201.557 24.731 201.629C24.6719 203.109 22.0434 206.096 21.4365 205.585C20.8296 205.075 16.7076 204.106 16.7076 204.106C16.7076 204.106 16.1007 203.148 15.4662 203.148C15.1043 203.118 14.75 203.027 14.418 202.879L14.5401 201.178C14.5401 201.178 23.5251 199.639 24.5064 200.885C24.6141 201.045 24.6904 201.223 24.731 201.412Z" fill="black"/>
<path d="M24.7318 201.368C24.7042 202.108 24.0303 203.227 23.2855 204.097C22.5407 204.968 21.7407 205.585 21.4373 205.34C21.2147 205.194 20.9734 205.08 20.72 204.999C19.3526 204.497 16.7004 203.86 16.7004 203.86C16.7004 203.86 16.0936 202.903 15.4591 202.903C14.8246 202.903 13.6069 202.266 13.6069 202.266C13.6069 202.266 13.7252 202.092 13.6069 201.455C13.4887 200.818 11.6365 201.803 11.6365 201.803C11.6365 201.803 11.5498 197.511 12.2119 195.422C12.874 193.333 12.5587 190.674 12.5587 190.674C12.5587 190.674 13.0355 188.047 13.5518 185.967C13.8631 184.72 14.1902 183.672 14.4384 183.51C15.1044 183.075 18.5684 183.51 18.5684 183.51C19.2364 183.519 19.9029 183.577 20.5624 183.684C20.7329 183.752 20.8786 183.871 20.9801 184.024L21.0826 184.17C21.5367 184.971 21.923 185.809 22.2372 186.675C22.7889 188.008 24.9564 193.634 24.9564 193.634C24.9564 193.634 24.8973 194.029 24.4047 195.722C23.9121 197.416 24.7909 199.888 24.7318 201.368Z" fill="#65617D"/>
<path d="M22.2478 203.078L23.2842 204.099C23.2842 204.099 24.2379 207.402 22.9965 207.109C21.7552 206.817 20.7188 205.001 20.7188 205.001L22.2478 203.078Z" fill="#FBBEBE"/>
<path opacity="0.1" d="M24.8777 193.885C22.4186 193.857 21.7842 190.404 21.7842 190.404C21.7842 190.404 21.6108 186.981 21.2916 186.345C21.1015 185.721 21.0046 185.074 21.0039 184.422C21.458 185.223 21.8443 186.06 22.1586 186.926C22.7103 188.259 24.8777 193.885 24.8777 193.885Z" fill="black"/>
<path d="M24.9636 193.623C22.5046 193.596 21.8701 190.142 21.8701 190.142C21.8701 190.142 21.6967 186.72 21.3775 186.083C21.1875 185.46 21.0905 184.812 21.0898 184.16C21.544 184.961 21.9302 185.799 22.2445 186.664C22.7962 187.998 24.9636 193.623 24.9636 193.623Z" fill="#65617D"/>
<path opacity="0.1" d="M20.5604 185.11C20.5604 185.11 19.8392 183.132 18.657 185.11C17.9109 186.483 17.4952 188.013 17.4432 189.576L17.2383 195.028C17.4278 195.379 17.5507 195.763 17.6008 196.159C17.6008 196.555 18.3102 197.742 18.3102 197.742C18.3102 197.742 18.4836 200.032 19.1456 200.412L19.784 202.295C19.784 202.295 19.8116 203.541 20.2451 204.036C20.3715 204.216 20.4556 204.422 20.4911 204.639C20.5266 204.856 20.5125 205.079 20.45 205.29L23.0194 204.388C23.0194 204.388 22.7278 204.495 23.0194 203.715C23.311 202.936 22.846 201.919 22.846 201.919C22.846 201.919 21.1988 198.323 20.9938 197.801C20.7889 197.279 20.5052 196.669 20.5998 196.06C20.6943 195.451 20.6234 188.983 20.7732 187.998C20.9229 187.013 20.5604 185.11 20.5604 185.11Z" fill="black"/>
<path d="M20.8299 184.836C20.8299 184.836 20.1087 182.858 18.9226 184.836C18.1787 186.21 17.7631 187.74 17.7088 189.303L17.5078 194.754C17.6961 195.106 17.819 195.489 17.8704 195.886C17.8704 196.281 18.5758 197.468 18.5758 197.468C18.5758 197.468 18.7492 199.759 19.4151 200.135L20.0496 202.022C20.0496 202.022 20.0811 203.268 20.5146 203.762C20.641 203.942 20.7251 204.148 20.7606 204.366C20.7961 204.583 20.782 204.805 20.7195 205.016L23.285 204.114C23.285 204.114 22.9973 204.221 23.285 203.438C23.5727 202.655 23.1037 201.634 23.1037 201.634C23.1037 201.634 21.4604 198.038 21.2555 197.516C21.0506 196.993 20.7668 196.384 20.8614 195.775C20.956 195.166 20.8851 188.697 21.0309 187.708C21.1767 186.719 20.8299 184.836 20.8299 184.836Z" fill="#FF6484"/>
<path opacity="0.1" d="M20.8814 201.891C20.991 201.905 21.0975 201.937 21.1967 201.986C21.2755 202.026 21.3425 202.089 21.4213 202.133C21.5112 202.184 21.6131 202.212 21.7169 202.212C21.6014 202.218 21.4856 202.218 21.3701 202.212C21.298 202.217 21.2257 202.207 21.1573 202.184C21.0924 202.153 21.0315 202.115 20.976 202.069C20.9053 202.017 20.8286 201.973 20.7474 201.939C20.6844 201.915 20.6174 201.907 20.5938 201.844C20.6908 201.852 20.787 201.868 20.8814 201.891Z" fill="black"/>
<path opacity="0.1" d="M21.8567 202.67C21.9671 202.67 22.0735 202.647 22.1838 202.639C22.3431 202.633 22.5027 202.641 22.6606 202.662C22.4287 202.781 22.1666 202.828 21.908 202.797C21.8344 202.777 21.7569 202.777 21.6833 202.797C21.6045 202.829 21.3681 203.098 21.3484 202.86C21.3287 202.623 21.7227 202.674 21.8567 202.67Z" fill="black"/>
<path opacity="0.1" d="M20.531 175.207L20.1094 174.898C20.1548 174.913 20.1984 174.933 20.2394 174.958C20.3281 175.006 20.4081 175.069 20.4759 175.144L20.6099 175.266L20.531 175.207Z" fill="black"/>
<path opacity="0.1" d="M20.9869 184.013C20.9103 184.186 20.7876 184.335 20.6323 184.444C20.5393 184.507 20.4326 184.548 20.3209 184.562C20.1643 184.578 20.0062 184.562 19.8559 184.515C19.6636 184.463 19.4742 184.401 19.2885 184.329C18.9245 184.176 18.5522 184.044 18.1732 183.933C17.8897 183.847 17.5891 183.833 17.2987 183.892C17.0084 183.951 16.7373 184.083 16.5102 184.274C16.1437 184.646 16.057 185.223 15.6945 185.595C15.2058 186.094 14.4098 186.062 13.7241 185.963L13.5625 185.939C13.8738 184.693 14.2009 183.645 14.4492 183.482C15.1152 183.047 18.5791 183.482 18.5791 183.482C19.2471 183.491 19.9136 183.55 20.5731 183.657C20.7443 183.73 20.8888 183.854 20.9869 184.013Z" fill="black"/>
<path opacity="0.1" d="M15.2852 178.687C15.2827 178.036 15.4721 177.398 15.8295 176.855C16.187 176.311 16.6966 175.886 17.2942 175.632C17.8918 175.378 18.5508 175.308 19.1883 175.429C19.8258 175.55 20.4134 175.858 20.8771 176.313C20.8771 176.887 20.7629 177.5 20.9244 178.034C21.1239 178.54 21.4182 179.002 21.7914 179.395C21.6117 180.186 21.1491 180.882 20.4916 181.353C19.834 181.823 19.0272 182.035 18.2244 181.947C17.4217 181.86 16.6788 181.48 16.137 180.879C15.5951 180.278 15.292 179.498 15.2852 178.687Z" fill="black"/>
<path d="M20.6085 175.093C19.9696 174.511 19.1644 174.146 18.307 174.049C17.4497 173.953 16.5838 174.13 15.8323 174.555C15.4867 174.745 15.192 175.017 14.9732 175.346C14.52 176.07 14.6343 177.008 14.3979 177.827C14.1614 178.646 13.6373 179.259 13.192 179.943C12.7467 180.628 12.3762 181.439 12.5457 182.238C12.6679 182.819 13.0659 183.342 13.058 183.935C13.0422 184.265 12.9028 184.578 12.6675 184.81C12.4323 185.041 12.1185 185.175 11.7891 185.185C12.3733 185.546 13.0357 185.761 13.72 185.81C14.4097 185.909 15.2057 185.941 15.6904 185.442C16.053 185.07 16.1397 184.493 16.5062 184.121C16.7333 183.93 17.0043 183.799 17.2947 183.739C17.5851 183.68 17.8857 183.694 18.1692 183.781C18.7445 183.915 19.2765 184.176 19.8519 184.346C20.0022 184.393 20.1603 184.409 20.3169 184.394C20.8095 184.327 21.1051 183.777 21.1366 183.278C21.1681 182.883 21.109 182.388 21.4006 182.091C21.5121 181.997 21.6322 181.914 21.7592 181.842C21.9847 181.687 22.1631 181.472 22.275 181.221C22.387 180.971 22.428 180.694 22.3937 180.422C22.2558 179.441 21.2115 178.839 20.9198 177.874C20.7583 177.32 20.8804 176.727 20.8726 176.153C20.8647 175.58 20.644 174.919 20.1041 174.725" fill="#444053"/>
<path opacity="0.1" d="M22.3429 180.42C22.2089 179.439 21.1607 178.838 20.8691 177.872C20.7075 177.318 20.8336 176.725 20.8218 176.151C20.8292 175.75 20.7076 175.358 20.475 175.032L20.5577 175.091C20.5144 175.048 20.4671 175.008 20.4198 174.968C20.3532 174.898 20.2777 174.837 20.1952 174.786L20.0454 174.684L20.1243 174.759L20.0415 174.699C20.2746 175.025 20.3963 175.418 20.3883 175.819C20.3883 176.393 20.274 177.006 20.4356 177.536C20.7154 178.489 21.7754 179.118 21.9094 180.088C21.9433 180.36 21.902 180.636 21.7902 180.887C21.6783 181.137 21.5001 181.352 21.275 181.508C21.1479 181.579 21.0278 181.663 20.9164 181.757C20.6247 182.05 20.6838 182.548 20.6523 182.944C20.6129 183.442 20.3292 183.992 19.8366 184.06C19.6787 184.074 19.5196 184.057 19.3676 184.012C18.7962 183.862 18.2603 183.581 17.6849 183.446C17.4015 183.359 17.1008 183.344 16.8102 183.404C16.5197 183.463 16.2487 183.595 16.0219 183.787C15.6594 184.155 15.5687 184.736 15.2062 185.108C14.7175 185.602 13.9215 185.575 13.2358 185.476C12.7844 185.425 12.3402 185.323 11.9117 185.171C11.854 185.177 11.7959 185.177 11.7383 185.171C12.323 185.531 12.9851 185.746 13.6693 185.796C14.3589 185.895 15.1549 185.927 15.6396 185.428C16.0022 185.057 16.0928 184.479 16.4554 184.107C16.6825 183.916 16.9535 183.785 17.2439 183.725C17.5343 183.666 17.8349 183.68 18.1184 183.767C18.6938 183.901 19.2297 184.162 19.8011 184.333C19.9527 184.38 20.1122 184.396 20.2701 184.38C20.7627 184.313 21.0582 183.763 21.0858 183.264C21.1173 182.869 21.0582 182.374 21.3498 182.078C21.4613 181.983 21.5814 181.9 21.7084 181.828C21.932 181.674 22.1092 181.461 22.221 181.213C22.3328 180.965 22.375 180.69 22.3429 180.42Z" fill="black"/>
<path opacity="0.1" d="M35.0225 227.669C35.653 229.778 27.1764 231.143 17.1944 230.755C8.2449 230.411 1.22637 228.757 0.71013 227.028C0.193889 225.299 6.29421 223.891 15.1373 223.863C25.0011 223.863 34.392 225.56 35.0225 227.669Z" fill="#6C63FF"/>
</g>
<defs>
<linearGradient id="paint0_linear" x1="307.57" y1="241.421" x2="307.57" y2="151.992" gradientUnits="userSpaceOnUse">
<stop stop-color="#808080" stop-opacity="0.25"/>
<stop offset="0.54" stop-color="#808080" stop-opacity="0.12"/>
<stop offset="1" stop-color="#808080" stop-opacity="0.1"/>
</linearGradient>
<linearGradient id="paint1_linear" x1="2414.76" y1="40859.7" x2="2414.76" y2="32868.3" gradientUnits="userSpaceOnUse">
<stop stop-color="#808080" stop-opacity="0.25"/>
<stop offset="0.54" stop-color="#808080" stop-opacity="0.12"/>
<stop offset="1" stop-color="#808080" stop-opacity="0.1"/>
</linearGradient>
<clipPath id="clip0">
<rect width="428" height="242" fill="white" transform="translate(0.230469 0.722656)"/>
</clipPath>
</defs>
</svg>
