<svg width="281" height="216" viewBox="0 0 281 216" fill="none" xmlns="http://www.w3.org/2000/svg">
<g clip-path="url(#clip0)">
<path opacity="0.1" d="M14.1898 10.0624C6.49505 14.991 0.778297 23.8547 0.0801861 33.5579C-0.930782 47.6762 8.14207 60.1927 17.8122 69.6237C27.4823 79.0548 38.6288 87.5643 44.2654 100.314C50.4502 114.333 48.3378 132.232 39.0942 144.086C35.1176 149.189 29.5793 154.354 30.3317 161.008C31.0349 167.215 37.4033 171.088 43.1278 170.798C48.8523 170.508 54.0364 167.225 59.0344 164.165C76.9525 153.191 96.479 143.791 117.024 143.614C139.051 143.427 159.855 153.792 179.818 163.947L208.518 178.55C214.486 181.587 220.606 184.67 227.163 185.325C233.72 185.979 240.378 184.118 246.201 180.753C252.432 177.159 258.094 171.271 259.369 163.703C261.057 153.646 254.715 144.086 253.856 133.903C253.014 123.828 257.618 114.168 262.978 105.923C268.338 97.6781 274.673 89.9618 278.146 80.5796C285.279 61.2965 278.332 38.1271 264.613 23.6956C250.893 9.26408 231.667 2.51553 212.696 0.559499C205.583 -0.174654 198.382 -0.297869 191.316 0.859833C177.245 3.1701 164.338 10.4295 150.981 15.7482C127.105 25.246 100.422 28.542 76.226 20.0479C56.7487 13.2198 34.3368 -2.83916 14.1898 10.0624Z" fill="#6C63FF"/>
<path opacity="0.1" d="M137.554 216C179.965 216 214.346 210.369 214.346 203.422C214.346 196.475 179.965 190.844 137.554 190.844C95.1428 190.844 60.7617 196.475 60.7617 203.422C60.7617 210.369 95.1428 216 137.554 216Z" fill="#6C63FF"/>
<path d="M189.78 113.006V9.87256H79.6025V144.248H189.78V131.267C189.78 131.267 189.814 116.846 189.814 116.83C189.886 113.134 189.886 116.728 189.78 113.006Z" fill="#A1A3B2"/>
<path d="M186.647 13.723H82.7832V140.398H186.647V13.723Z" fill="#F4F5F6"/>
<g opacity="0.6">
<path opacity="0.2" d="M181.87 50.4307V42.3319C181.87 42.1702 181.886 41.9905 181.886 41.7954C182.187 41.4525 182.363 41.0197 182.388 40.5658C182.388 40.2321 182.354 39.8317 182.62 39.6263C182.819 39.4723 183.104 39.5082 183.355 39.462C184.195 39.3054 184.503 38.2324 184.355 37.4084C184.208 36.5844 183.789 35.7681 183.864 34.921C183.947 34.0072 184.583 33.2551 185.123 32.5107C185.663 31.7662 186.157 30.8396 185.868 29.9642C185.669 29.3328 185.115 28.881 184.797 28.2983C184.386 27.5436 184.402 26.6349 184.5 25.7826C184.598 24.9304 184.759 24.0679 184.634 23.2157C184.51 22.3634 183.967 21.5138 183.132 21.2956C182.875 21.2676 182.627 21.1872 182.403 21.0594C182.23 20.8749 182.098 20.6562 182.015 20.4177C181.643 19.6887 180.81 19.3139 180.004 19.1342C178.333 18.7851 176.867 19.4936 175.233 19.4243C173.984 19.3704 171.551 18.1408 171.825 20.3099C171.885 20.8524 171.797 21.401 171.569 21.8979C171.342 22.3948 170.984 22.8217 170.533 23.1335C169.731 23.6675 168.542 23.9883 168.433 24.9304C168.343 25.7287 169.129 26.332 169.467 27.0661C170.003 28.2649 169.255 29.6331 168.433 30.6599C168.198 30.8999 168.019 31.1882 167.908 31.5044C167.735 32.1693 168.218 32.8136 168.699 33.3013C169.18 33.789 169.734 34.3281 169.734 35.0186C169.734 35.7091 169.175 36.2841 168.754 36.854C168.332 37.4238 168.068 38.3043 168.596 38.7766C168.95 39.0924 169.599 39.1694 169.666 39.6366C169.708 39.9164 169.493 40.15 169.32 40.3887C168.193 41.875 168.761 44.3187 170.429 45.1658C171.031 45.4399 171.679 45.6025 172.34 45.6458L172.19 50.7798C171.396 50.8491 170.923 50.9004 170.923 50.9004C170.923 50.9004 169.747 51.1032 167.841 51.3599V37.2827L167.065 34.3768L166.29 32.6929L165.514 31.1527L164.899 30.2338L163.973 31.0039L165.524 32.3797L167.076 35.1341V43.5486L165.69 37.7344V36.9643L164.456 36.0454L163.681 35.1264L164.456 37.2673L165.69 38.8074L165.84 40.4888H164.914L163.988 39.2644L164.451 41.2537H166.147L166.61 42.7939V46.1592L164.914 43.2534L162.453 42.7991L164.919 43.718L166.615 46.9216V51.5268C165.292 51.6936 163.735 51.8682 162.041 52.0196L162.07 51.5935C162.378 51.4395 161.915 50.6745 161.915 50.6745V49.7555C163.611 51.5909 164.997 50.215 164.997 50.215L162.996 48.5285H159.143L158.217 47.7584V46.9884L157.755 47.1424L157.599 47.6019L156.984 47.4478L156.829 46.9884H156.532L156.687 47.5993C156.842 48.2102 156.224 49.1395 156.224 49.1395C156.069 49.9096 157.302 49.7504 157.302 49.7504C157.346 49.9032 157.424 50.0442 157.531 50.1629C157.637 50.2815 157.77 50.3748 157.917 50.4358V52.2968C152.764 52.5535 147.174 52.438 143.355 51.1956C134.417 48.2898 126.867 50.4255 126.867 50.4255C126.867 50.4255 123.798 51.1058 119.369 51.6012L118.733 44.157C118.815 44.2004 118.907 44.2241 119 44.2263C119.093 44.2285 119.186 44.2092 119.271 44.1698C119.749 43.9131 119.529 43.2072 119.64 42.6836C119.816 41.8339 120.871 41.5207 121.422 40.8456C121.973 40.1705 121.983 39.136 122.578 38.484C122.871 38.2211 123.18 37.9743 123.501 37.7447C124.615 36.7693 124.455 34.7311 123.206 33.9353C122.993 33.8246 122.793 33.6903 122.611 33.5349C122.009 32.9214 122.461 31.8997 122.353 31.0501C122.252 30.3185 121.696 29.7127 121.044 29.3559C119.772 28.6807 118.148 28.4241 116.752 28.1674C116.838 28.4152 116.828 28.6856 116.725 28.9268C116.622 29.1679 116.433 29.3628 116.194 29.4739C115.962 29.5555 115.718 29.5955 115.472 29.592C115.13 29.5822 114.789 29.6498 114.477 29.7897C114.323 29.8636 114.198 29.986 114.121 30.1378C114.044 30.2896 114.02 30.4623 114.053 30.6291C114.13 30.7888 114.216 30.9439 114.311 31.0937C114.549 31.6276 114.11 32.2026 113.712 32.6339C113.313 33.0651 112.905 33.6761 113.194 34.1741C113.375 34.4872 113.771 34.6284 113.97 34.9313C114.337 35.4858 113.882 36.1943 113.481 36.7282C113.081 37.2621 112.747 38.081 113.251 38.5251C113.449 38.6573 113.666 38.7578 113.895 38.8228C115.509 39.4877 115.555 41.9879 117.096 42.8042C117.299 42.8919 117.495 42.994 117.683 43.1097C117.779 43.1784 117.866 43.2586 117.942 43.3484C117.967 45.1068 118.029 49.6683 117.98 51.7603C116.362 51.9144 114.598 52.0376 112.768 52.0889V48.4207C113.073 48.2641 113.339 47.9972 113.66 47.856C114.123 47.6532 114.653 47.7276 115.159 47.6917C115.666 47.6558 116.238 47.435 116.357 46.9396C116.378 46.7082 116.378 46.4753 116.357 46.2439C116.357 46.0103 116.488 45.7485 116.719 45.7074C116.642 45.4249 116.534 45.1519 116.395 44.8937C116.101 44.1544 116.282 43.2842 115.938 42.5655C115.689 42.1328 115.349 41.7582 114.942 41.4668L114.355 40.9791C113.626 40.3733 112.879 39.7598 111.995 39.4081C111.759 39.3157 111.516 39.2438 111.276 39.1719C111.11 39.2618 111.105 39.5056 111.16 39.6853C111.249 39.865 111.275 40.0692 111.235 40.2655C111.19 40.3448 111.128 40.4133 111.053 40.4661C110.978 40.5189 110.893 40.5547 110.803 40.5709C110.533 40.628 110.268 40.7026 110.009 40.7943C109.879 40.8414 109.764 40.9206 109.673 41.0243C109.583 41.1281 109.52 41.253 109.492 41.3872C109.17 41.329 108.838 41.3854 108.553 41.5464C108.295 41.7389 108.256 42.2241 108.553 42.3396C108.302 42.5629 108.132 42.8622 108.069 43.1912C108.006 43.5203 108.055 43.8606 108.207 44.1596C108.419 44.5497 108.807 44.8501 108.907 45.2813C108.998 45.6638 108.838 46.0848 108.98 46.4544C109.082 46.6328 109.174 46.8171 109.254 47.0063C109.295 47.168 109.254 47.3426 109.316 47.4992C109.376 47.6285 109.47 47.7393 109.589 47.8198C109.707 47.9003 109.845 47.9474 109.988 47.9561C110.273 47.9972 110.565 47.9561 110.844 48.028C111.24 48.1153 111.594 48.3822 111.974 48.49L111.715 52.1069C109.588 52.1412 107.46 52.0555 105.342 51.8502L105.161 43.4613L105.187 43.4434C105.245 43.3851 105.286 43.3124 105.306 43.2329C105.484 42.6245 105.019 41.8467 105.469 41.3975C105.688 41.1793 106.04 41.1562 106.278 40.9586C106.795 40.5401 106.485 39.6751 106.849 39.1283C107.036 38.8511 107.366 38.7073 107.625 38.4917C107.834 38.3001 108.003 38.0691 108.121 37.8122C108.239 37.5552 108.304 37.2775 108.313 36.9952C108.327 36.4304 108.245 35.8673 108.072 35.3292C107.951 34.8979 107.814 34.441 107.946 34.0123C108.093 33.5349 108.551 33.2012 108.721 32.7289C108.98 31.9588 108.39 31.1758 107.834 30.5726C106.973 29.6382 106.319 29.2891 105.081 29.1377C104.672 29.0838 104.305 28.9015 103.897 28.8553C103.121 28.7706 103.227 28.9965 102.981 29.5432C102.777 29.9976 101.981 29.7512 101.665 30.1362C101.594 30.2517 101.555 30.3837 101.552 30.5189C101.549 30.654 101.582 30.7877 101.647 30.9063C101.78 31.1395 101.879 31.3901 101.942 31.6507C101.988 32.0358 101.763 32.4003 101.683 32.7828C101.637 33.0816 101.685 33.3874 101.82 33.6582C101.956 33.9289 102.173 34.1513 102.441 34.2947C102.088 34.6515 101.866 35.115 101.808 35.6116C101.751 36.1083 101.863 36.6097 102.125 37.0362C102.345 37.2987 102.532 37.5866 102.681 37.8936C102.94 38.6637 102.296 39.6263 102.756 40.3117C102.842 40.44 102.963 40.5453 103.051 40.6711C103.398 41.1844 103.173 41.8647 103.31 42.4679C103.382 42.7329 103.526 42.9731 103.726 43.1626C103.926 43.3522 104.175 43.4839 104.445 43.5435L104.724 51.8014C104.035 51.7227 103.345 51.6269 102.656 51.5139C101.471 51.3188 100.313 51.1571 99.1882 51.0262V47.1963C99.4933 47.0397 99.7597 46.7727 100.08 46.6315C100.543 46.4288 101.073 46.5032 101.58 46.4673C102.087 46.4313 102.658 46.2106 102.777 45.7151C102.799 45.4838 102.799 45.2509 102.777 45.0195C102.777 44.7859 102.909 44.5241 103.139 44.483C103.063 44.2004 102.954 43.9274 102.816 43.6693C102.521 42.93 102.702 42.0598 102.358 41.341C102.116 40.9065 101.782 40.5284 101.381 40.2321L100.794 39.7444C100.065 39.1386 99.3175 38.5251 98.4332 38.1734C98.1979 38.081 97.9549 38.0091 97.7144 37.9372C97.549 38.0271 97.5438 38.2709 97.5981 38.4506C97.6876 38.6303 97.714 38.8345 97.6731 39.0308C97.6281 39.1101 97.5662 39.1786 97.4915 39.2314C97.4169 39.2842 97.3314 39.32 97.2413 39.3362C96.972 39.3933 96.7069 39.4679 96.4475 39.5596C96.3177 39.6067 96.2021 39.6859 96.1117 39.7896C96.0212 39.8934 95.9588 40.0182 95.9304 40.1525C95.6084 40.0943 95.2761 40.1507 94.9918 40.3117C94.7332 40.5042 94.6945 40.9894 94.9918 41.1049C94.7405 41.3282 94.5703 41.6275 94.5077 41.9565C94.445 42.2855 94.4934 42.6259 94.6453 42.9248C94.8574 43.315 95.2452 43.6154 95.346 44.0466C95.4365 44.4291 95.2762 44.8501 95.4184 45.2197C95.5208 45.3981 95.6123 45.5824 95.6925 45.7716C95.7339 45.9333 95.6925 46.1079 95.7546 46.2645C95.8146 46.3938 95.9088 46.5046 96.0271 46.5851C96.1455 46.6655 96.2836 46.7126 96.4268 46.7214C96.7112 46.7625 97.0034 46.7214 97.2826 46.7933C97.6782 46.8805 98.0325 47.1475 98.4126 47.2553L98.154 50.8927C96.6828 50.7413 95.2762 50.636 93.955 50.577V43.4793L93.6473 39.3491L96.2665 35.3703L93.6473 38.7356L93.7404 36.32L93.9989 36.3893C94.1903 36.4407 94.4359 36.4766 94.5523 36.3149C94.6686 36.1532 94.5652 35.8477 94.7436 35.7348C94.8163 35.6986 94.8986 35.686 94.9789 35.6988L95.827 35.745C96.1527 35.3112 95.3693 34.7953 95.4236 34.2562C95.4598 33.8994 95.8476 33.694 96.1993 33.5939C96.5509 33.4938 96.9439 33.4168 97.1456 33.119C97.4481 32.6775 97.1327 32.0486 97.3292 31.5532C97.4483 31.3354 97.5914 31.1313 97.7558 30.9448C97.8368 30.8498 97.8883 30.7335 97.9039 30.61C97.9195 30.4864 97.8986 30.3611 97.8437 30.2492C97.7332 30.1235 97.5901 30.0303 97.43 29.9796C97.0659 29.8093 96.7406 29.5672 96.4739 29.268C96.2072 28.9687 96.0046 28.6187 95.8787 28.2392C95.8208 28.1084 95.8152 27.9607 95.8632 27.8259C95.9562 27.6386 96.2019 27.5949 96.3803 27.5025C96.9827 27.1996 96.9956 26.3294 96.7216 25.7056C96.5803 25.3479 96.3333 25.041 96.0131 24.8252C95.8518 24.7201 95.6645 24.6609 95.4717 24.6541C95.2789 24.6473 95.0878 24.6932 94.9194 24.7867C94.7554 24.9123 94.6046 25.0542 94.4695 25.2102C94.2824 25.386 94.0612 25.5221 93.8194 25.6104C93.5776 25.6986 93.3202 25.7371 93.063 25.7236C92.6751 25.7031 92.2071 25.3873 92.3545 25.028C92.5019 24.6686 93.0552 24.7713 93.3887 24.5479C93.5019 24.4575 93.5925 24.3423 93.6535 24.2114C93.7145 24.0805 93.7442 23.9374 93.7404 23.7932C93.7895 22.9461 93.3422 22.099 93.5387 21.275C93.5926 21.1075 93.6324 20.9358 93.6576 20.7617C93.6861 20.3484 93.3991 19.9916 93.0888 19.7041C92.7507 19.4605 92.4547 19.164 92.2123 18.8262C91.9537 18.3538 91.9331 17.7711 91.3435 17.5735C90.824 17.4562 90.2802 17.5075 89.7922 17.7198C89.3475 17.938 89.2751 18.1639 89.394 18.6182C89.5284 19.1162 89.7327 19.6271 88.8769 19.4679C88.5614 19.4114 88.1658 19.3396 87.9848 19.6014C87.8426 19.8093 87.9435 20.0865 87.9693 20.3381C87.9952 20.5897 87.8064 20.9182 87.5712 20.8258C87.5582 21.157 88.1219 21.1595 88.2951 21.4445C88.3413 21.5512 88.3448 21.6713 88.3049 21.7805C88.2651 21.8897 88.1848 21.9797 88.0805 22.0323C87.8672 22.1298 87.6317 22.1696 87.3979 22.1478C87.2457 21.9712 87.1098 21.7814 86.992 21.5805C86.842 21.4008 86.5292 21.3033 86.3895 21.4907C86.3398 21.5754 86.3156 21.6725 86.3197 21.7705L86.2577 22.9949C86.2473 23.0927 86.2525 23.1914 86.2732 23.2875C86.3079 23.384 86.3521 23.4769 86.405 23.5648C86.5064 23.7762 86.5423 24.0127 86.5083 24.2443C86.4742 24.476 86.3717 24.6924 86.2137 24.8662L86.5602 25.0177C86.4257 25.3411 85.906 25.1178 85.5906 25.2744C85.332 25.3925 85.2829 25.7108 85.2674 25.9854C85.2371 26.4634 85.2763 26.9432 85.3837 27.4101C85.5001 27.8876 85.663 28.4985 85.257 28.7834C85.091 28.8728 84.9109 28.9335 84.7244 28.9631C84.6312 28.9787 84.5439 29.0185 84.4712 29.0785C84.3986 29.1384 84.3432 29.2164 84.3107 29.3045C84.2693 29.4868 84.5046 29.6921 84.6468 29.5612L84.5279 30.2748C84.6787 30.3319 84.8426 30.3461 85.0011 30.3159C85.0993 30.778 84.6055 31.1219 84.2073 31.3786C83.8091 31.6353 83.4032 32.1487 83.6902 32.5209C83.7936 32.6518 83.9668 32.7263 84.0366 32.8777C84.0754 33.0093 84.0885 33.1469 84.0754 33.2833C84.109 33.9353 84.8899 34.3614 84.9364 35.0135C85.5544 35.0828 85.9293 34.3948 86.3249 33.9174C86.3429 33.8891 86.3667 33.8648 86.3948 33.8463C86.4229 33.8277 86.4545 33.8152 86.4878 33.8095C86.5456 33.8166 86.5994 33.8428 86.6403 33.884L87.1368 34.2844C87.2242 33.958 87.2427 33.6172 87.1911 33.2833C87.4302 33.275 87.6697 33.2853 87.9073 33.3141L87.8013 34.7414V42.3909L88.0883 50.5102C86.3181 50.5454 84.5507 50.6688 82.793 50.8799V54.2452H186.656V51.0519C185.433 50.6796 183.722 50.5 181.87 50.4307ZM93.1845 39.8085L92.6518 36.0274L93.0655 36.1404L93.1845 39.8085ZM88.0986 42.4089V33.3603C88.3814 33.4063 88.6593 33.4785 88.9286 33.576C89.0882 33.6279 89.2384 33.705 89.3733 33.8044C89.4069 33.8301 89.4379 33.8583 89.4664 33.8866L89.4845 34.4513L89.1768 41.7954V50.5H88.5278L88.0986 42.4089ZM90.2576 50.5V34.3024C90.3827 34.3049 90.507 34.2812 90.6223 34.233C90.7377 34.1848 90.8415 34.1132 90.9272 34.0226C91.0051 34.3766 91.1998 34.6947 91.4806 34.9262C91.3862 35.0205 91.3181 35.1374 91.2827 35.2656C91.2474 35.3938 91.2461 35.5289 91.2789 35.6578L92.2123 35.9145L92.8742 40.2783L93.1845 43.6333L92.7579 50.5436C91.8917 50.5128 91.0436 50.5 90.2576 50.5ZM161.607 51.4343L161.555 52.0555L161.814 52.0324L161.395 52.0684L161.222 51.1212L161.607 51.4343ZM160.529 50.6642L160.837 51.2752V52.1095C160.138 52.1659 159.422 52.2147 158.696 52.2583L158.988 50.6642H160.529ZM158.316 50.5179C158.385 50.5243 158.455 50.5243 158.525 50.5179L158.378 52.284L158.119 52.2994L158.316 50.5179ZM178.403 41.5336C178.644 41.6917 178.875 41.8631 179.096 42.0469V50.3896C178.62 50.3896 178.147 50.4076 177.682 50.423L177.353 41.4848L177.369 41.4719C177.53 41.3849 177.713 41.3451 177.896 41.3574C178.079 41.3697 178.255 41.4334 178.403 41.5413V41.5336ZM176.867 42.8324C176.978 42.5321 176.989 42.1702 177.092 41.875V50.4538L176.167 50.4948V43.5358C176.325 43.4733 176.469 43.3794 176.589 43.2597C176.71 43.1401 176.804 42.9973 176.867 42.8401V42.8324ZM173.702 43.8259C173.829 43.4511 174.085 43.1328 174.452 43.1944C174.652 43.2596 174.838 43.3615 175 43.4947C175.123 43.568 175.258 43.6177 175.399 43.641V50.5513C174.791 50.5872 174.22 50.6257 173.702 50.6642V43.8259ZM179.867 50.4076V42.45C180.08 42.5016 180.299 42.5197 180.518 42.5039C180.497 42.699 180.485 42.8093 180.485 42.8093L180.903 50.423C180.56 50.3999 180.213 50.3973 179.867 50.3999V50.4076Z" fill="#6C63FF"/>
<path opacity="0.2" d="M111.227 39.1591L111.276 39.1747L111.227 39.1591Z" fill="#6C63FF"/>
<path opacity="0.2" d="M112.576 39.3747L111.322 39.1745C111.721 39.3309 112.149 39.3992 112.576 39.3747Z" fill="#6C63FF"/>
<path opacity="0.2" d="M97.665 37.9218L97.7148 37.9374L97.665 37.9218Z" fill="#6C63FF"/>
<path opacity="0.2" d="M99.0148 38.1503L97.7607 37.9501C98.1591 38.1065 98.5871 38.1748 99.0148 38.1503Z" fill="#6C63FF"/>
</g>
<g opacity="0.6">
<path opacity="0.2" d="M174.406 115.958L174.456 115.973L174.406 115.958Z" fill="#6C63FF"/>
<path opacity="0.2" d="M175.758 116.176L174.504 115.976C174.902 116.132 175.33 116.2 175.758 116.176Z" fill="#6C63FF"/>
<path opacity="0.2" d="M160.848 114.736L160.897 114.751L160.848 114.736Z" fill="#6C63FF"/>
<path opacity="0.2" d="M162.197 114.951L160.943 114.751C161.342 114.908 161.77 114.976 162.197 114.951Z" fill="#6C63FF"/>
<path opacity="0.2" d="M182.447 120.976C182.926 120.719 182.706 120.013 182.817 119.49C182.993 118.64 184.048 118.327 184.599 117.652C185.149 116.977 185.16 115.942 185.754 115.29C186.048 115.027 186.356 114.78 186.677 114.551C187.792 113.575 187.631 111.537 186.383 110.742C186.17 110.631 185.97 110.496 185.788 110.341C185.185 109.728 185.638 108.706 185.529 107.856C185.429 107.125 184.873 106.519 184.221 106.162C182.962 105.472 181.338 105.23 179.944 104.971C180.03 105.219 180.02 105.489 179.917 105.73C179.814 105.972 179.625 106.166 179.386 106.278C179.154 106.359 178.91 106.399 178.665 106.396C178.322 106.386 177.982 106.453 177.669 106.593C177.515 106.667 177.39 106.79 177.313 106.941C177.237 107.093 177.213 107.266 177.245 107.433C177.322 107.592 177.408 107.748 177.504 107.897C177.742 108.431 177.302 109.006 176.904 109.438C176.506 109.869 176.097 110.48 176.387 110.978C176.568 111.291 176.963 111.432 177.162 111.735C177.53 112.289 177.074 112.998 176.674 113.532C176.273 114.066 175.939 114.885 176.444 115.329C176.641 115.461 176.858 115.561 177.087 115.626C178.701 116.291 178.747 118.792 180.288 119.608C180.491 119.696 180.687 119.798 180.875 119.913C180.971 119.982 181.058 120.062 181.134 120.152C181.157 121.762 181.211 125.722 181.183 127.986L177.116 127.855L176.19 127.814V125.081C176.397 124.919 176.619 124.776 176.852 124.654C177.315 124.452 177.845 124.526 178.352 124.49C178.859 124.454 179.43 124.233 179.549 123.738C179.571 123.507 179.571 123.274 179.549 123.042C179.549 122.809 179.681 122.547 179.911 122.506C179.835 122.223 179.726 121.95 179.588 121.692C179.293 120.953 179.474 120.083 179.13 119.364C178.877 118.931 178.533 118.557 178.122 118.268L177.535 117.78C176.806 117.174 176.058 116.561 175.174 116.209C174.939 116.117 174.696 116.045 174.455 115.973C174.29 116.063 174.285 116.307 174.339 116.486C174.428 116.666 174.455 116.87 174.414 117.067C174.369 117.146 174.307 117.214 174.232 117.267C174.158 117.32 174.072 117.356 173.982 117.372C173.713 117.429 173.448 117.504 173.188 117.595C173.059 117.642 172.943 117.722 172.852 117.825C172.762 117.929 172.7 118.054 172.671 118.188C172.349 118.13 172.017 118.186 171.733 118.347C171.474 118.54 171.435 119.025 171.733 119.141C171.481 119.364 171.311 119.663 171.248 119.992C171.186 120.321 171.234 120.662 171.386 120.961C171.598 121.351 171.986 121.651 172.087 122.082C172.177 122.465 172.017 122.886 172.159 123.255C172.262 123.434 172.353 123.618 172.433 123.807C172.475 123.969 172.433 124.144 172.495 124.3C172.555 124.43 172.65 124.54 172.768 124.621C172.886 124.701 173.024 124.748 173.168 124.757C173.452 124.798 173.744 124.757 174.023 124.829C174.484 124.929 174.892 125.276 175.342 125.342L175.174 127.766L168.498 127.468L168.343 120.28L168.369 120.262C168.427 120.204 168.468 120.131 168.488 120.052C168.666 119.444 168.201 118.666 168.651 118.217C168.87 117.998 169.222 117.975 169.46 117.778C169.977 117.359 169.667 116.494 170.031 115.947C170.217 115.67 170.548 115.526 170.807 115.311C171.016 115.119 171.185 114.888 171.303 114.631C171.421 114.374 171.486 114.096 171.495 113.814C171.509 113.249 171.427 112.686 171.254 112.148C171.133 111.717 170.996 111.26 171.128 110.831C171.275 110.354 171.733 110.02 171.903 109.548C172.162 108.778 171.572 107.995 171.016 107.392C170.155 106.457 169.501 106.108 168.263 105.957C167.854 105.903 167.487 105.721 167.079 105.674C166.303 105.59 166.409 105.816 166.163 106.362C165.959 106.817 165.163 106.57 164.847 106.955C164.776 107.071 164.737 107.203 164.734 107.338C164.731 107.473 164.764 107.607 164.829 107.725C164.962 107.959 165.061 108.209 165.124 108.47C165.17 108.855 164.945 109.219 164.865 109.602C164.819 109.901 164.867 110.206 165.002 110.477C165.138 110.748 165.355 110.97 165.623 111.114C165.274 111.472 165.056 111.935 165.002 112.43C164.947 112.925 165.06 113.423 165.323 113.848C165.542 114.11 165.729 114.398 165.879 114.705C166.137 115.475 165.494 116.438 165.954 117.123C166.039 117.251 166.161 117.357 166.249 117.482C166.595 117.996 166.37 118.676 166.507 119.279C166.58 119.544 166.724 119.784 166.924 119.974C167.124 120.164 167.372 120.295 167.642 120.355L167.883 127.458L162.15 127.201V124.087C162.561 123.977 162.874 123.607 163.275 123.43C163.738 123.227 164.268 123.302 164.775 123.266C165.282 123.23 165.853 123.009 165.972 122.514C165.994 122.282 165.994 122.049 165.972 121.818C165.972 121.584 166.104 121.323 166.334 121.281C166.258 120.999 166.149 120.726 166.011 120.468C165.716 119.728 165.897 118.858 165.553 118.14C165.304 117.707 164.965 117.332 164.558 117.041L163.971 116.553C163.242 115.947 162.494 115.334 161.61 114.982C161.375 114.89 161.132 114.818 160.891 114.746C160.726 114.836 160.721 115.08 160.775 115.259C160.864 115.439 160.891 115.643 160.85 115.84C160.805 115.919 160.743 115.987 160.668 116.04C160.594 116.093 160.508 116.129 160.418 116.145C160.149 116.202 159.884 116.277 159.624 116.368C159.494 116.415 159.379 116.495 159.288 116.598C159.198 116.702 159.136 116.827 159.107 116.961C158.785 116.903 158.453 116.959 158.169 117.12C157.91 117.313 157.871 117.798 158.169 117.914C157.917 118.137 157.747 118.436 157.684 118.765C157.622 119.094 157.67 119.435 157.822 119.734C158.034 120.124 158.422 120.424 158.523 120.855C158.613 121.238 158.453 121.659 158.595 122.028C158.698 122.207 158.789 122.391 158.869 122.58C158.911 122.742 158.869 122.917 158.931 123.073C158.991 123.203 159.086 123.313 159.204 123.394C159.322 123.474 159.46 123.521 159.604 123.53C159.888 123.571 160.18 123.53 160.459 123.602C160.749 123.689 161.029 123.806 161.295 123.951L161.067 127.129L157.129 126.954V120.28L156.821 116.15L159.441 112.171L156.821 115.537L156.915 113.121L157.173 113.19C157.364 113.242 157.61 113.278 157.726 113.116C157.843 112.954 157.739 112.649 157.918 112.536C157.99 112.5 158.073 112.487 158.153 112.5L159.001 112.546C159.327 112.112 158.543 111.596 158.598 111.057C158.634 110.7 159.022 110.495 159.373 110.395C159.725 110.295 160.118 110.218 160.32 109.92C160.622 109.479 160.307 108.85 160.503 108.354C160.622 108.136 160.764 107.931 160.927 107.743C161.008 107.648 161.06 107.532 161.076 107.408C161.091 107.285 161.07 107.16 161.015 107.048C160.905 106.922 160.762 106.829 160.602 106.778C160.238 106.608 159.912 106.366 159.645 106.066C159.379 105.767 159.176 105.417 159.05 105.038C158.992 104.907 158.987 104.759 159.035 104.624C159.128 104.437 159.373 104.393 159.552 104.301C160.154 103.998 160.167 103.128 159.893 102.504C159.752 102.146 159.505 101.839 159.185 101.624C159.023 101.519 158.836 101.459 158.643 101.453C158.45 101.446 158.259 101.492 158.091 101.585C157.927 101.711 157.776 101.853 157.641 102.009C157.454 102.184 157.233 102.321 156.991 102.409C156.749 102.497 156.492 102.536 156.235 102.522C155.847 102.502 155.379 102.186 155.526 101.826C155.673 101.467 156.227 101.57 156.56 101.346C156.673 101.256 156.764 101.141 156.825 101.01C156.886 100.879 156.916 100.736 156.912 100.592C156.961 99.7446 156.514 98.8975 156.71 98.0735C156.764 97.906 156.804 97.7343 156.829 97.5601C156.858 97.1469 156.571 96.7901 156.26 96.5026C155.922 96.259 155.626 95.9625 155.384 95.6247C155.125 95.1523 155.105 94.5696 154.515 94.372C153.996 94.2547 153.452 94.306 152.964 94.5183C152.519 94.7365 152.447 94.9624 152.566 95.4167C152.7 95.9147 152.904 96.4256 152.048 96.2664C151.733 96.2099 151.337 96.1381 151.156 96.3999C151.014 96.6078 151.115 96.885 151.141 97.1366C151.167 97.3882 150.978 97.7167 150.743 97.6243C150.73 97.9555 151.293 97.958 151.467 98.243C151.513 98.3497 151.516 98.4698 151.477 98.579C151.437 98.6882 151.356 98.7782 151.252 98.8308C151.039 98.9283 150.803 98.9681 150.57 98.9463C150.417 98.7697 150.281 98.5798 150.164 98.379C150.014 98.1993 149.701 98.1018 149.561 98.2892C149.511 98.3739 149.487 98.471 149.491 98.569L149.429 99.7934C149.419 99.8912 149.424 99.9899 149.445 100.086C149.479 100.183 149.524 100.275 149.577 100.363C149.678 100.575 149.714 100.811 149.68 101.043C149.646 101.274 149.543 101.491 149.385 101.665L149.732 101.816C149.597 102.14 149.078 101.916 148.762 102.073C148.504 102.191 148.454 102.509 148.439 102.784C148.409 103.262 148.448 103.742 148.555 104.209C148.672 104.686 148.835 105.297 148.429 105.582C148.263 105.671 148.082 105.732 147.896 105.762C147.803 105.777 147.715 105.817 147.643 105.877C147.57 105.937 147.515 106.015 147.482 106.103C147.441 106.285 147.676 106.491 147.818 106.36L147.699 107.073C147.85 107.13 148.014 107.145 148.173 107.114C148.271 107.576 147.777 107.92 147.379 108.177C146.981 108.434 146.575 108.947 146.862 109.319C146.965 109.45 147.138 109.525 147.208 109.676C147.247 109.808 147.26 109.945 147.247 110.082C147.281 110.734 148.061 111.16 148.108 111.812C148.726 111.881 149.101 111.193 149.496 110.716C149.514 110.688 149.538 110.663 149.566 110.645C149.594 110.626 149.626 110.614 149.659 110.608C149.717 110.615 149.771 110.641 149.812 110.682L150.308 111.083C150.396 110.757 150.414 110.416 150.363 110.082C150.602 110.073 150.841 110.084 151.079 110.113L150.973 111.54V119.189L151.252 127.116C147.374 127.83 138.226 129.257 133.329 127.832C130.527 127.041 127.64 126.581 124.729 126.462L122.661 109.692C123.126 109.489 123.499 109.123 123.71 108.665C123.878 108.341 124.039 107.959 124.388 107.841C124.648 107.79 124.918 107.817 125.163 107.918C126.22 108.258 127.361 108.232 128.401 107.846C130.34 107.032 131.19 104.817 131.839 102.83C132.057 102.165 132.217 101.305 131.658 100.884C131.348 100.651 130.883 100.628 130.642 100.332C130.492 100.088 130.41 99.8078 130.404 99.5213C130.284 98.8509 129.944 98.2389 129.436 97.781C128.929 97.3231 128.283 97.045 127.599 96.9903C126.95 95.3603 125.406 94.2077 123.747 93.6122C122.092 93.0156 120.333 92.7589 118.575 92.8575C118.397 94.7519 115.134 97.0468 118.637 97.8939C118.219 97.9318 117.823 98.1018 117.509 98.3789C117.194 98.656 116.977 99.0257 116.89 99.434C116.827 99.8592 116.91 100.293 117.125 100.666C117.341 101.038 117.677 101.328 118.079 101.488L116.835 104.535C116.689 104.83 116.601 105.151 116.577 105.479C116.577 106.113 117.034 106.642 117.466 107.109C118.332 108.044 119.235 109.001 120.401 109.52L122.156 126.462C121.704 126.477 121.453 126.498 121.453 126.498C121.453 126.498 120.936 126.626 120.023 126.826L119.656 124.169C120.393 123.063 120.083 121.461 119.139 120.501C118.883 120.208 118.538 120.006 118.156 119.924C117.324 119.795 116.641 120.532 116.129 121.207L116.202 121.166C116.016 121.398 115.912 121.685 115.907 121.982C115.907 122.526 116.166 123.035 116.424 123.522C116.508 123.738 116.663 123.919 116.864 124.036C117.259 124.21 117.815 123.879 118.12 124.187C118.131 124.2 118.142 124.214 118.151 124.228L118.612 127.152C117.523 127.381 116.181 127.648 114.692 127.922L113.458 119.754L113.567 119.8C114.133 120.042 114.86 120.111 115.317 119.708C115.516 119.491 115.689 119.252 115.835 118.997C116.316 118.329 117.127 117.97 117.707 117.398C118.286 116.825 118.622 115.775 118.006 115.226C117.876 115.138 117.759 115.029 117.663 114.905C117.596 114.756 117.571 114.592 117.59 114.43C117.596 113.822 117.509 113.216 117.332 112.633C117.23 112.2 117.005 111.805 116.683 111.496C116.519 111.346 116.312 111.25 116.091 111.222C115.87 111.194 115.646 111.235 115.449 111.34C115.54 111.281 113.994 109.327 113.484 109.366C113.091 109.396 112.297 110.539 111.765 110.849C111.17 111.196 108.225 111.794 109.916 112.731C109.521 113.427 108.251 114.189 108.528 115.126C108.626 115.462 108.923 115.703 109.076 116.019C109.399 116.687 109.011 117.454 108.817 118.165C108.623 118.876 108.802 119.895 109.544 119.962C109.099 119.985 108.864 120.565 109.027 120.973C109.19 121.382 109.621 121.623 110.033 121.787C110.46 121.913 110.864 122.108 111.227 122.365L111.744 121.515L112.828 128.223C110.389 128.613 107.703 128.959 105.148 129.113C105.536 127.732 104.631 119.598 103.765 112.79C104.965 113.183 105.409 110.849 106.674 110.672C107.124 110.608 107.561 110.852 108.013 110.883C109.047 110.955 109.841 109.925 109.973 108.916C110.105 107.908 109.771 106.904 109.593 105.903C109.415 104.902 109.422 103.762 110.11 103.002C111.289 103.197 112.233 101.814 112.07 100.638C111.907 99.4623 111.036 98.5176 110.219 97.6577L107.077 94.2924C107.336 94.5491 103.894 95.7915 103.61 95.8454C102.329 96.0697 101.021 96.0957 99.7315 95.9224C98.8964 95.8172 98.1103 95.3474 97.3424 95.907C96.5073 96.5128 96.4478 97.8271 97.5131 98.1814C97.3605 99.1157 96.3987 99.6548 96.2435 100.592C96.0082 102.032 98.131 103.308 97.4743 104.612C96.3364 104.933 95.3369 105.618 94.6301 106.56L92.4427 106.96C92.2554 106.974 92.0759 107.041 91.9256 107.153C91.5636 107.481 91.8661 108.074 92.2022 108.436C93.7346 110.054 95.7644 111.121 97.9733 111.471C98.4163 111.502 98.8494 111.615 99.2506 111.804C99.4652 111.93 99.6565 112.11 99.8634 112.241V128.926L101.518 129.142L100.51 112.405C101.185 112.33 101.803 111.571 102.475 111.758C102.634 111.809 102.779 111.897 102.896 112.015C102.896 119.698 102.485 129.165 102.485 129.165C101.735 129.165 101.014 129.139 100.326 129.088C97.8466 128.898 95.2196 128.831 92.7762 128.816L93.0529 126.536C93.1244 125.948 93.0752 125.352 92.9081 124.783L92.391 123.042H92.8461C93.6217 123.961 93.539 128.78 93.539 128.78H94.0018V123.877L94.157 121.582C94.157 121.582 95.3903 118.981 95.8531 120.971C96.3159 122.96 97.5493 122.041 97.5493 122.041C98.0121 120.817 97.0864 119.136 97.0864 119.136C97.1696 118.607 97.1792 118.07 97.1149 117.539C97.5906 117.567 99.5117 117.539 99.7832 115.542C99.7832 115.542 98.0871 117.226 97.6268 116.918C97.6268 116.918 98.8602 115.847 98.705 115.542C98.5499 115.236 96.8563 116.001 96.8563 116.001V116.461L95.623 116.155C95.623 116.155 93.0038 114.779 92.3858 114.615C92.3858 114.615 93.9372 116.45 95.3127 116.604L95.5247 117.118C95.1355 116.931 94.7295 116.781 94.3121 116.669C93.6967 116.515 94.7749 117.439 94.7749 117.439H94.3121C94.3121 117.439 93.1098 116.838 91.1163 117.754C89.1228 118.671 89.4201 117.754 87.7266 117.754C86.033 117.754 85.5702 119.438 85.5702 119.438C85.1694 121.045 86.7208 123.658 86.7208 123.658L86.6432 128.864L87.4913 128.708L87.3361 123.199H87.799L88.7246 125.34L88.3781 128.864C85.0893 128.941 82.7881 129.09 82.7881 129.09V131.08H186.652V128.158L182.515 128.025L181.912 120.961C181.994 121.004 182.085 121.028 182.178 121.031C182.271 121.033 182.363 121.015 182.447 120.976ZM89.1797 127.316L89.2314 127.037C89.4943 125.646 89.1992 124.209 88.4092 123.032H91.8299L92.4091 125.481L92.029 128.805C91.1577 128.805 90.3148 128.805 89.5184 128.828L89.1797 127.316ZM156.366 116.607L155.834 112.826L156.247 112.939L156.366 116.607ZM154.109 110.824C154.187 111.178 154.382 111.496 154.663 111.727C154.568 111.822 154.5 111.938 154.465 112.067C154.429 112.195 154.428 112.33 154.461 112.459L155.394 112.716L156.056 117.079L156.364 120.445L155.963 126.924L153.434 126.811V111.101C153.56 111.104 153.685 111.082 153.802 111.034C153.918 110.986 154.023 110.914 154.109 110.824ZM151.281 119.21V110.161C151.563 110.207 151.841 110.28 152.111 110.377C152.27 110.429 152.42 110.506 152.555 110.605C152.589 110.631 152.62 110.659 152.648 110.688L152.666 111.252L152.359 118.596V126.924L151.697 127.052L151.281 119.21Z" fill="#6C63FF"/>
</g>
<path opacity="0.2" d="M96.7088 62.0333C97.8438 62.1155 99.0125 62.2156 100.455 62.213C101.748 62.213 102.821 62.1257 104.005 62.0795C106.428 61.9845 109.226 62.0487 111.834 62.0128C113.515 61.9897 115.18 61.9255 116.853 61.9512C117.999 61.9691 119.012 62.0282 120.108 62.0641C121.204 62.1096 122.301 62.0984 123.395 62.0308L124.644 62.5878C124.843 62.6752 125.057 62.7257 125.274 62.7367C125.795 62.7837 126.319 62.7931 126.841 62.7649C127.053 62.9651 125.316 63.1628 123.152 63.1885C121.696 63.2064 120.214 63.1525 118.756 63.1756C117.094 63.2013 115.806 63.3194 114.278 63.3861C112.889 63.4452 111.279 63.4605 109.787 63.4272C108.08 63.3887 106.606 63.2937 104.99 63.2295C101.086 63.0781 96.4579 63.1268 92.7166 62.9446C92.4115 62.9292 92.0986 62.9112 91.9409 62.883C91.6487 62.8342 91.9151 62.7726 91.9771 62.7187C92.0935 62.6135 91.46 62.5159 91.0515 62.4158C90.6429 62.3157 90.5162 62.1873 91.3979 62.1206C93.3501 61.9691 94.1671 61.8511 96.7088 62.0333Z" fill="#6C63FF"/>
<path opacity="0.2" d="M146.79 85.1334C147.925 85.2156 149.094 85.3157 150.536 85.3131C151.829 85.3131 152.902 85.2258 154.086 85.1796C156.509 85.0847 159.307 85.1488 161.916 85.1129C163.596 85.0898 165.261 85.0256 166.934 85.0513C168.08 85.0693 169.093 85.1283 170.189 85.1642C171.285 85.2097 172.382 85.1985 173.476 85.1309L174.725 85.6879C174.924 85.7753 175.138 85.8258 175.355 85.8368C175.876 85.8838 176.4 85.8932 176.922 85.865C177.134 86.0652 175.397 86.2629 173.233 86.2886C171.777 86.3065 170.295 86.2526 168.837 86.2757C167.175 86.3014 165.887 86.4195 164.359 86.4862C162.97 86.5453 161.36 86.5607 159.868 86.5273C158.161 86.4888 156.687 86.3938 155.071 86.3296C151.167 86.1782 146.539 86.227 142.798 86.0447C142.493 86.0293 142.18 86.0113 142.022 85.9831C141.73 85.9343 141.996 85.8727 142.058 85.8188C142.175 85.7136 141.541 85.616 141.133 85.5159C140.724 85.4158 140.597 85.2875 141.479 85.2207C143.431 85.0693 144.251 84.9538 146.79 85.1334Z" fill="#6C63FF"/>
<path opacity="0.2" d="M160.762 65.9531C161.349 66.069 161.945 66.1335 162.544 66.1456C163.156 66.1456 163.668 66.0532 164.232 66.0044C165.383 65.9017 166.714 65.971 167.953 65.9325C168.752 65.9094 169.543 65.8401 170.337 65.8683C170.882 65.8889 171.371 65.9505 171.888 65.989C172.405 66.0365 172.925 66.0245 173.439 65.9531L174.034 66.546C174.114 66.63 174.219 66.6859 174.334 66.7052C174.579 66.7555 174.83 66.7659 175.078 66.736C175.179 66.949 174.355 67.1621 173.325 67.1878C172.633 67.2057 171.929 67.1493 171.241 67.1749C170.45 67.2032 169.84 67.329 169.114 67.4008C168.404 67.4654 167.692 67.48 166.98 67.4445C166.169 67.4034 165.47 67.3007 164.7 67.234C162.843 67.0723 160.643 67.1262 158.867 66.9285C158.741 66.9198 158.616 66.8983 158.495 66.8643C158.357 66.8104 158.495 66.7462 158.51 66.6872C158.564 66.5743 158.264 66.469 158.07 66.3638C157.877 66.2585 157.812 66.1199 158.236 66.048C159.167 65.8838 159.555 65.758 160.762 65.9531Z" fill="#6C63FF"/>
<path opacity="0.2" d="M114.687 81.396C115.227 81.396 115.783 81.4242 116.468 81.4242C117.081 81.4242 117.593 81.4114 118.157 81.4037C119.307 81.3883 120.639 81.4037 121.877 81.4037C122.676 81.4037 123.468 81.3908 124.261 81.4037C124.807 81.4037 125.296 81.4037 125.813 81.4216C126.33 81.4396 126.979 81.4216 127.364 81.4216L127.959 81.5064C128.058 81.5202 128.158 81.528 128.259 81.5295C128.44 81.5295 128.776 81.5295 129.003 81.5295C129.104 81.5603 128.279 81.5911 127.25 81.5936C126.557 81.5936 125.854 81.5936 125.166 81.5936C124.375 81.5936 123.765 81.6167 123.038 81.627C122.379 81.627 121.614 81.627 120.905 81.627C120.093 81.627 119.395 81.6065 118.625 81.5962C116.768 81.5731 114.568 81.5808 112.792 81.5526H112.419C112.282 81.5526 112.419 81.5346 112.435 81.5269C112.291 81.4951 112.143 81.4796 111.995 81.4807C111.799 81.4653 111.737 81.4447 112.161 81.4345C113.094 81.3883 113.479 81.3703 114.687 81.396Z" fill="#6C63FF"/>
<path opacity="0.2" d="M137.53 60.4367C137.812 60.4367 138.104 60.4649 138.463 60.4649C138.823 60.4649 139.053 60.4521 139.348 60.4444C139.95 60.4289 140.641 60.4444 141.297 60.4444C141.716 60.4444 142.13 60.4315 142.546 60.4444C142.831 60.4444 143.084 60.4444 143.358 60.4623C143.632 60.4803 143.971 60.4623 144.175 60.4623L144.485 60.547C144.537 60.5608 144.59 60.5686 144.643 60.5701C144.739 60.5701 144.917 60.5701 145.033 60.5701C145.085 60.6009 144.653 60.6317 144.113 60.6343C143.751 60.6343 143.381 60.6343 143.022 60.6343C142.608 60.6343 142.288 60.6574 141.908 60.6677C141.527 60.6779 141.16 60.6677 140.788 60.6677C140.364 60.6677 139.997 60.6471 139.593 60.6369C138.621 60.6138 137.468 60.6215 136.535 60.5932H136.341C136.268 60.5932 136.341 60.5753 136.341 60.5676C136.341 60.5599 136.211 60.5368 136.111 60.5214C136.01 60.506 135.976 60.4854 136.196 60.4752C136.639 60.4355 137.085 60.4226 137.53 60.4367Z" fill="#6C63FF"/>
<path d="M163.425 101.429C162.148 97.6808 159.823 90.483 159.927 87.9905C159.999 86.2655 158.652 83.8474 157.295 81.8683L158.07 79.7634L157.98 79.6017L158.07 79.345C158.07 79.345 157.036 77.5661 156.902 76.4417C156.906 76.4037 156.913 76.366 156.922 76.3288C156.966 76.185 156.951 76.1106 156.894 76.0721C156.898 76.0157 156.908 75.9599 156.922 75.9052C157.209 74.9452 154.911 77.0013 154.911 77.0013L155.022 77.3145L154.911 77.4121L155.169 78.1103C154.668 77.833 154.086 77.5173 153.447 77.1836C153.707 76.7134 153.821 76.1777 153.776 75.6434C153.796 74.8352 153.595 74.0367 153.194 73.3331C152.568 72.1806 151.627 71.1974 151.061 70.0166C151.015 69.9251 150.978 69.8297 150.95 69.7317C150.96 69.703 150.974 69.6755 150.991 69.6495C151.097 69.4801 151.306 69.3928 151.461 69.2696C151.602 69.1287 151.705 68.9558 151.762 68.766C151.819 68.5763 151.829 68.3755 151.79 68.1812C151.812 67.8855 151.786 67.5882 151.712 67.3008C151.318 65.5862 150.646 63.9467 149.721 62.4466C149.279 61.7279 148.772 61.0245 148.558 60.2185C148.299 59.2841 148.473 58.2881 148.253 57.3486C148.015 56.3218 147.353 55.4568 146.701 54.6174L141.613 48.0126C141.39 47.6879 141.115 47.4017 140.798 47.1655C139.842 46.5263 138.676 46.9088 137.711 47.3118C136.589 47.7738 136.082 47.2656 134.919 47.3118C134.322 47.3375 133.696 47.6327 133.479 48.164C133.331 48.5234 133.388 48.9341 133.303 49.3089C133.114 50.1406 132.31 50.6514 131.671 51.2726C130.742 52.0522 129.994 53.0229 129.48 54.1177C128.965 55.2124 128.697 56.4051 128.693 57.613C128.693 58.2475 128.768 58.8798 128.915 59.4972C127.948 60.9706 126.989 62.4312 127.074 64.1177C127.065 64.2767 127.065 64.4362 127.074 64.5952C127.095 64.9186 127.157 65.2446 127.18 65.5655C127.173 65.6755 127.156 65.7847 127.128 65.8915C126.836 66.9645 125.564 67.4317 124.52 67.9245C123.129 68.5811 121.906 69.5408 120.941 70.7319C119.977 71.9231 119.295 73.315 118.948 74.804C118.066 75.2173 117.246 75.6049 116.551 75.9437L116.724 75.7923L114.824 74.8323C114.824 74.8323 113.963 77.7124 112.812 78.3978C112.701 78.4715 112.618 78.5804 112.577 78.7067C112.537 78.833 112.54 78.9693 112.587 79.0934C112.409 79.6813 113.187 80.7799 113.88 81.6013C113.104 83.0928 112.409 84.6817 112.243 85.9369C111.811 89.2278 110.087 94.3001 110.087 94.3001C110.087 94.3001 106.782 99.5085 110.087 105.13C113.391 110.752 118.852 107.461 118.852 107.461C118.852 107.461 118.399 110.046 117.921 112.595C117.404 115 117.016 117.033 117.016 117.033C116.499 119.641 116.119 124.2 116.119 124.2C116.119 124.2 114.539 143.393 113.676 144.628C113.373 145.062 115.517 146.356 119.573 147.57C119.644 147.801 119.717 148.044 119.793 148.299C120.711 151.449 121.862 156.418 121.507 160.53C121.507 160.53 121.794 162.725 120.933 167.112C120.072 171.499 119.928 184.111 121.939 190.007V195.536C121.59 195.731 121.246 196.378 121.58 198.36L122.012 200.28C122.012 200.28 120.574 197.674 118.707 202.334C116.84 206.993 123.594 210.548 126.754 210.833C127.404 210.899 128.061 210.885 128.708 210.792C128.948 210.755 129.176 210.666 129.377 210.531C129.578 210.396 129.747 210.219 129.871 210.012C129.994 209.805 130.07 209.573 130.093 209.333C130.116 209.094 130.086 208.852 130.004 208.625L129.745 207.953C129.745 207.953 131.038 203.845 129.6 202.195C129.6 202.195 131.47 196.573 130.461 195.888C130.461 195.888 130.226 195.857 129.776 196.24C129.758 196.147 129.737 196.029 129.714 195.883C129.515 194.704 129.148 191.953 129.815 190.679C130.676 189.034 131.395 179.849 131.395 179.849L131.682 169.566L133.261 163.803C133.261 163.803 134.267 160.102 133.835 157.086C133.577 155.242 134.006 152.465 134.384 150.607C134.433 150.365 134.479 150.139 134.526 149.931C135.909 149.996 137.347 150.024 138.839 150.008C138.885 150.222 138.932 150.45 138.981 150.694H139.053C139.426 152.563 139.842 155.271 139.583 157.086C139.151 160.102 140.157 163.803 140.157 163.803L141.737 169.561L142.024 179.844C142.024 179.844 142.743 189.029 143.604 190.674C144.281 191.958 143.893 194.782 143.697 195.934L143.676 196.052C143.653 196.181 143.635 196.278 143.622 196.342C143.092 195.847 142.815 195.883 142.815 195.883C141.809 196.568 143.676 202.19 143.676 202.19C142.239 203.835 143.531 207.947 143.531 207.947L143.273 208.62C143.191 208.848 143.161 209.091 143.185 209.332C143.209 209.573 143.287 209.806 143.413 210.013C143.539 210.221 143.71 210.398 143.913 210.532C144.117 210.665 144.347 210.752 144.589 210.787C145.236 210.88 145.893 210.894 146.544 210.828C149.706 210.553 156.459 206.977 154.59 202.328C152.721 197.68 151.286 200.275 151.286 200.275L151.717 198.355C152.004 196.64 151.79 195.921 151.503 195.631V189.984C153.514 184.08 153.372 171.476 152.509 167.089C151.645 162.702 151.935 160.507 151.935 160.507C151.611 156.806 152.516 152.411 153.37 149.274C153.439 149.018 153.512 148.761 153.579 148.522C155.13 148.228 156.714 147.886 158.329 147.495C158.329 147.495 156.604 137.761 158.329 134.609C159.712 132.081 154.905 117.747 152.946 112.161L152.46 110.054C153.543 110.454 157.439 111.594 160.501 108.429C161.328 107.576 161.972 106.871 162.474 106.288C163.045 105.631 163.434 104.836 163.601 103.984C163.768 103.132 163.707 102.251 163.425 101.429ZM152.193 109.997L152.167 109.925L152.224 109.951L152.193 109.997Z" fill="url(#paint0_linear)"/>
<path d="M134.47 150.789C134.108 152.655 133.694 155.409 133.953 157.247C134.366 160.253 133.402 163.944 133.402 163.944L131.887 169.684L131.613 179.934C131.613 179.934 130.925 189.09 130.097 190.731C129.456 192.001 129.808 194.745 129.999 195.919C130.053 196.263 130.097 196.47 130.097 196.47C128.996 204.669 122.527 197.017 122.527 197.017V190.045C120.6 184.17 120.738 171.597 121.562 167.222C122.387 162.848 122.113 160.664 122.113 160.664C122.457 156.557 121.337 151.61 120.471 148.471C119.954 146.587 119.499 145.357 119.499 145.357L134.917 148.774C134.917 148.774 134.7 149.603 134.47 150.789Z" fill="#636E7E"/>
<path opacity="0.1" d="M130.089 196.468C128.988 204.667 122.519 197.015 122.519 197.015V195.146C122.591 195.105 122.671 195.081 122.754 195.073C122.837 195.066 122.921 195.076 122.999 195.102C122.676 196.155 123.124 196.945 123.866 197.533C124.272 197.845 124.738 198.071 125.235 198.199C125.732 198.326 126.249 198.353 126.757 198.276C127.264 198.2 127.751 198.022 128.187 197.753C128.624 197.485 129.001 197.132 129.295 196.714C129.497 196.426 129.726 196.159 129.981 195.916C130.045 196.26 130.089 196.468 130.089 196.468Z" fill="black"/>
<path opacity="0.1" d="M150.874 195.192V197.015C150.874 197.015 144.41 204.667 143.304 196.468C143.304 196.468 143.34 196.283 143.394 195.973C143.623 196.202 143.831 196.45 144.017 196.714C144.312 197.132 144.689 197.485 145.125 197.753C145.562 198.022 146.048 198.2 146.556 198.276C147.063 198.353 147.581 198.326 148.078 198.199C148.575 198.071 149.041 197.845 149.447 197.533C150.187 196.945 150.634 196.155 150.313 195.102C150.407 195.069 150.507 195.06 150.605 195.075C150.704 195.091 150.796 195.131 150.874 195.192Z" fill="black"/>
<path d="M123 195.513C123 195.513 121.624 194.966 122.175 198.383L122.589 200.295C122.589 200.295 121.213 197.698 119.424 202.349C117.635 207 124.104 210.548 127.132 210.82C127.755 210.886 128.384 210.872 129.004 210.779C129.239 210.737 129.462 210.646 129.658 210.51C129.853 210.374 130.017 210.197 130.137 209.992C130.257 209.787 130.33 209.559 130.352 209.322C130.373 209.086 130.343 208.848 130.263 208.625L130.022 207.955C130.022 207.955 131.261 203.848 129.885 202.215C129.885 202.215 131.674 196.612 130.71 195.929C130.71 195.929 130.226 195.86 129.309 197.133C129.014 197.55 128.637 197.903 128.2 198.172C127.764 198.44 127.278 198.618 126.77 198.695C126.263 198.771 125.745 198.745 125.248 198.617C124.751 198.489 124.285 198.263 123.879 197.952C123.126 197.356 122.677 196.56 123 195.513Z" fill="#63667E"/>
<path d="M152.653 149.467C151.836 152.593 150.97 156.975 151.28 160.664C151.28 160.664 151.006 162.851 151.831 167.222C152.656 171.594 152.796 184.164 150.867 190.045V197.015C150.867 197.015 144.403 204.667 143.296 196.468C143.296 196.468 143.324 196.329 143.366 196.091L143.387 195.973C143.573 194.83 143.948 192.019 143.296 190.728C142.471 189.088 141.781 179.932 141.781 179.932L141.507 169.682L139.992 163.942C139.992 163.942 139.027 160.253 139.441 157.245C139.699 155.448 139.288 152.737 138.924 150.873C138.686 149.639 138.469 148.771 138.469 148.771L153.887 145.354C153.887 145.354 153.297 147.033 152.653 149.467Z" fill="#636E7E"/>
<path opacity="0.1" d="M150.874 195.328V197.015C150.874 197.015 144.41 204.667 143.304 196.468C143.304 196.468 143.332 196.329 143.374 196.091C143.611 196.328 143.826 196.585 144.017 196.861C144.312 197.278 144.689 197.631 145.125 197.9C145.562 198.168 146.048 198.346 146.556 198.423C147.063 198.499 147.581 198.473 148.078 198.345C148.575 198.217 149.041 197.991 149.447 197.679C150.187 197.092 150.634 196.301 150.313 195.249C150.406 195.214 150.506 195.203 150.604 195.217C150.702 195.231 150.795 195.269 150.874 195.328Z" fill="black"/>
<path d="M150.254 195.513C150.254 195.513 151.63 194.966 151.079 198.383L150.666 200.295C150.666 200.295 152.041 197.698 153.83 202.349C155.619 207 149.15 210.548 146.123 210.82C145.499 210.886 144.87 210.872 144.251 210.779C144.015 210.738 143.791 210.646 143.595 210.509C143.399 210.373 143.235 210.196 143.115 209.99C142.995 209.785 142.922 209.555 142.9 209.319C142.879 209.082 142.91 208.844 142.991 208.62L143.232 207.95C143.232 207.95 141.993 203.843 143.369 202.21C143.369 202.21 141.58 196.607 142.544 195.924C142.544 195.924 143.028 195.854 143.946 197.128C144.24 197.545 144.617 197.898 145.054 198.167C145.49 198.435 145.977 198.613 146.484 198.69C146.992 198.766 147.509 198.74 148.006 198.612C148.503 198.484 148.969 198.258 149.375 197.947C150.128 197.356 150.585 196.56 150.254 195.513Z" fill="#63667E"/>
<path opacity="0.1" d="M119.49 145.36L134.908 148.776C134.908 148.776 134.701 149.603 134.471 150.791C128.651 150.496 123.87 149.508 120.465 148.481C119.935 146.589 119.49 145.36 119.49 145.36Z" fill="black"/>
<path opacity="0.1" d="M153.832 145.36C153.832 145.36 153.227 147.033 152.591 149.467C148.07 150.344 143.478 150.813 138.872 150.868C138.634 149.634 138.417 148.766 138.417 148.766L153.832 145.36Z" fill="black"/>
<path d="M117.489 77.4402C117.489 77.4402 113.634 83.0439 113.223 86.3219C112.812 89.6 111.155 94.6569 111.155 94.6569C111.155 94.6569 107.99 99.8499 111.155 105.454C114.319 111.057 119.558 107.779 119.558 107.779C119.558 107.779 118.456 114.338 117.906 116.8C117.355 119.261 116.941 124.452 116.941 124.452C116.941 124.452 115.426 143.583 114.601 144.813C113.776 146.042 131.945 154.241 157.411 147.683C157.411 147.683 155.759 137.98 157.411 134.848C159.063 131.716 151.492 110.249 151.492 110.249C151.492 110.249 156.035 112.436 159.477 108.744C160.268 107.895 160.886 107.191 161.367 106.609C161.915 105.944 162.285 105.153 162.444 104.309C162.603 103.464 162.546 102.594 162.277 101.778C161.054 98.0427 158.825 90.8655 158.916 88.3832C159.053 84.9666 153.822 78.8161 153.822 78.8161L117.489 77.4402Z" fill="#E29D9D"/>
<path d="M136.285 72.4989C132.007 71.1965 127.393 71.5374 123.357 73.4538C119.706 75.1814 115.789 77.0835 115.287 77.5096C114.323 78.3285 115.287 79.0138 115.287 79.0138L126.162 80.2434H147.772L156.031 79.5606C156.031 79.5606 148.46 74.7783 144.605 74.5037C142.78 74.3728 139.367 73.4409 136.285 72.4989Z" fill="#F1C0C0"/>
<path opacity="0.1" d="M151.218 110.238L150.254 106.003C150.497 103.318 151.005 100.663 151.769 98.0761C153.008 93.969 151.495 88.2369 151.495 88.2369" fill="black"/>
<path opacity="0.1" d="M119.558 88.2344C119.558 88.2344 118.733 91.3763 119.558 93.1553C120.383 94.9342 119.558 98.7589 119.558 98.7589C119.558 98.7589 119.284 105.045 119.972 107.094" fill="black"/>
<path opacity="0.1" d="M126.304 93.2913C126.304 93.2913 124.514 97.9375 123.687 99.031C122.86 100.125 121.898 104.771 120.933 105.728C119.969 106.686 117.937 117.855 117.937 117.855C117.937 117.855 123.547 122.129 126.301 125.681C129.055 129.234 143.782 124.724 143.782 124.724C143.782 124.724 144.884 119.531 146.673 118.712C147.317 118.417 147.389 118.052 147.221 117.703C146.348 115.928 145.816 114.007 145.652 112.038C145.235 106.837 143.942 98.5073 139.93 94.7955L126.304 93.2913Z" fill="black"/>
<path d="M126.167 92.7471C126.167 92.7471 124.378 97.3933 123.55 98.4868C122.723 99.5803 121.761 104.227 120.797 105.184C119.832 106.142 117.8 117.31 117.8 117.31C117.8 117.31 123.411 121.584 126.164 125.137C128.918 128.69 143.648 124.172 143.648 124.172C143.648 124.172 144.749 118.979 146.539 118.16C147.183 117.865 147.255 117.5 147.087 117.151C146.214 115.376 145.682 113.455 145.517 111.486C145.101 106.285 143.808 97.9555 139.795 94.2436L126.167 92.7471Z" fill="#6C63FF"/>
<path opacity="0.1" d="M131.875 122.742C133.243 122.742 134.352 121.641 134.352 120.283C134.352 118.925 133.243 117.824 131.875 117.824C130.507 117.824 129.398 118.925 129.398 120.283C129.398 121.641 130.507 122.742 131.875 122.742Z" fill="black"/>
<path opacity="0.1" d="M129.745 93.9767C129.745 93.9767 126.303 98.0838 128.369 101.357L129.334 101.767C129.334 101.767 129.884 94.6621 130.572 94.2514L129.745 93.9767Z" fill="black"/>
<path opacity="0.1" d="M132.773 93.9767C132.773 93.9767 131.809 101.493 132.499 102.176C132.499 102.176 135.116 102.722 135.39 101.765C135.39 101.765 133.874 95.3474 134.288 94.5209L132.773 93.9767Z" fill="black"/>
<path opacity="0.1" d="M136.077 94.5902C136.077 94.5902 137.179 100.194 138.146 99.2364C139.113 98.279 137.458 94.5902 137.458 94.5902H136.077Z" fill="black"/>
<path opacity="0.1" d="M127.956 94.9316C127.956 94.9316 136.214 96.5719 140.625 95.2037C145.036 93.8355 156.32 82.5357 156.32 82.5357L157.144 80.169C157.144 80.169 155.756 77.7098 156.035 76.7575C156.314 75.8051 154.109 77.851 154.109 77.851L154.489 78.9702C154.489 78.9702 118.87 80.993 115.291 78.6699L117.525 76.6163L115.715 75.6588C115.715 75.6588 114.891 78.5287 113.789 79.2115C112.688 79.8943 115.715 83.0388 115.715 83.0388C115.715 83.0388 123.826 94.3951 127.956 94.9316Z" fill="black"/>
<path d="M127.956 94.5234C127.956 94.5234 136.214 96.1637 140.625 94.7955C145.036 93.4273 156.32 82.1275 156.32 82.1275L157.144 79.7608C157.144 79.7608 155.769 77.3016 156.043 76.3441C156.317 75.3867 154.117 77.4377 154.117 77.4377L154.497 78.5569C154.497 78.5569 118.878 80.5796 115.299 78.2565L117.533 76.203L115.723 75.2455C115.723 75.2455 114.898 78.1153 113.797 78.7982C112.695 79.481 115.723 82.6255 115.723 82.6255C115.723 82.6255 123.826 93.9766 127.956 94.5234Z" fill="#E29D9D"/>
<path opacity="0.1" d="M116.394 80.4462C116.394 80.4462 117.909 79.8994 121.761 80.9929C125.614 82.0865 130.294 80.9929 130.294 80.9929C130.294 80.9929 151.079 80.5822 152.731 80.8569C154.384 81.1316 157.127 79.7634 157.127 79.7634" fill="black"/>
<path opacity="0.1" d="M145.438 96.0251C145.438 96.0251 147.777 111.876 151.643 116.525C151.62 116.525 146.676 99.9885 145.438 96.0251Z" fill="black"/>
<path d="M137.52 66.5769C142.234 66.5769 146.056 62.7831 146.056 58.1033C146.056 53.4235 142.234 49.6298 137.52 49.6298C132.807 49.6298 128.985 53.4235 128.985 58.1033C128.985 62.7831 132.807 66.5769 137.52 66.5769Z" fill="#765656"/>
<path opacity="0.1" d="M134.95 48.2462C134.378 48.2719 133.778 48.5671 133.569 49.0959C133.427 49.4552 133.484 49.8659 133.401 50.2356C133.142 51.3625 131.819 51.9015 131.276 52.9206C130.733 53.9397 131.069 55.0974 130.989 56.2063C130.761 59.4202 127.227 61.8357 127.439 65.0521C127.475 65.622 127.632 66.2021 127.488 66.754C127.208 67.8244 125.988 68.2942 124.99 68.7819C123.534 69.5105 122.278 70.5778 121.327 71.8928C120.377 73.2078 119.761 74.7315 119.532 76.3339C119.428 77.104 119.426 77.9486 119.79 78.6442C120.155 79.3399 120.959 79.8738 121.732 79.6967C122.885 79.44 123.283 77.9332 124.318 77.3556C124.786 78.0538 124.602 78.9907 124.835 79.7968C125.093 80.6516 126.004 81.3498 126.877 81.1342C127.751 80.9185 128.155 79.594 127.418 79.0806C128.38 79.1961 129.013 80.169 129.215 81.1111C129.417 82.0531 129.326 83.0388 129.551 83.9758C129.823 84.9779 130.434 85.8566 131.282 86.4643C132.129 87.0719 133.161 87.3716 134.205 87.3128C134.504 87.2604 134.811 87.2604 135.11 87.3128C135.394 87.4155 135.657 87.5685 135.886 87.7646C136.967 88.5396 138.304 88.879 139.627 88.7144C139.699 88.2164 140.188 87.8622 140.687 87.7749C141.193 87.7231 141.703 87.7765 142.187 87.9315L144.488 88.4988C145.158 88.6631 146.021 88.7555 146.399 88.1882C146.678 87.7621 146.52 87.1819 146.717 86.7122C147.037 85.9421 148.085 85.8343 148.922 85.9087C149.76 85.9832 150.758 86.0499 151.278 85.3953C151.797 84.7407 151.448 83.6857 150.97 82.9464C150.492 82.2071 149.892 81.4063 150.06 80.5412C150.295 79.3244 151.831 78.8804 152.563 77.8792C153.338 76.8319 153.08 75.3456 152.475 74.1956C151.87 73.0456 150.975 72.0651 150.43 70.8894C150.358 70.7755 150.314 70.6463 150.302 70.5124C150.291 70.3785 150.311 70.2438 150.362 70.1193C150.466 69.9525 150.665 69.8626 150.812 69.742C151.229 69.3775 151.172 68.7152 151.053 68.1889C150.674 66.4799 150.023 64.8415 149.127 63.3348C148.702 62.6186 148.219 61.9178 148.012 61.1144C147.774 60.1826 147.929 59.1917 147.72 58.2522C147.492 57.2254 146.856 56.3655 146.238 55.5287L141.365 48.9444C141.154 48.623 140.892 48.3378 140.589 48.0999C139.671 47.4633 138.557 47.8432 137.634 48.2436C136.55 48.7031 136.067 48.1897 134.95 48.2462Z" fill="black"/>
<path d="M134.95 47.8354C134.378 47.8611 133.778 48.1563 133.569 48.6851C133.427 49.0444 133.484 49.4552 133.401 49.8248C133.142 50.9517 131.819 51.4908 131.276 52.5099C130.733 53.5289 131.069 54.6866 130.989 55.7956C130.761 59.0094 127.227 61.4249 127.439 64.6413C127.475 65.2112 127.632 65.7913 127.488 66.3432C127.208 67.4137 125.988 67.8834 124.99 68.3711C123.536 69.0988 122.28 70.1645 121.329 71.4776C120.379 72.7907 119.762 74.3123 119.532 75.9129C119.428 76.683 119.426 77.5275 119.79 78.2232C120.155 78.9188 120.959 79.4527 121.732 79.2756C122.885 79.0189 123.283 77.5121 124.318 76.9346C124.786 77.6328 124.602 78.5697 124.835 79.3757C125.093 80.2305 126.004 80.9288 126.877 80.7131C127.751 80.4975 128.155 79.173 127.418 78.6596C128.38 78.7751 129.013 79.7479 129.215 80.69C129.417 81.6321 129.326 82.6178 129.551 83.5548C129.823 84.5569 130.434 85.4356 131.282 86.0432C132.129 86.6509 133.161 86.9505 134.205 86.8918C134.504 86.8394 134.811 86.8394 135.11 86.8918C135.394 86.9944 135.657 87.1475 135.886 87.3436C136.967 88.1186 138.304 88.458 139.627 88.2934C139.699 87.7954 140.188 87.4412 140.687 87.3539C141.193 87.3021 141.703 87.3554 142.187 87.5105L144.488 88.0778C145.158 88.242 146.021 88.3344 146.399 87.7672C146.678 87.341 146.52 86.7609 146.717 86.2911C147.037 85.5211 148.085 85.4132 148.922 85.4877C149.76 85.5621 150.758 85.6289 151.278 84.9743C151.797 84.3197 151.448 83.2647 150.97 82.5254C150.492 81.7861 149.892 80.9852 150.06 80.1202C150.295 78.9034 151.831 78.4593 152.563 77.4582C153.338 76.4109 153.08 74.9246 152.475 73.7746C151.87 72.6246 150.975 71.644 150.43 70.4684C150.358 70.3545 150.314 70.2253 150.302 70.0914C150.291 69.9575 150.311 69.8227 150.362 69.6983C150.466 69.5314 150.665 69.4416 150.812 69.3209C151.229 68.9564 151.172 68.2941 151.053 67.7679C150.678 66.0654 150.035 64.4323 149.147 62.9292C148.723 62.213 148.24 61.5122 148.033 60.7087C147.795 59.7769 147.95 58.7861 147.741 57.8466C147.513 56.8198 146.877 55.9599 146.259 55.123L141.385 48.5388C141.175 48.2174 140.913 47.9321 140.61 47.6942C139.692 47.0576 138.577 47.4375 137.654 47.838C136.55 48.2949 136.067 47.7866 134.95 47.8354Z" fill="#896363"/>
<path opacity="0.1" d="M130.503 67.8064C130.503 67.8064 126.787 68.3532 125.409 71.6337C124.031 74.9143 122.244 75.5971 122.244 75.5971" fill="black"/>
<path opacity="0.1" d="M135.33 51.8168C135.33 51.8168 137.399 56.463 135.468 59.6075C133.536 62.7521 134.643 68.4892 134.643 68.4892" fill="black"/>
<path opacity="0.1" d="M133.805 74.0929C133.805 74.0929 131.736 73.2741 132.566 76.6907C133.396 80.1073 132.292 82.5665 132.292 82.5665" fill="black"/>
<path opacity="0.1" d="M139.862 73.5461C139.862 73.5461 136.147 73.4075 137.452 78.1923C138.758 82.9772 137.108 85.3003 137.108 85.3003" fill="black"/>
<path opacity="0.1" d="M139.862 50.8593C139.862 50.8593 143.441 54.548 143.167 56.8712C142.893 59.1943 143.03 67.3957 143.167 67.8039" fill="black"/>
<path opacity="0.1" d="M144.542 73.9543C144.542 73.9543 147.019 76.5521 146.61 78.7366C146.202 80.9211 146.61 85.2952 146.61 85.2952" fill="black"/>
<path opacity="0.1" d="M147.156 62.3388C147.156 62.3388 148.946 65.6194 148.532 68.4995L147.156 62.3388Z" fill="black"/>
<path opacity="0.1" d="M122.891 100.589C122.891 100.589 128.579 111.945 143.167 101.698" stroke="black" stroke-width="2" stroke-miterlimit="10"/>
<path d="M147.02 117.138L151.699 110.033L152.255 112.461L147.084 117.703" fill="#636E7E"/>
<path opacity="0.1" d="M135.33 130.258C135.33 130.258 139.726 140.783 135.33 149.795V130.258Z" fill="black"/>
<path d="M190.558 147.462H175.82V151.569H190.558V147.462Z" fill="#A1A3B2"/>
</g>
<defs>
<linearGradient id="paint0_linear" x1="136.144" y1="210.866" x2="136.144" y2="46.8369" gradientUnits="userSpaceOnUse">
<stop stop-color="#808080" stop-opacity="0.25"/>
<stop offset="0.54" stop-color="#808080" stop-opacity="0.12"/>
<stop offset="1" stop-color="#808080" stop-opacity="0.1"/>
</linearGradient>
<clipPath id="clip0">
<rect width="281" height="216" fill="white"/>
</clipPath>
</defs>
</svg>
