<svg width="294" height="225" viewBox="0 0 294 225" fill="none" xmlns="http://www.w3.org/2000/svg">
<g clip-path="url(#clip0)">
<path d="M231.057 224.653C265.544 224.653 293.5 222.517 293.5 219.882C293.5 217.248 265.544 215.112 231.057 215.112C196.571 215.112 168.614 217.248 168.614 219.882C168.614 222.517 196.571 224.653 231.057 224.653Z" fill="#E6E6E6"/>
<path d="M3.0556 1.33545C2.64912 1.33589 2.25942 1.49783 1.972 1.78572C1.68457 2.07362 1.5229 2.46396 1.52246 2.87111V34.9493C1.5229 35.3564 1.68457 35.7468 1.972 36.0347C2.25942 36.3226 2.64912 36.4845 3.0556 36.485H127.41C127.817 36.4845 128.206 36.3226 128.494 36.0347C128.781 35.7468 128.943 35.3564 128.943 34.9493V2.87111C128.943 2.46396 128.781 2.07362 128.494 1.78572C128.206 1.49783 127.817 1.33589 127.41 1.33545H3.0556Z" fill="#022E73"/>
<path d="M127.41 123.847H3.05523C2.37777 123.846 1.72827 123.576 1.24923 123.096C0.770188 122.617 0.500739 121.966 0.5 121.287V3.21238C0.500739 2.53381 0.770188 1.88324 1.24923 1.40341C1.72827 0.923586 2.37777 0.653695 3.05523 0.652954H127.41C128.087 0.653695 128.737 0.923586 129.216 1.40341C129.695 1.88324 129.964 2.53381 129.965 3.21238V121.287C129.964 121.966 129.695 122.617 129.216 123.096C128.737 123.576 128.087 123.846 127.41 123.847ZM3.05523 1.67673C2.64875 1.67717 2.25905 1.83911 1.97163 2.127C1.68421 2.4149 1.52254 2.80524 1.52209 3.21238V121.287C1.52254 121.695 1.68421 122.085 1.97163 122.373C2.25905 122.661 2.64875 122.823 3.05523 122.823H127.41C127.816 122.823 128.206 122.661 128.493 122.373C128.781 122.085 128.943 121.695 128.943 121.287V3.21238C128.943 2.80524 128.781 2.4149 128.493 2.127C128.206 1.83911 127.816 1.67717 127.41 1.67673H3.05523Z" fill="#E6E6E6"/>
<path d="M93.4575 49.9017H56.1515V50.5842H93.4575C95.2942 50.5842 97.0557 51.3151 98.3544 52.6159C99.6532 53.9168 100.383 55.6812 100.383 57.5209C100.383 59.3606 99.6532 61.1249 98.3544 62.4258C97.0557 63.7267 95.2942 64.4575 93.4575 64.4575H37.007C35.1703 64.4575 33.4089 63.7267 32.1101 62.4258C30.8114 61.1249 30.0818 59.3606 30.0818 57.5209C30.0818 55.6812 30.8114 53.9168 32.1101 52.6159C33.4089 51.3151 35.1703 50.5842 37.007 50.5842H39.1166V49.9017H37.007C34.9896 49.9017 33.0548 50.7045 31.6283 52.1333C30.2018 53.5622 29.4004 55.5002 29.4004 57.5209C29.4004 59.5416 30.2018 61.4796 31.6283 62.9084C33.0548 64.3373 34.9896 65.14 37.007 65.14H93.4575C95.475 65.14 97.4097 64.3373 98.8363 62.9084C100.263 61.4796 101.064 59.5416 101.064 57.5209C101.064 55.5002 100.263 53.5622 98.8363 52.1333C97.4097 50.7045 95.475 49.9017 93.4575 49.9017Z" fill="#E6E6E6"/>
<path d="M93.4575 73.4485H56.1515V74.131H93.4575C95.2942 74.131 97.0557 74.8618 98.3544 76.1627C99.6532 77.4636 100.383 79.2279 100.383 81.0676C100.383 82.9073 99.6532 84.6717 98.3544 85.9726C97.0557 87.2734 95.2942 88.0042 93.4575 88.0042H37.007C35.1703 88.0042 33.4089 87.2734 32.1101 85.9726C30.8114 84.6717 30.0818 82.9073 30.0818 81.0676C30.0818 79.2279 30.8114 77.4636 32.1101 76.1627C33.4089 74.8618 35.1703 74.131 37.007 74.131H39.1166V73.4485H37.007C34.9896 73.4485 33.0548 74.2512 31.6283 75.6801C30.2018 77.1089 29.4004 79.0469 29.4004 81.0676C29.4004 83.0883 30.2018 85.0263 31.6283 86.4552C33.0548 87.884 34.9896 88.6868 37.007 88.6868H93.4575C95.475 88.6868 97.4097 87.884 98.8363 86.4552C100.263 85.0263 101.064 83.0883 101.064 81.0676C101.064 79.0469 100.263 77.1089 98.8363 75.6801C97.4097 74.2512 95.475 73.4485 93.4575 73.4485Z" fill="#E6E6E6"/>
<path d="M93.4575 96.9952H56.1515V97.6778H93.4575C95.2942 97.6778 97.0557 98.4086 98.3544 99.7095C99.6532 101.01 100.383 102.775 100.383 104.614C100.383 106.454 99.6532 108.218 98.3544 109.519C97.0557 110.82 95.2942 111.551 93.4575 111.551H37.007C35.1703 111.551 33.4089 110.82 32.1101 109.519C30.8114 108.218 30.0818 106.454 30.0818 104.614C30.0818 102.775 30.8114 101.01 32.1101 99.7095C33.4089 98.4086 35.1703 97.6778 37.007 97.6778H39.1166V96.9952H37.007C34.9896 96.9952 33.0548 97.798 31.6283 99.2268C30.2018 100.656 29.4004 102.594 29.4004 104.614C29.4004 106.635 30.2018 108.573 31.6283 110.002C33.0548 111.431 34.9896 112.234 37.007 112.234H93.4575C95.475 112.234 97.4097 111.431 98.8363 110.002C100.263 108.573 101.064 106.635 101.064 104.614C101.064 102.594 100.263 100.656 98.8363 99.2268C97.4097 97.798 95.475 96.9952 93.4575 96.9952Z" fill="#E6E6E6"/>
<path d="M43.3277 48.0986C42.7962 48.1074 42.2894 48.325 41.9166 48.7046C41.5439 49.0842 41.335 49.5953 41.335 50.1277C41.335 50.6602 41.5439 51.1713 41.9166 51.5509C42.2894 51.9305 42.7962 52.1481 43.3277 52.1569H52.215C52.7519 52.1651 53.2701 51.9595 53.6558 51.5853C54.0415 51.2111 54.2631 50.6988 54.2719 50.161C54.2807 49.6232 54.076 49.104 53.7028 48.7173C53.3296 48.3305 52.8184 48.108 52.2816 48.0986C52.2594 48.0982 52.2372 48.0982 52.215 48.0986H43.3277Z" fill="#3F3D56"/>
<path d="M43.3277 71.9866C42.7962 71.9954 42.2894 72.213 41.9166 72.5926C41.5439 72.9722 41.335 73.4833 41.335 74.0157C41.335 74.5482 41.5439 75.0593 41.9166 75.4389C42.2894 75.8185 42.7962 76.0361 43.3277 76.0449H52.215C52.4813 76.0495 52.7458 76.0016 52.9935 75.9038C53.2412 75.806 53.4672 75.6603 53.6587 75.4749C53.8501 75.2896 54.0032 75.0682 54.1092 74.8236C54.2152 74.5789 54.272 74.3157 54.2763 74.0491C54.2807 73.7824 54.2326 73.5175 54.1347 73.2695C54.0367 73.0215 53.891 72.7953 53.7057 72.6037C53.5205 72.4122 53.2993 72.2591 53.055 72.1532C52.8106 72.0473 52.5478 71.9907 52.2816 71.9866C52.2594 71.9862 52.2372 71.9862 52.215 71.9866H43.3277Z" fill="#3F3D56"/>
<path d="M43.3277 95.1921C42.7962 95.2009 42.2894 95.4185 41.9166 95.7981C41.5439 96.1777 41.335 96.6888 41.335 97.2212C41.335 97.7537 41.5439 98.2648 41.9166 98.6444C42.2894 99.024 42.7962 99.2416 43.3277 99.2504H52.215C52.7519 99.2586 53.2701 99.053 53.6558 98.6788C54.0415 98.3045 54.2631 97.7923 54.2719 97.2545C54.2807 96.7167 54.076 96.1975 53.7028 95.8108C53.3296 95.424 52.8184 95.2015 52.2816 95.1921C52.2594 95.1917 52.2372 95.1917 52.215 95.1921H43.3277Z" fill="#3F3D56"/>
<path d="M39.8033 55.4917C39.2718 55.5005 38.765 55.7181 38.3922 56.0977C38.0195 56.4773 37.8105 56.9884 37.8105 57.5209C37.8105 58.0533 38.0195 58.5644 38.3922 58.944C38.765 59.3236 39.2718 59.5412 39.8033 59.55H90.5964C91.1333 59.5582 91.6515 59.3526 92.0372 58.9784C92.4229 58.6042 92.6444 58.0919 92.6533 57.5541C92.6621 57.0164 92.4574 56.4971 92.0842 56.1104C91.711 55.7237 91.1998 55.5012 90.663 55.4917C90.6408 55.4914 90.6186 55.4914 90.5964 55.4917H39.8033Z" fill="#E6E6E6"/>
<path d="M39.8033 79.0385C39.2718 79.0473 38.765 79.2649 38.3922 79.6445C38.0195 80.0241 37.8105 80.5352 37.8105 81.0676C37.8105 81.6001 38.0195 82.1112 38.3922 82.4908C38.765 82.8703 39.2718 83.088 39.8033 83.0967H90.5964C91.1333 83.105 91.6515 82.8994 92.0372 82.5252C92.4229 82.1509 92.6444 81.6387 92.6533 81.1009C92.6621 80.5631 92.4574 80.0438 92.0842 79.6571C91.711 79.2704 91.1998 79.0479 90.663 79.0385C90.6408 79.0381 90.6186 79.0381 90.5964 79.0385H39.8033Z" fill="#E6E6E6"/>
<path d="M39.8033 102.585C39.2718 102.594 38.765 102.812 38.3922 103.191C38.0195 103.571 37.8105 104.082 37.8105 104.614C37.8105 105.147 38.0195 105.658 38.3922 106.038C38.765 106.417 39.2718 106.635 39.8033 106.644H90.5964C90.8627 106.648 91.1272 106.6 91.3749 106.502C91.6226 106.405 91.8486 106.259 92.0401 106.074C92.2315 105.888 92.3846 105.667 92.4906 105.422C92.5966 105.178 92.6534 104.914 92.6577 104.648C92.6621 104.381 92.614 104.116 92.516 103.868C92.4181 103.62 92.2724 103.394 92.0871 103.202C91.9019 103.011 91.6807 102.858 91.4364 102.752C91.192 102.646 90.9292 102.589 90.663 102.585C90.6408 102.585 90.6186 102.585 90.5964 102.585H39.8033Z" fill="#E6E6E6"/>
<path d="M52.5387 12.4641C52.1686 12.4731 51.816 12.691 51.5568 13.0708C51.2975 13.4506 51.1525 13.9618 51.1529 14.4942C51.1533 15.0267 51.2991 15.5377 51.5589 15.9171C51.8187 16.2965 52.1716 16.5139 52.5417 16.5223L87.9025 16.4961C88.2762 16.5041 88.6368 16.2982 88.9051 15.9238C89.1733 15.5493 89.3271 15.037 89.3329 14.4992C89.3386 13.9614 89.1957 13.4422 88.9357 13.0557C88.6756 12.6692 88.3195 12.447 87.9458 12.4378C87.9303 12.4375 87.9149 12.4375 87.8995 12.4379L52.5387 12.4641Z" fill="white"/>
<path d="M52.727 21.3174C52.307 21.3262 51.9066 21.5438 51.612 21.9234C51.3174 22.303 51.1523 22.8141 51.1523 23.3465C51.1523 23.879 51.3174 24.3901 51.612 24.7697C51.9066 25.1493 52.307 25.3669 52.727 25.3757H118.711C119.135 25.3839 119.544 25.1783 119.849 24.8041C120.154 24.4299 120.329 23.9176 120.336 23.3798C120.343 22.8421 120.181 22.3228 119.886 21.9361C119.591 21.5493 119.187 21.3268 118.763 21.3174C118.746 21.317 118.728 21.317 118.711 21.3174H52.727Z" fill="white"/>
<path d="M245.626 74.7496C250.906 74.7496 255.187 70.4618 255.187 65.1725C255.187 59.8832 250.906 55.5954 245.626 55.5954C240.345 55.5954 236.064 59.8832 236.064 65.1725C236.064 70.4618 240.345 74.7496 245.626 74.7496Z" fill="#2F2E41"/>
<path d="M229.69 87.9751C235.977 87.9751 241.073 82.8706 241.073 76.5738C241.073 70.277 235.977 65.1725 229.69 65.1725C223.404 65.1725 218.308 70.277 218.308 76.5738C218.308 82.8706 223.404 87.9751 229.69 87.9751Z" fill="#2F2E41"/>
<path d="M216.568 174.706L222.151 184.6C222.151 184.6 229.452 177.287 225.587 175.352L219.575 173.416L216.568 174.706Z" fill="#FFB8B8"/>
<path d="M226.445 201.161L224.728 208.474L229.881 210.194L231.599 201.806L226.445 201.161Z" fill="#FFB8B8"/>
<path d="M215.701 127.356L214.594 138.669C214.594 138.669 194.667 157.07 201.538 163.952C208.409 170.835 216.998 176.427 216.998 176.427L220.864 173.631L212.06 161.586L229.882 148.897L225.802 202.022L232.029 203.742L245.987 149.972C245.987 149.972 250.281 132.766 239.76 124.163L215.701 127.356Z" fill="#2F2E41"/>
<path d="M228.378 208.259C228.378 208.259 225.157 204.172 223.654 207.829C222.664 210.343 221.874 212.932 221.292 215.572C221.292 215.572 215.709 223.96 224.299 222.884C232.888 221.809 230.311 217.938 230.311 217.938C230.768 217.641 231.131 217.221 231.36 216.726C231.588 216.231 231.671 215.682 231.599 215.141C231.385 213.206 230.311 208.689 230.311 208.689C230.311 208.689 229.237 206.753 228.378 208.259Z" fill="#2F2E41"/>
<path d="M219.468 180.191C219.468 180.191 217.643 182.019 220.649 185.03C220.649 185.03 221.078 193.418 224.943 192.558C228.808 191.698 230.097 181.159 229.667 180.083C229.238 179.008 230.312 171.05 227.735 171.265C225.158 171.48 221.937 174.276 221.937 174.276C221.937 174.276 227.52 179.438 222.152 182.879C222.152 182.879 220.756 182.342 219.468 180.191Z" fill="#2F2E41"/>
<path d="M235.465 97.0624L219.146 97.4926C222.742 92.3807 223.419 86.3504 221.937 79.6409L232.673 81.7917C230.606 87.2675 230.57 91.9645 235.465 97.0624Z" fill="#FFB8B8"/>
<path d="M240.618 124.808L215.28 131.905L210.417 98.3509C210.516 96.8423 211.141 95.4164 212.181 94.3214C213.222 93.2264 214.613 92.5318 216.113 92.3585L221.936 91.6855L232.458 92.7609L237.434 94.1696C238.829 94.5643 240.049 95.4196 240.897 96.5966C241.745 97.7736 242.171 99.2031 242.106 100.653L240.618 124.808Z" fill="#022E73"/>
<path d="M216.354 125.453L212.274 130.185L202.396 119.646L206.069 101.408C206.507 99.2326 207.581 97.237 209.156 95.6755C210.73 94.114 212.733 93.0573 214.909 92.6399L217.642 92.1156L211.63 116.635L216.354 125.453Z" fill="#022E73"/>
<path d="M216.151 132.104L213.133 128.034L215.71 125.453L219.895 126.547C220.486 126.701 221.028 127.006 221.467 127.432C221.906 127.858 222.228 128.39 222.401 128.977C222.575 129.565 222.593 130.187 222.456 130.783C222.319 131.38 222.03 131.931 221.617 132.383C221.265 132.769 220.831 133.073 220.347 133.272C219.863 133.471 219.341 133.561 218.819 133.534C218.296 133.507 217.786 133.365 217.325 133.118C216.864 132.871 216.463 132.525 216.151 132.104Z" fill="#FFB8B8"/>
<path d="M236.108 126.744L240.188 131.475L250.065 120.936L246.393 102.699C245.955 100.523 244.88 98.5275 243.306 96.966C241.732 95.4045 239.729 94.3478 237.553 93.9304L234.819 93.4061L240.832 117.925L236.108 126.744Z" fill="#022E73"/>
<path d="M236.311 133.395L239.329 129.324L236.752 126.744L232.567 127.837C231.976 127.992 231.434 128.297 230.995 128.723C230.556 129.148 230.234 129.681 230.061 130.268C229.887 130.855 229.868 131.477 230.006 132.074C230.143 132.67 230.432 133.221 230.844 133.673C231.197 134.06 231.631 134.364 232.115 134.563C232.599 134.762 233.121 134.851 233.643 134.824C234.165 134.798 234.675 134.656 235.137 134.409C235.598 134.161 235.999 133.815 236.311 133.395Z" fill="#FFB8B8"/>
<path d="M228.117 84.9629C232.234 84.9629 235.571 81.6199 235.571 77.4961C235.571 73.3723 232.234 70.0293 228.117 70.0293C224 70.0293 220.662 73.3723 220.662 77.4961C220.662 81.6199 224 84.9629 228.117 84.9629Z" fill="#FFB8B8"/>
<path d="M220.129 76.8019H232.878L236.748 71.5573C232.94 68.2192 228.175 67.6208 222.861 68.5929L220.129 76.8019Z" fill="#2F2E41"/>
<path d="M282.422 197.008C282.217 204.672 280.935 212.269 278.614 219.575C278.561 219.745 278.506 219.912 278.45 220.081H264.242C264.257 219.93 264.272 219.76 264.287 219.575C265.235 208.666 270.697 142.27 264.166 130.915C264.737 131.837 283.523 162.345 282.422 197.008Z" fill="#E6E6E6"/>
<path d="M281.356 219.575C281.237 219.745 281.113 219.914 280.987 220.081H270.328C270.409 219.937 270.502 219.768 270.611 219.575C272.372 216.392 277.584 206.875 282.422 197.008C287.621 186.405 292.391 175.4 291.989 171.417C292.113 172.315 295.711 199.701 281.356 219.575Z" fill="#E6E6E6"/>
<path d="M181.745 208.37C181.849 212.26 182.5 216.116 183.678 219.825C183.705 219.911 183.733 219.995 183.761 220.081H190.973C190.965 220.004 190.958 219.918 190.95 219.825C190.469 214.287 187.697 180.586 191.012 174.822C190.722 175.29 181.186 190.775 181.745 208.37Z" fill="#E6E6E6"/>
<path d="M182.286 219.825C182.346 219.911 182.409 219.997 182.473 220.081H187.884C187.843 220.008 187.795 219.922 187.74 219.825C186.846 218.209 184.201 213.378 181.745 208.37C179.106 202.988 176.685 197.402 176.889 195.38C176.826 195.836 175 209.736 182.286 219.825Z" fill="#E6E6E6"/>
<rect x="13.2383" y="5.46979" width="26.9263" height="26.9706" rx="10" fill="white"/>
<path d="M26.4543 28.1022C31.686 28.1022 35.9271 23.8541 35.9271 18.6138C35.9271 13.3735 31.686 9.12543 26.4543 9.12543C21.2226 9.12543 16.9814 13.3735 16.9814 18.6138C16.9814 23.8541 21.2226 28.1022 26.4543 28.1022Z" fill="#CCCCCC"/>
<path d="M26.7008 29.1057C30.5946 29.1057 33.7512 25.9439 33.7512 22.0437C33.7512 18.1435 30.5946 14.9818 26.7008 14.9818C22.807 14.9818 19.6504 18.1435 19.6504 22.0437C19.6504 25.9439 22.807 29.1057 26.7008 29.1057Z" fill="#E6E6E6"/>
<path d="M19.668 17.5401C22.4214 19.2236 25.5255 20.2481 28.7387 20.5338L27.7826 19.3863C28.4787 19.6441 29.2113 19.7898 29.953 19.818C30.3244 19.8287 30.6931 19.7522 31.0296 19.5944C31.366 19.4367 31.6609 19.2021 31.8905 18.9096C32.0781 18.6058 32.1895 18.2611 32.2152 17.9049C32.241 17.5487 32.1804 17.1915 32.0385 16.8638C31.7471 16.2103 31.2936 15.6423 30.7211 15.2139C29.7063 14.4098 28.5087 13.8697 27.235 13.6417C25.9613 13.4137 24.6511 13.5049 23.4211 13.9071C22.5774 14.1596 21.8218 14.6451 21.2408 15.308C20.9552 15.6418 20.7568 16.0415 20.6635 16.4712C20.5702 16.9008 20.5848 17.3469 20.7061 17.7694" fill="#CCCCCC"/>
</g>
<defs>
<clipPath id="clip0">
<rect width="293" height="224" fill="white" transform="translate(0.5 0.652954)"/>
</clipPath>
</defs>
</svg>
