<svg width="185" height="171" viewBox="0 0 185 171" fill="none" xmlns="http://www.w3.org/2000/svg">
<path d="M2.20831 131.276C2.20831 130.052 2.49031 128.954 3.05431 127.982C3.63031 127.01 4.40431 126.254 5.37631 125.714C6.36031 125.162 7.43431 124.886 8.59831 124.886C9.93031 124.886 11.1123 125.216 12.1443 125.876C13.1883 126.524 13.9443 127.448 14.4123 128.648H11.9463C11.6223 127.988 11.1723 127.496 10.5963 127.172C10.0203 126.848 9.35431 126.686 8.59831 126.686C7.77031 126.686 7.03231 126.872 6.38431 127.244C5.73631 127.616 5.22631 128.15 4.85431 128.846C4.49431 129.542 4.31431 130.352 4.31431 131.276C4.31431 132.2 4.49431 133.01 4.85431 133.706C5.22631 134.402 5.73631 134.942 6.38431 135.326C7.03231 135.698 7.77031 135.884 8.59831 135.884C9.35431 135.884 10.0203 135.722 10.5963 135.398C11.1723 135.074 11.6223 134.582 11.9463 133.922H14.4123C13.9443 135.122 13.1883 136.046 12.1443 136.694C11.1123 137.342 9.93031 137.666 8.59831 137.666C7.42231 137.666 6.34831 137.396 5.37631 136.856C4.40431 136.304 3.63031 135.542 3.05431 134.57C2.49031 133.598 2.20831 132.5 2.20831 131.276ZM18.8662 124.238V137.558H16.8142V124.238H18.8662ZM22.6043 126.326C22.2323 126.326 21.9203 126.2 21.6683 125.948C21.4163 125.696 21.2903 125.384 21.2903 125.012C21.2903 124.64 21.4163 124.328 21.6683 124.076C21.9203 123.824 22.2323 123.698 22.6043 123.698C22.9643 123.698 23.2703 123.824 23.5223 124.076C23.7743 124.328 23.9003 124.64 23.9003 125.012C23.9003 125.384 23.7743 125.696 23.5223 125.948C23.2703 126.2 22.9643 126.326 22.6043 126.326ZM23.6123 127.64V137.558H21.5603V127.64H23.6123ZM25.6224 132.59C25.6224 131.57 25.8264 130.676 26.2344 129.908C26.6544 129.128 27.2304 128.528 27.9624 128.108C28.6944 127.688 29.5344 127.478 30.4824 127.478C31.6824 127.478 32.6724 127.766 33.4524 128.342C34.2444 128.906 34.7784 129.716 35.0544 130.772H32.8404C32.6604 130.28 32.3724 129.896 31.9764 129.62C31.5804 129.344 31.0824 129.206 30.4824 129.206C29.6424 129.206 28.9704 129.506 28.4664 130.106C27.9744 130.694 27.7284 131.522 27.7284 132.59C27.7284 133.658 27.9744 134.492 28.4664 135.092C28.9704 135.692 29.6424 135.992 30.4824 135.992C31.6704 135.992 32.4564 135.47 32.8404 134.426H35.0544C34.7664 135.434 34.2264 136.238 33.4344 136.838C32.6424 137.426 31.6584 137.72 30.4824 137.72C29.5344 137.72 28.6944 137.51 27.9624 137.09C27.2304 136.658 26.6544 136.058 26.2344 135.29C25.8264 134.51 25.6224 133.61 25.6224 132.59ZM41.0233 132.608L45.5953 137.558H42.8233L39.1513 133.292V137.558H37.0993V124.238H39.1513V131.978L42.7513 127.64H45.5953L41.0233 132.608ZM56.8719 127.478C57.6279 127.478 58.2999 127.64 58.8879 127.964C59.4879 128.288 59.9559 128.768 60.2919 129.404C60.6399 130.04 60.8139 130.808 60.8139 131.708V137.558H58.7799V132.014C58.7799 131.126 58.5579 130.448 58.1139 129.98C57.6699 129.5 57.0639 129.26 56.2959 129.26C55.5279 129.26 54.9159 129.5 54.4599 129.98C54.0159 130.448 53.7939 131.126 53.7939 132.014V137.558H51.7419V124.238H53.7939V128.792C54.1419 128.372 54.5799 128.048 55.1079 127.82C55.6479 127.592 56.2359 127.478 56.8719 127.478ZM72.5214 132.356C72.5214 132.728 72.4974 133.064 72.4494 133.364H64.8714C64.9314 134.156 65.2254 134.792 65.7534 135.272C66.2814 135.752 66.9294 135.992 67.6974 135.992C68.8014 135.992 69.5814 135.53 70.0374 134.606H72.2514C71.9514 135.518 71.4054 136.268 70.6134 136.856C69.8334 137.432 68.8614 137.72 67.6974 137.72C66.7494 137.72 65.8974 137.51 65.1414 137.09C64.3974 136.658 63.8094 136.058 63.3774 135.29C62.9574 134.51 62.7474 133.61 62.7474 132.59C62.7474 131.57 62.9514 130.676 63.3594 129.908C63.7794 129.128 64.3614 128.528 65.1054 128.108C65.8614 127.688 66.7254 127.478 67.6974 127.478C68.6334 127.478 69.4674 127.682 70.1994 128.09C70.9314 128.498 71.5014 129.074 71.9094 129.818C72.3174 130.55 72.5214 131.396 72.5214 132.356ZM70.3794 131.708C70.3674 130.952 70.0974 130.346 69.5694 129.89C69.0414 129.434 68.3874 129.206 67.6074 129.206C66.8994 129.206 66.2934 129.434 65.7894 129.89C65.2854 130.334 64.9854 130.94 64.8894 131.708H70.3794ZM76.5927 129.08C76.8927 128.576 77.2887 128.186 77.7807 127.91C78.2847 127.622 78.8787 127.478 79.5627 127.478V129.602H79.0407C78.2367 129.602 77.6247 129.806 77.2047 130.214C76.7967 130.622 76.5927 131.33 76.5927 132.338V137.558H74.5407V127.64H76.5927V129.08ZM90.5389 132.356C90.5389 132.728 90.5149 133.064 90.4669 133.364H82.8889C82.9489 134.156 83.2429 134.792 83.7709 135.272C84.2989 135.752 84.9469 135.992 85.7149 135.992C86.8189 135.992 87.5989 135.53 88.0549 134.606H90.2689C89.9689 135.518 89.4229 136.268 88.6309 136.856C87.8509 137.432 86.8789 137.72 85.7149 137.72C84.7669 137.72 83.9149 137.51 83.1589 137.09C82.4149 136.658 81.8269 136.058 81.3949 135.29C80.9749 134.51 80.7649 133.61 80.7649 132.59C80.7649 131.57 80.9689 130.676 81.3769 129.908C81.7969 129.128 82.3789 128.528 83.1229 128.108C83.8789 127.688 84.7429 127.478 85.7149 127.478C86.6509 127.478 87.4849 127.682 88.2169 128.09C88.9489 128.498 89.5189 129.074 89.9269 129.818C90.3349 130.55 90.5389 131.396 90.5389 132.356ZM88.3969 131.708C88.3849 130.952 88.1149 130.346 87.5869 129.89C87.0589 129.434 86.4049 129.206 85.6249 129.206C84.9169 129.206 84.3109 129.434 83.8069 129.89C83.3029 130.334 83.0029 130.94 82.9069 131.708H88.3969ZM99.6281 129.314V134.804C99.6281 135.176 99.7121 135.446 99.8801 135.614C100.06 135.77 100.36 135.848 100.78 135.848H102.04V137.558H100.42C99.4961 137.558 98.7881 137.342 98.2961 136.91C97.8041 136.478 97.5581 135.776 97.5581 134.804V129.314H96.3881V127.64H97.5581V125.174H99.6281V127.64H102.04V129.314H99.6281ZM108.233 137.72C107.297 137.72 106.451 137.51 105.695 137.09C104.939 136.658 104.345 136.058 103.913 135.29C103.481 134.51 103.265 133.61 103.265 132.59C103.265 131.582 103.487 130.688 103.931 129.908C104.375 129.128 104.981 128.528 105.749 128.108C106.517 127.688 107.375 127.478 108.323 127.478C109.271 127.478 110.129 127.688 110.897 128.108C111.665 128.528 112.271 129.128 112.715 129.908C113.159 130.688 113.381 131.582 113.381 132.59C113.381 133.598 113.153 134.492 112.697 135.272C112.241 136.052 111.617 136.658 110.825 137.09C110.045 137.51 109.181 137.72 108.233 137.72ZM108.233 135.938C108.761 135.938 109.253 135.812 109.709 135.56C110.177 135.308 110.555 134.93 110.843 134.426C111.131 133.922 111.275 133.31 111.275 132.59C111.275 131.87 111.137 131.264 110.861 130.772C110.585 130.268 110.219 129.89 109.763 129.638C109.307 129.386 108.815 129.26 108.287 129.26C107.759 129.26 107.267 129.386 106.811 129.638C106.367 129.89 106.013 130.268 105.749 130.772C105.485 131.264 105.353 131.87 105.353 132.59C105.353 133.658 105.623 134.486 106.163 135.074C106.715 135.65 107.405 135.938 108.233 135.938ZM129.068 127.64V137.558H127.016V136.388C126.692 136.796 126.266 137.12 125.738 137.36C125.222 137.588 124.67 137.702 124.082 137.702C123.302 137.702 122.6 137.54 121.976 137.216C121.364 136.892 120.878 136.412 120.518 135.776C120.17 135.14 119.996 134.372 119.996 133.472V127.64H122.03V133.166C122.03 134.054 122.252 134.738 122.696 135.218C123.14 135.686 123.746 135.92 124.514 135.92C125.282 135.92 125.888 135.686 126.332 135.218C126.788 134.738 127.016 134.054 127.016 133.166V127.64H129.068ZM133.827 129.098C134.175 128.642 134.649 128.258 135.249 127.946C135.849 127.634 136.527 127.478 137.283 127.478C138.147 127.478 138.933 127.694 139.641 128.126C140.361 128.546 140.925 129.14 141.333 129.908C141.741 130.676 141.945 131.558 141.945 132.554C141.945 133.55 141.741 134.444 141.333 135.236C140.925 136.016 140.361 136.628 139.641 137.072C138.933 137.504 138.147 137.72 137.283 137.72C136.527 137.72 135.855 137.57 135.267 137.27C134.679 136.958 134.199 136.574 133.827 136.118V142.274H131.775V127.64H133.827V129.098ZM139.857 132.554C139.857 131.87 139.713 131.282 139.425 130.79C139.149 130.286 138.777 129.908 138.309 129.656C137.853 129.392 137.361 129.26 136.833 129.26C136.317 129.26 135.825 129.392 135.357 129.656C134.901 129.92 134.529 130.304 134.241 130.808C133.965 131.312 133.827 131.906 133.827 132.59C133.827 133.274 133.965 133.874 134.241 134.39C134.529 134.894 134.901 135.278 135.357 135.542C135.825 135.806 136.317 135.938 136.833 135.938C137.361 135.938 137.853 135.806 138.309 135.542C138.777 135.266 139.149 134.87 139.425 134.354C139.713 133.838 139.857 133.238 139.857 132.554ZM146.026 124.238V137.558H143.974V124.238H146.026ZM153.022 137.72C152.086 137.72 151.24 137.51 150.484 137.09C149.728 136.658 149.134 136.058 148.702 135.29C148.27 134.51 148.054 133.61 148.054 132.59C148.054 131.582 148.276 130.688 148.72 129.908C149.164 129.128 149.77 128.528 150.538 128.108C151.306 127.688 152.164 127.478 153.112 127.478C154.06 127.478 154.918 127.688 155.686 128.108C156.454 128.528 157.06 129.128 157.504 129.908C157.948 130.688 158.17 131.582 158.17 132.59C158.17 133.598 157.942 134.492 157.486 135.272C157.03 136.052 156.406 136.658 155.614 137.09C154.834 137.51 153.97 137.72 153.022 137.72ZM153.022 135.938C153.55 135.938 154.042 135.812 154.498 135.56C154.966 135.308 155.344 134.93 155.632 134.426C155.92 133.922 156.064 133.31 156.064 132.59C156.064 131.87 155.926 131.264 155.65 130.772C155.374 130.268 155.008 129.89 154.552 129.638C154.096 129.386 153.604 129.26 153.076 129.26C152.548 129.26 152.056 129.386 151.6 129.638C151.156 129.89 150.802 130.268 150.538 130.772C150.274 131.264 150.142 131.87 150.142 132.59C150.142 133.658 150.412 134.486 150.952 135.074C151.504 135.65 152.194 135.938 153.022 135.938ZM159.515 132.554C159.515 131.558 159.719 130.676 160.127 129.908C160.547 129.14 161.111 128.546 161.819 128.126C162.539 127.694 163.331 127.478 164.195 127.478C164.975 127.478 165.653 127.634 166.229 127.946C166.817 128.246 167.285 128.624 167.633 129.08V127.64H169.703V137.558H167.633V136.082C167.285 136.55 166.811 136.94 166.211 137.252C165.611 137.564 164.927 137.72 164.159 137.72C163.307 137.72 162.527 137.504 161.819 137.072C161.111 136.628 160.547 136.016 160.127 135.236C159.719 134.444 159.515 133.55 159.515 132.554ZM167.633 132.59C167.633 131.906 167.489 131.312 167.201 130.808C166.925 130.304 166.559 129.92 166.103 129.656C165.647 129.392 165.155 129.26 164.627 129.26C164.099 129.26 163.607 129.392 163.151 129.656C162.695 129.908 162.323 130.286 162.035 130.79C161.759 131.282 161.621 131.87 161.621 132.554C161.621 133.238 161.759 133.838 162.035 134.354C162.323 134.87 162.695 135.266 163.151 135.542C163.619 135.806 164.111 135.938 164.627 135.938C165.155 135.938 165.647 135.806 166.103 135.542C166.559 135.278 166.925 134.894 167.201 134.39C167.489 133.874 167.633 133.274 167.633 132.59ZM171.714 132.554C171.714 131.558 171.918 130.676 172.326 129.908C172.746 129.14 173.31 128.546 174.018 128.126C174.738 127.694 175.536 127.478 176.412 127.478C177.06 127.478 177.696 127.622 178.32 127.91C178.956 128.186 179.46 128.558 179.832 129.026V124.238H181.902V137.558H179.832V136.064C179.496 136.544 179.028 136.94 178.428 137.252C177.84 137.564 177.162 137.72 176.394 137.72C175.53 137.72 174.738 137.504 174.018 137.072C173.31 136.628 172.746 136.016 172.326 135.236C171.918 134.444 171.714 133.55 171.714 132.554ZM179.832 132.59C179.832 131.906 179.688 131.312 179.4 130.808C179.124 130.304 178.758 129.92 178.302 129.656C177.846 129.392 177.354 129.26 176.826 129.26C176.298 129.26 175.806 129.392 175.35 129.656C174.894 129.908 174.522 130.286 174.234 130.79C173.958 131.282 173.82 131.87 173.82 132.554C173.82 133.238 173.958 133.838 174.234 134.354C174.522 134.87 174.894 135.266 175.35 135.542C175.818 135.806 176.31 135.938 176.826 135.938C177.354 135.938 177.846 135.806 178.302 135.542C178.758 135.278 179.124 134.894 179.4 134.39C179.688 133.874 179.832 133.274 179.832 132.59ZM18.5615 152.64L12.4775 167.22H10.3535L12.3695 162.396L8.46352 152.64H10.7495L13.5395 160.2L16.4375 152.64H18.5615ZM24.4121 162.72C23.4761 162.72 22.6301 162.51 21.8741 162.09C21.1181 161.658 20.5241 161.058 20.0921 160.29C19.6601 159.51 19.4441 158.61 19.4441 157.59C19.4441 156.582 19.6661 155.688 20.1101 154.908C20.5541 154.128 21.1601 153.528 21.9281 153.108C22.6961 152.688 23.5541 152.478 24.5021 152.478C25.4501 152.478 26.3081 152.688 27.0761 153.108C27.8441 153.528 28.4501 154.128 28.8941 154.908C29.3381 155.688 29.5601 156.582 29.5601 157.59C29.5601 158.598 29.3321 159.492 28.8761 160.272C28.4201 161.052 27.7961 161.658 27.0041 162.09C26.2241 162.51 25.3601 162.72 24.4121 162.72ZM24.4121 160.938C24.9401 160.938 25.4321 160.812 25.8881 160.56C26.3561 160.308 26.7341 159.93 27.0221 159.426C27.3101 158.922 27.4541 158.31 27.4541 157.59C27.4541 156.87 27.3161 156.264 27.0401 155.772C26.7641 155.268 26.3981 154.89 25.9421 154.638C25.4861 154.386 24.9941 154.26 24.4661 154.26C23.9381 154.26 23.4461 154.386 22.9901 154.638C22.5461 154.89 22.1921 155.268 21.9281 155.772C21.6641 156.264 21.5321 156.87 21.5321 157.59C21.5321 158.658 21.8021 159.486 22.3421 160.074C22.8941 160.65 23.5841 160.938 24.4121 160.938ZM40.5706 152.64V162.558H38.5186V161.388C38.1946 161.796 37.7686 162.12 37.2406 162.36C36.7246 162.588 36.1726 162.702 35.5846 162.702C34.8046 162.702 34.1026 162.54 33.4786 162.216C32.8666 161.892 32.3806 161.412 32.0206 160.776C31.6726 160.14 31.4986 159.372 31.4986 158.472V152.64H33.5326V158.166C33.5326 159.054 33.7546 159.738 34.1986 160.218C34.6426 160.686 35.2486 160.92 36.0166 160.92C36.7846 160.92 37.3906 160.686 37.8346 160.218C38.2906 159.738 38.5186 159.054 38.5186 158.166V152.64H40.5706ZM45.33 154.08C45.63 153.576 46.026 153.186 46.518 152.91C47.022 152.622 47.616 152.478 48.3 152.478V154.602H47.778C46.974 154.602 46.362 154.806 45.942 155.214C45.534 155.622 45.33 156.33 45.33 157.338V162.558H43.278V152.64H45.33V154.08ZM63.61 153.774C63.61 154.41 63.46 155.01 63.16 155.574C62.86 156.138 62.38 156.6 61.72 156.96C61.06 157.308 60.214 157.482 59.182 157.482H56.914V162.558H54.862V150.048H59.182C60.142 150.048 60.952 150.216 61.612 150.552C62.284 150.876 62.782 151.32 63.106 151.884C63.442 152.448 63.61 153.078 63.61 153.774ZM59.182 155.808C59.962 155.808 60.544 155.634 60.928 155.286C61.312 154.926 61.504 154.422 61.504 153.774C61.504 152.406 60.73 151.722 59.182 151.722H56.914V155.808H59.182ZM67.6191 154.08C67.9191 153.576 68.3151 153.186 68.8071 152.91C69.3111 152.622 69.9051 152.478 70.5891 152.478V154.602H70.0671C69.2631 154.602 68.6511 154.806 68.2311 155.214C67.8231 155.622 67.6191 156.33 67.6191 157.338V162.558H65.5671V152.64H67.6191V154.08ZM76.7773 162.72C75.8413 162.72 74.9953 162.51 74.2393 162.09C73.4833 161.658 72.8893 161.058 72.4573 160.29C72.0253 159.51 71.8093 158.61 71.8093 157.59C71.8093 156.582 72.0313 155.688 72.4753 154.908C72.9193 154.128 73.5253 153.528 74.2933 153.108C75.0613 152.688 75.9193 152.478 76.8673 152.478C77.8153 152.478 78.6733 152.688 79.4413 153.108C80.2093 153.528 80.8153 154.128 81.2593 154.908C81.7033 155.688 81.9253 156.582 81.9253 157.59C81.9253 158.598 81.6973 159.492 81.2413 160.272C80.7853 161.052 80.1613 161.658 79.3693 162.09C78.5893 162.51 77.7253 162.72 76.7773 162.72ZM76.7773 160.938C77.3053 160.938 77.7973 160.812 78.2533 160.56C78.7213 160.308 79.0993 159.93 79.3873 159.426C79.6753 158.922 79.8193 158.31 79.8193 157.59C79.8193 156.87 79.6813 156.264 79.4053 155.772C79.1293 155.268 78.7633 154.89 78.3073 154.638C77.8513 154.386 77.3593 154.26 76.8313 154.26C76.3033 154.26 75.8113 154.386 75.3553 154.638C74.9113 154.89 74.5573 155.268 74.2933 155.772C74.0293 156.264 73.8973 156.87 73.8973 157.59C73.8973 158.658 74.1673 159.486 74.7073 160.074C75.2593 160.65 75.9493 160.938 76.7773 160.938ZM88.1118 154.314H86.2758V162.558H84.2058V154.314H83.0358V152.64H84.2058V151.938C84.2058 150.798 84.5058 149.97 85.1058 149.454C85.7178 148.926 86.6718 148.662 87.9678 148.662V150.372C87.3438 150.372 86.9058 150.492 86.6538 150.732C86.4018 150.96 86.2758 151.362 86.2758 151.938V152.64H88.1118V154.314ZM90.9744 151.326C90.6024 151.326 90.2904 151.2 90.0384 150.948C89.7864 150.696 89.6604 150.384 89.6604 150.012C89.6604 149.64 89.7864 149.328 90.0384 149.076C90.2904 148.824 90.6024 148.698 90.9744 148.698C91.3344 148.698 91.6404 148.824 91.8924 149.076C92.1444 149.328 92.2704 149.64 92.2704 150.012C92.2704 150.384 92.1444 150.696 91.8924 150.948C91.6404 151.2 91.3344 151.326 90.9744 151.326ZM91.9824 152.64V162.558H89.9304V152.64H91.9824ZM96.7285 149.238V162.558H94.6765V149.238H96.7285ZM108.513 157.356C108.513 157.728 108.489 158.064 108.441 158.364H100.863C100.923 159.156 101.217 159.792 101.745 160.272C102.273 160.752 102.921 160.992 103.689 160.992C104.793 160.992 105.573 160.53 106.029 159.606H108.243C107.943 160.518 107.397 161.268 106.605 161.856C105.825 162.432 104.853 162.72 103.689 162.72C102.741 162.72 101.889 162.51 101.133 162.09C100.389 161.658 99.8006 161.058 99.3686 160.29C98.9486 159.51 98.7386 158.61 98.7386 157.59C98.7386 156.57 98.9426 155.676 99.3506 154.908C99.7706 154.128 100.353 153.528 101.097 153.108C101.853 152.688 102.717 152.478 103.689 152.478C104.625 152.478 105.459 152.682 106.191 153.09C106.923 153.498 107.493 154.074 107.901 154.818C108.309 155.55 108.513 156.396 108.513 157.356ZM106.371 156.708C106.359 155.952 106.089 155.346 105.561 154.89C105.033 154.434 104.379 154.206 103.599 154.206C102.891 154.206 102.285 154.434 101.781 154.89C101.277 155.334 100.977 155.94 100.881 156.708H106.371ZM123.956 153.774C123.956 154.41 123.806 155.01 123.506 155.574C123.206 156.138 122.726 156.6 122.066 156.96C121.406 157.308 120.56 157.482 119.528 157.482H117.26V162.558H115.208V150.048H119.528C120.488 150.048 121.298 150.216 121.958 150.552C122.63 150.876 123.128 151.32 123.452 151.884C123.788 152.448 123.956 153.078 123.956 153.774ZM119.528 155.808C120.308 155.808 120.89 155.634 121.274 155.286C121.658 154.926 121.85 154.422 121.85 153.774C121.85 152.406 121.076 151.722 119.528 151.722H117.26V155.808H119.528ZM126.957 151.326C126.585 151.326 126.273 151.2 126.021 150.948C125.769 150.696 125.643 150.384 125.643 150.012C125.643 149.64 125.769 149.328 126.021 149.076C126.273 148.824 126.585 148.698 126.957 148.698C127.317 148.698 127.623 148.824 127.875 149.076C128.127 149.328 128.253 149.64 128.253 150.012C128.253 150.384 128.127 150.696 127.875 150.948C127.623 151.2 127.317 151.326 126.957 151.326ZM127.965 152.64V162.558H125.913V152.64H127.965ZM129.975 157.59C129.975 156.57 130.179 155.676 130.587 154.908C131.007 154.128 131.583 153.528 132.315 153.108C133.047 152.688 133.887 152.478 134.835 152.478C136.035 152.478 137.025 152.766 137.805 153.342C138.597 153.906 139.131 154.716 139.407 155.772H137.193C137.013 155.28 136.725 154.896 136.329 154.62C135.933 154.344 135.435 154.206 134.835 154.206C133.995 154.206 133.323 154.506 132.819 155.106C132.327 155.694 132.081 156.522 132.081 157.59C132.081 158.658 132.327 159.492 132.819 160.092C133.323 160.692 133.995 160.992 134.835 160.992C136.023 160.992 136.809 160.47 137.193 159.426H139.407C139.119 160.434 138.579 161.238 137.787 161.838C136.995 162.426 136.011 162.72 134.835 162.72C133.887 162.72 133.047 162.51 132.315 162.09C131.583 161.658 131.007 161.058 130.587 160.29C130.179 159.51 129.975 158.61 129.975 157.59ZM143.846 154.314V159.804C143.846 160.176 143.93 160.446 144.098 160.614C144.278 160.77 144.578 160.848 144.998 160.848H146.258V162.558H144.638C143.714 162.558 143.006 162.342 142.514 161.91C142.022 161.478 141.776 160.776 141.776 159.804V154.314H140.606V152.64H141.776V150.174H143.846V152.64H146.258V154.314H143.846ZM157.131 152.64V162.558H155.079V161.388C154.755 161.796 154.329 162.12 153.801 162.36C153.285 162.588 152.733 162.702 152.145 162.702C151.365 162.702 150.663 162.54 150.039 162.216C149.427 161.892 148.941 161.412 148.581 160.776C148.233 160.14 148.059 159.372 148.059 158.472V152.64H150.093V158.166C150.093 159.054 150.315 159.738 150.759 160.218C151.203 160.686 151.809 160.92 152.577 160.92C153.345 160.92 153.951 160.686 154.395 160.218C154.851 159.738 155.079 159.054 155.079 158.166V152.64H157.131ZM161.891 154.08C162.191 153.576 162.587 153.186 163.079 152.91C163.583 152.622 164.177 152.478 164.861 152.478V154.602H164.339C163.535 154.602 162.923 154.806 162.503 155.214C162.095 155.622 161.891 156.33 161.891 157.338V162.558H159.839V152.64H161.891V154.08ZM175.837 157.356C175.837 157.728 175.813 158.064 175.765 158.364H168.187C168.247 159.156 168.541 159.792 169.069 160.272C169.597 160.752 170.245 160.992 171.013 160.992C172.117 160.992 172.897 160.53 173.353 159.606H175.567C175.267 160.518 174.721 161.268 173.929 161.856C173.149 162.432 172.177 162.72 171.013 162.72C170.065 162.72 169.213 162.51 168.457 162.09C167.713 161.658 167.125 161.058 166.693 160.29C166.273 159.51 166.063 158.61 166.063 157.59C166.063 156.57 166.267 155.676 166.675 154.908C167.095 154.128 167.677 153.528 168.421 153.108C169.177 152.688 170.041 152.478 171.013 152.478C171.949 152.478 172.783 152.682 173.515 153.09C174.247 153.498 174.817 154.074 175.225 154.818C175.633 155.55 175.837 156.396 175.837 157.356ZM173.695 156.708C173.683 155.952 173.413 155.346 172.885 154.89C172.357 154.434 171.703 154.206 170.923 154.206C170.215 154.206 169.609 154.434 169.105 154.89C168.601 155.334 168.301 155.94 168.205 156.708H173.695Z" fill="#BDBDBD"/>
<path d="M92.3939 8.06665C72.291 8.06665 55.3105 25.2379 55.3105 45.5667C55.3105 65.8954 72.291 83.0667 92.3939 83.0667C112.497 83.0667 129.477 65.8954 129.477 45.5667C129.477 25.2379 112.497 8.06665 92.3939 8.06665ZM92.3939 26.8167C98.7982 26.8167 103.519 31.5867 103.519 38.0667C103.519 44.5466 98.7982 49.3167 92.3939 49.3167C85.9933 49.3167 81.2689 44.5466 81.2689 38.0667C81.2689 31.5867 85.9933 26.8167 92.3939 26.8167ZM73.4591 63.4616C76.7855 58.5116 82.3332 55.2116 88.6855 55.2116H96.1022C102.458 55.2116 108.002 58.5116 111.329 63.4616C106.589 68.5916 99.8662 71.8167 92.3939 71.8167C84.9216 71.8167 78.1984 68.5916 73.4591 63.4616Z" fill="#BDBDBD"/>
</svg>
