<svg width="58" height="57" viewBox="0 0 58 57" fill="none" xmlns="http://www.w3.org/2000/svg">
<path d="M7.03841 56.6638H51.3717C53.0514 56.6638 54.6624 56.0053 55.8501 54.8332C57.0378 53.6611 57.7051 52.0714 57.7051 50.4138V6.66382C57.7051 5.00622 57.0378 3.4165 55.8501 2.2444C54.6624 1.0723 53.0514 0.413818 51.3717 0.413818H7.03841C5.35871 0.413818 3.7478 1.0723 2.56007 2.2444C1.37234 3.4165 0.705078 5.00622 0.705078 6.66382V50.4138C0.705078 52.0714 1.37234 53.6611 2.56007 54.8332C3.7478 56.0053 5.35871 56.6638 7.03841 56.6638ZM16.5384 34.7888L24.0212 42.1732L35.5384 25.4138L51.3717 47.2888H7.03841L16.5384 34.7888Z" fill="#BDBDBD"/>
</svg>
