<svg width="100" height="95" viewBox="0 0 100 95" fill="none" xmlns="http://www.w3.org/2000/svg">
<path d="M8.61731 81.0561H3.65731L2.71331 83.6641H1.14531L5.32131 72.5921H6.96931L11.1293 83.6641H9.56131L8.61731 81.0561ZM8.20131 79.9201L6.13731 74.2241L4.07331 79.9201H8.20131ZM16.2031 74.7681C17.0564 74.7681 17.7764 74.9814 18.3631 75.4081C18.9604 75.8347 19.3764 76.4054 19.6111 77.1201V71.8241H21.0671V83.6641H19.6111V81.4241C19.3764 82.1387 18.9604 82.7094 18.3631 83.1361C17.7764 83.5627 17.0564 83.7761 16.2031 83.7761C15.4244 83.7761 14.7311 83.5947 14.1231 83.2321C13.5151 82.8694 13.0351 82.3521 12.6831 81.6801C12.3417 80.9974 12.1711 80.1974 12.1711 79.2801C12.1711 78.3627 12.3417 77.5627 12.6831 76.8801C13.0351 76.1974 13.5151 75.6747 14.1231 75.3121C14.7311 74.9494 15.4244 74.7681 16.2031 74.7681ZM16.6191 76.0641C15.7231 76.0641 15.0031 76.3521 14.4591 76.9281C13.9257 77.4934 13.6591 78.2774 13.6591 79.2801C13.6591 80.2827 13.9257 81.0721 14.4591 81.6481C15.0031 82.2134 15.7231 82.4961 16.6191 82.4961C17.1951 82.4961 17.7071 82.3627 18.1551 82.0961C18.6137 81.8294 18.9711 81.4561 19.2271 80.9761C19.4831 80.4854 19.6111 79.9201 19.6111 79.2801C19.6111 78.6401 19.4831 78.0747 19.2271 77.5841C18.9711 77.0934 18.6137 76.7201 18.1551 76.4641C17.7071 76.1974 17.1951 76.0641 16.6191 76.0641ZM26.9843 74.7681C27.8376 74.7681 28.5576 74.9814 29.1443 75.4081C29.7416 75.8347 30.1576 76.4054 30.3923 77.1201V71.8241H31.8483V83.6641H30.3923V81.4241C30.1576 82.1387 29.7416 82.7094 29.1443 83.1361C28.5576 83.5627 27.8376 83.7761 26.9843 83.7761C26.2056 83.7761 25.5123 83.5947 24.9043 83.2321C24.2963 82.8694 23.8163 82.3521 23.4643 81.6801C23.123 80.9974 22.9523 80.1974 22.9523 79.2801C22.9523 78.3627 23.123 77.5627 23.4643 76.8801C23.8163 76.1974 24.2963 75.6747 24.9043 75.3121C25.5123 74.9494 26.2056 74.7681 26.9843 74.7681ZM27.4003 76.0641C26.5043 76.0641 25.7843 76.3521 25.2403 76.9281C24.707 77.4934 24.4403 78.2774 24.4403 79.2801C24.4403 80.2827 24.707 81.0721 25.2403 81.6481C25.7843 82.2134 26.5043 82.4961 27.4003 82.4961C27.9763 82.4961 28.4883 82.3627 28.9363 82.0961C29.395 81.8294 29.7523 81.4561 30.0083 80.9761C30.2643 80.4854 30.3923 79.9201 30.3923 79.2801C30.3923 78.6401 30.2643 78.0747 30.0083 77.5841C29.7523 77.0934 29.395 76.7201 28.9363 76.4641C28.4883 76.1974 27.9763 76.0641 27.4003 76.0641ZM41.7187 74.7681C42.572 74.7681 43.292 74.9814 43.8787 75.4081C44.476 75.8347 44.892 76.4054 45.1267 77.1201V74.8801H46.5827V83.6641H45.1267V81.4241C44.892 82.1387 44.476 82.7094 43.8787 83.1361C43.292 83.5627 42.572 83.7761 41.7187 83.7761C40.94 83.7761 40.2467 83.5947 39.6387 83.2321C39.0307 82.8694 38.5507 82.3521 38.1987 81.6801C37.8574 80.9974 37.6867 80.1974 37.6867 79.2801C37.6867 78.3627 37.8574 77.5627 38.1987 76.8801C38.5507 76.1974 39.0307 75.6747 39.6387 75.3121C40.2467 74.9494 40.94 74.7681 41.7187 74.7681ZM42.1347 76.0641C41.2387 76.0641 40.5187 76.3521 39.9747 76.9281C39.4414 77.4934 39.1747 78.2774 39.1747 79.2801C39.1747 80.2827 39.4414 81.0721 39.9747 81.6481C40.5187 82.2134 41.2387 82.4961 42.1347 82.4961C42.7107 82.4961 43.2227 82.3627 43.6707 82.0961C44.1294 81.8294 44.4867 81.4561 44.7427 80.9761C44.9987 80.4854 45.1267 79.9201 45.1267 79.2801C45.1267 78.6401 44.9987 78.0747 44.7427 77.5841C44.4867 77.0934 44.1294 76.7201 43.6707 76.4641C43.2227 76.1974 42.7107 76.0641 42.1347 76.0641ZM57.7011 74.7681C58.4797 74.7681 59.1731 74.9494 59.7811 75.3121C60.3891 75.6747 60.8637 76.1974 61.2051 76.8801C61.5571 77.5627 61.7331 78.3627 61.7331 79.2801C61.7331 80.1974 61.5571 80.9974 61.2051 81.6801C60.8637 82.3521 60.3891 82.8694 59.7811 83.2321C59.1731 83.5947 58.4797 83.7761 57.7011 83.7761C56.8477 83.7761 56.1224 83.5627 55.5251 83.1361C54.9384 82.6987 54.5331 82.1281 54.3091 81.4241V87.8241H52.8531V74.8801H54.3091V77.1201C54.5331 76.4161 54.9384 75.8507 55.5251 75.4241C56.1224 74.9867 56.8477 74.7681 57.7011 74.7681ZM57.2851 76.0641C56.7197 76.0641 56.2077 76.1974 55.7491 76.4641C55.2904 76.7201 54.9331 77.0934 54.6771 77.5841C54.4211 78.0747 54.2931 78.6401 54.2931 79.2801C54.2931 79.9201 54.4211 80.4854 54.6771 80.9761C54.9331 81.4561 55.2904 81.8294 55.7491 82.0961C56.2077 82.3627 56.7197 82.4961 57.2851 82.4961C58.1917 82.4961 58.9117 82.2134 59.4451 81.6481C59.9891 81.0721 60.2611 80.2827 60.2611 79.2801C60.2611 78.2774 59.9891 77.4934 59.4451 76.9281C58.9117 76.3521 58.1917 76.0641 57.2851 76.0641ZM68.2583 74.7361C69.2823 74.7361 70.109 75.0667 70.7383 75.7281C71.3676 76.3787 71.6823 77.3227 71.6823 78.5601V83.6641H70.2263V78.6881C70.2263 77.8134 70.0023 77.1414 69.5543 76.6721C69.1063 76.2027 68.4983 75.9681 67.7303 75.9681C66.9303 75.9681 66.2903 76.2294 65.8103 76.7521C65.3303 77.2641 65.0903 78.0161 65.0903 79.0081V83.6641H63.6343V71.8241H65.0903V76.9601C65.3143 76.2454 65.709 75.6961 66.2743 75.3121C66.8503 74.9281 67.5116 74.7361 68.2583 74.7361ZM77.8996 74.7681C78.7422 74.7681 79.4942 74.9494 80.1556 75.3121C80.8276 75.6747 81.3502 76.1974 81.7236 76.8801C82.1076 77.5627 82.2996 78.3627 82.2996 79.2801C82.2996 80.1974 82.1076 80.9974 81.7236 81.6801C81.3502 82.3521 80.8276 82.8694 80.1556 83.2321C79.4942 83.5947 78.7422 83.7761 77.8996 83.7761C77.0569 83.7761 76.2996 83.5947 75.6276 83.2321C74.9662 82.8694 74.4436 82.3521 74.0596 81.6801C73.6756 80.9974 73.4836 80.1974 73.4836 79.2801C73.4836 78.3627 73.6756 77.5627 74.0596 76.8801C74.4436 76.1974 74.9662 75.6747 75.6276 75.3121C76.2996 74.9494 77.0569 74.7681 77.8996 74.7681ZM77.8996 76.0481C77.3769 76.0481 76.8916 76.1654 76.4436 76.4001C76.0062 76.6347 75.6489 76.9974 75.3716 77.4881C75.1049 77.9681 74.9716 78.5654 74.9716 79.2801C74.9716 79.9841 75.1049 80.5814 75.3716 81.0721C75.6489 81.5521 76.0062 81.9094 76.4436 82.1441C76.8916 82.3787 77.3769 82.4961 77.8996 82.4961C78.4222 82.4961 78.9022 82.3787 79.3396 82.1441C79.7876 81.9094 80.1449 81.5521 80.4116 81.0721C80.6889 80.5814 80.8276 79.9841 80.8276 79.2801C80.8276 78.5654 80.6889 77.9681 80.4116 77.4881C80.1449 76.9974 79.7876 76.6347 79.3396 76.4001C78.9022 76.1654 78.4222 76.0481 77.8996 76.0481ZM88.3888 82.3841V83.6641H87.3008C86.4048 83.6641 85.7328 83.4507 85.2848 83.0241C84.8475 82.5974 84.6288 81.8827 84.6288 80.8801V76.1441H83.3168V74.8801H84.6288V72.6881H86.1008V74.8801H88.3728V76.1441H86.1008V80.9121C86.1008 81.4774 86.2021 81.8667 86.4048 82.0801C86.6181 82.2827 86.9808 82.3841 87.4928 82.3841H88.3888ZM94.1496 74.7681C94.9922 74.7681 95.7442 74.9494 96.4056 75.3121C97.0776 75.6747 97.6002 76.1974 97.9736 76.8801C98.3576 77.5627 98.5496 78.3627 98.5496 79.2801C98.5496 80.1974 98.3576 80.9974 97.9736 81.6801C97.6002 82.3521 97.0776 82.8694 96.4056 83.2321C95.7442 83.5947 94.9922 83.7761 94.1496 83.7761C93.3069 83.7761 92.5496 83.5947 91.8776 83.2321C91.2162 82.8694 90.6936 82.3521 90.3096 81.6801C89.9256 80.9974 89.7336 80.1974 89.7336 79.2801C89.7336 78.3627 89.9256 77.5627 90.3096 76.8801C90.6936 76.1974 91.2162 75.6747 91.8776 75.3121C92.5496 74.9494 93.3069 74.7681 94.1496 74.7681ZM94.1496 76.0481C93.6269 76.0481 93.1416 76.1654 92.6936 76.4001C92.2562 76.6347 91.8989 76.9974 91.6216 77.4881C91.3549 77.9681 91.2216 78.5654 91.2216 79.2801C91.2216 79.9841 91.3549 80.5814 91.6216 81.0721C91.8989 81.5521 92.2562 81.9094 92.6936 82.1441C93.1416 82.3787 93.6269 82.4961 94.1496 82.4961C94.6722 82.4961 95.1522 82.3787 95.5896 82.1441C96.0376 81.9094 96.3949 81.5521 96.6616 81.0721C96.9389 80.5814 97.0776 79.9841 97.0776 79.2801C97.0776 78.5654 96.9389 77.9681 96.6616 77.4881C96.3949 76.9974 96.0376 76.6347 95.5896 76.4001C95.1522 76.1654 94.6722 76.0481 94.1496 76.0481Z" fill="#4F4F4F"/>
<path d="M66.9663 11.9668H61.1226L59.7304 8.06523C59.6342 7.79826 59.4579 7.56749 59.2257 7.40445C58.9934 7.24141 58.7165 7.15405 58.4327 7.1543H45.2499C44.6698 7.1543 44.1499 7.51953 43.9565 8.06523L42.5601 11.9668H36.7163C34.8171 11.9668 33.2788 13.5051 33.2788 15.4043V34.998C33.2788 36.8973 34.8171 38.4355 36.7163 38.4355H66.9663C68.8655 38.4355 70.4038 36.8973 70.4038 34.998V15.4043C70.4038 13.5051 68.8655 11.9668 66.9663 11.9668ZM51.8413 31.5605C48.0429 31.5605 44.9663 28.484 44.9663 24.6855C44.9663 20.8871 48.0429 17.8105 51.8413 17.8105C55.6397 17.8105 58.7163 20.8871 58.7163 24.6855C58.7163 28.484 55.6397 31.5605 51.8413 31.5605ZM47.7163 24.6855C47.7163 25.7796 48.1509 26.8288 48.9245 27.6024C49.6981 28.3759 50.7473 28.8105 51.8413 28.8105C52.9353 28.8105 53.9845 28.3759 54.7581 27.6024C55.5317 26.8288 55.9663 25.7796 55.9663 24.6855C55.9663 23.5915 55.5317 22.5423 54.7581 21.7687C53.9845 20.9951 52.9353 20.5605 51.8413 20.5605C50.7473 20.5605 49.6981 20.9951 48.9245 21.7687C48.1509 22.5423 47.7163 23.5915 47.7163 24.6855Z" fill="#4F4F4F"/>
</svg>
