<svg width="152" height="84" viewBox="0 0 152 84" fill="none" xmlns="http://www.w3.org/2000/svg">
<path d="M8.78659 75.3734H3.92259L3.02659 77.8534H1.49059L5.52259 66.7654H7.20259L11.2186 77.8534H9.68259L8.78659 75.3734ZM8.37059 74.1894L6.35459 68.5574L4.33859 74.1894H8.37059ZM12.4318 73.4374C12.4318 72.5414 12.6132 71.7574 12.9758 71.0854C13.3385 70.4027 13.8345 69.8747 14.4638 69.5014C15.1038 69.1281 15.8185 68.9414 16.6078 68.9414C17.2905 68.9414 17.9252 69.1014 18.5118 69.4214C19.0985 69.7307 19.5465 70.1414 19.8558 70.6534V66.0134H21.3278V77.8534H19.8558V76.2054C19.5678 76.7281 19.1412 77.1601 18.5758 77.5014C18.0105 77.8321 17.3492 77.9974 16.5918 77.9974C15.8132 77.9974 15.1038 77.8054 14.4638 77.4214C13.8345 77.0374 13.3385 76.4987 12.9758 75.8054C12.6132 75.1121 12.4318 74.3227 12.4318 73.4374ZM19.8558 73.4534C19.8558 72.7921 19.7225 72.2161 19.4558 71.7254C19.1892 71.2347 18.8265 70.8614 18.3678 70.6054C17.9198 70.3387 17.4238 70.2054 16.8798 70.2054C16.3358 70.2054 15.8398 70.3334 15.3918 70.5894C14.9438 70.8454 14.5865 71.2187 14.3198 71.7094C14.0532 72.2001 13.9198 72.7761 13.9198 73.4374C13.9198 74.1094 14.0532 74.6961 14.3198 75.1974C14.5865 75.6881 14.9438 76.0667 15.3918 76.3334C15.8398 76.5894 16.3358 76.7174 16.8798 76.7174C17.4238 76.7174 17.9198 76.5894 18.3678 76.3334C18.8265 76.0667 19.1892 75.6881 19.4558 75.1974C19.7225 74.6961 19.8558 74.1147 19.8558 73.4534ZM23.2443 73.4374C23.2443 72.5414 23.4257 71.7574 23.7883 71.0854C24.151 70.4027 24.647 69.8747 25.2763 69.5014C25.9163 69.1281 26.631 68.9414 27.4203 68.9414C28.103 68.9414 28.7377 69.1014 29.3243 69.4214C29.911 69.7307 30.359 70.1414 30.6683 70.6534V66.0134H32.1403V77.8534H30.6683V76.2054C30.3803 76.7281 29.9537 77.1601 29.3883 77.5014C28.823 77.8321 28.1617 77.9974 27.4043 77.9974C26.6257 77.9974 25.9163 77.8054 25.2763 77.4214C24.647 77.0374 24.151 76.4987 23.7883 75.8054C23.4257 75.1121 23.2443 74.3227 23.2443 73.4374ZM30.6683 73.4534C30.6683 72.7921 30.535 72.2161 30.2683 71.7254C30.0017 71.2347 29.639 70.8614 29.1803 70.6054C28.7323 70.3387 28.2363 70.2054 27.6923 70.2054C27.1483 70.2054 26.6523 70.3334 26.2043 70.5894C25.7563 70.8454 25.399 71.2187 25.1323 71.7094C24.8657 72.2001 24.7323 72.7761 24.7323 73.4374C24.7323 74.1094 24.8657 74.6961 25.1323 75.1974C25.399 75.6881 25.7563 76.0667 26.2043 76.3334C26.6523 76.5894 27.1483 76.7174 27.6923 76.7174C28.2363 76.7174 28.7323 76.5894 29.1803 76.3334C29.639 76.0667 30.0017 75.6881 30.2683 75.1974C30.535 74.6961 30.6683 74.1147 30.6683 73.4534ZM40.3225 70.7174C40.6211 70.1947 41.0585 69.7681 41.6345 69.4374C42.2105 69.1067 42.8665 68.9414 43.6025 68.9414C44.3918 68.9414 45.1011 69.1281 45.7305 69.5014C46.3598 69.8747 46.8558 70.4027 47.2185 71.0854C47.5811 71.7574 47.7625 72.5414 47.7625 73.4374C47.7625 74.3227 47.5811 75.1121 47.2185 75.8054C46.8558 76.4987 46.3545 77.0374 45.7145 77.4214C45.0851 77.8054 44.3811 77.9974 43.6025 77.9974C42.8451 77.9974 42.1785 77.8321 41.6025 77.5014C41.0371 77.1707 40.6105 76.7494 40.3225 76.2374V77.8534H38.8665V66.0134H40.3225V70.7174ZM46.2745 73.4374C46.2745 72.7761 46.1411 72.2001 45.8745 71.7094C45.6078 71.2187 45.2451 70.8454 44.7865 70.5894C44.3385 70.3334 43.8425 70.2054 43.2985 70.2054C42.7651 70.2054 42.2691 70.3387 41.8105 70.6054C41.3625 70.8614 40.9998 71.2401 40.7225 71.7414C40.4558 72.2321 40.3225 72.8027 40.3225 73.4534C40.3225 74.1147 40.4558 74.6961 40.7225 75.1974C40.9998 75.6881 41.3625 76.0667 41.8105 76.3334C42.2691 76.5894 42.7651 76.7174 43.2985 76.7174C43.8425 76.7174 44.3385 76.5894 44.7865 76.3334C45.2451 76.0667 45.6078 75.6881 45.8745 75.1974C46.1411 74.6961 46.2745 74.1094 46.2745 73.4374ZM49.135 73.4374C49.135 72.5414 49.3163 71.7574 49.679 71.0854C50.0416 70.4027 50.5376 69.8747 51.167 69.5014C51.807 69.1281 52.5163 68.9414 53.295 68.9414C54.063 68.9414 54.7296 69.1067 55.295 69.4374C55.8603 69.7681 56.2816 70.1841 56.559 70.6854V69.0854H58.031V77.8534H56.559V76.2214C56.271 76.7334 55.839 77.1601 55.263 77.5014C54.6976 77.8321 54.0363 77.9974 53.279 77.9974C52.5003 77.9974 51.7963 77.8054 51.167 77.4214C50.5376 77.0374 50.0416 76.4987 49.679 75.8054C49.3163 75.1121 49.135 74.3227 49.135 73.4374ZM56.559 73.4534C56.559 72.7921 56.4256 72.2161 56.159 71.7254C55.8923 71.2347 55.5296 70.8614 55.071 70.6054C54.623 70.3387 54.127 70.2054 53.583 70.2054C53.039 70.2054 52.543 70.3334 52.095 70.5894C51.647 70.8454 51.2896 71.2187 51.023 71.7094C50.7563 72.2001 50.623 72.7761 50.623 73.4374C50.623 74.1094 50.7563 74.6961 51.023 75.1974C51.2896 75.6881 51.647 76.0667 52.095 76.3334C52.543 76.5894 53.039 76.7174 53.583 76.7174C54.127 76.7174 54.623 76.5894 55.071 76.3334C55.5296 76.0667 55.8923 75.6881 56.159 75.1974C56.4256 74.6961 56.559 74.1147 56.559 73.4534ZM64.7635 68.9254C65.8301 68.9254 66.6941 69.2507 67.3555 69.9014C68.0168 70.5414 68.3475 71.4694 68.3475 72.6854V77.8534H66.9075V72.8934C66.9075 72.0187 66.6888 71.3521 66.2515 70.8934C65.8141 70.4241 65.2168 70.1894 64.4595 70.1894C63.6915 70.1894 63.0781 70.4294 62.6195 70.9094C62.1715 71.3894 61.9475 72.0881 61.9475 73.0054V77.8534H60.4915V69.0854H61.9475V70.3334C62.2355 69.8854 62.6248 69.5387 63.1155 69.2934C63.6168 69.0481 64.1661 68.9254 64.7635 68.9254ZM74.9978 68.9254C76.0645 68.9254 76.9285 69.2507 77.5898 69.9014C78.2512 70.5414 78.5818 71.4694 78.5818 72.6854V77.8534H77.1418V72.8934C77.1418 72.0187 76.9232 71.3521 76.4858 70.8934C76.0485 70.4241 75.4512 70.1894 74.6938 70.1894C73.9258 70.1894 73.3125 70.4294 72.8538 70.9094C72.4058 71.3894 72.1818 72.0881 72.1818 73.0054V77.8534H70.7258V69.0854H72.1818V70.3334C72.4698 69.8854 72.8592 69.5387 73.3498 69.2934C73.8512 69.0481 74.4005 68.9254 74.9978 68.9254ZM88.9602 73.1334C88.9602 73.4107 88.9442 73.7041 88.9122 74.0134H81.9042C81.9575 74.8774 82.2509 75.5547 82.7842 76.0454C83.3282 76.5254 83.9842 76.7654 84.7522 76.7654C85.3815 76.7654 85.9042 76.6214 86.3202 76.3334C86.7469 76.0347 87.0455 75.6401 87.2162 75.1494H88.7842C88.5495 75.9921 88.0802 76.6801 87.3762 77.2134C86.6722 77.7361 85.7975 77.9974 84.7522 77.9974C83.9202 77.9974 83.1735 77.8107 82.5122 77.4374C81.8615 77.0641 81.3495 76.5361 80.9762 75.8534C80.6029 75.1601 80.4162 74.3601 80.4162 73.4534C80.4162 72.5467 80.5975 71.7521 80.9602 71.0694C81.3229 70.3867 81.8295 69.8641 82.4802 69.5014C83.1415 69.1281 83.8989 68.9414 84.7522 68.9414C85.5842 68.9414 86.3202 69.1227 86.9602 69.4854C87.6002 69.8481 88.0909 70.3494 88.4322 70.9894C88.7842 71.6187 88.9602 72.3334 88.9602 73.1334ZM87.4562 72.8294C87.4562 72.2747 87.3335 71.8001 87.0882 71.4054C86.8429 71.0001 86.5069 70.6961 86.0802 70.4934C85.6642 70.2801 85.2002 70.1734 84.6882 70.1734C83.9522 70.1734 83.3229 70.4081 82.8002 70.8774C82.2882 71.3467 81.9949 71.9974 81.9202 72.8294H87.4562ZM92.3381 70.5094C92.5941 70.0081 92.9568 69.6187 93.4261 69.3414C93.9061 69.0641 94.4874 68.9254 95.1701 68.9254V70.4294H94.7861C93.1541 70.4294 92.3381 71.3147 92.3381 73.0854V77.8534H90.8821V69.0854H92.3381V70.5094ZM101.868 67.6614C101.591 67.6614 101.356 67.5654 101.164 67.3734C100.972 67.1814 100.876 66.9467 100.876 66.6694C100.876 66.3921 100.972 66.1574 101.164 65.9654C101.356 65.7734 101.591 65.6774 101.868 65.6774C102.135 65.6774 102.359 65.7734 102.54 65.9654C102.732 66.1574 102.828 66.3921 102.828 66.6694C102.828 66.9467 102.732 67.1814 102.54 67.3734C102.359 67.5654 102.135 67.6614 101.868 67.6614ZM102.572 69.0854V77.8534H101.116V69.0854H102.572ZM115.598 68.9254C116.281 68.9254 116.889 69.0694 117.422 69.3574C117.955 69.6347 118.377 70.0561 118.686 70.6214C118.995 71.1867 119.15 71.8747 119.15 72.6854V77.8534H117.71V72.8934C117.71 72.0187 117.491 71.3521 117.054 70.8934C116.627 70.4241 116.046 70.1894 115.31 70.1894C114.553 70.1894 113.95 70.4347 113.502 70.9254C113.054 71.4054 112.83 72.1041 112.83 73.0214V77.8534H111.39V72.8934C111.39 72.0187 111.171 71.3521 110.734 70.8934C110.307 70.4241 109.726 70.1894 108.99 70.1894C108.233 70.1894 107.63 70.4347 107.182 70.9254C106.734 71.4054 106.51 72.1041 106.51 73.0214V77.8534H105.054V69.0854H106.51V70.3494C106.798 69.8907 107.182 69.5387 107.662 69.2934C108.153 69.0481 108.691 68.9254 109.278 68.9254C110.014 68.9254 110.665 69.0907 111.23 69.4214C111.795 69.7521 112.217 70.2374 112.494 70.8774C112.739 70.2587 113.145 69.7787 113.71 69.4374C114.275 69.0961 114.905 68.9254 115.598 68.9254ZM120.994 73.4374C120.994 72.5414 121.176 71.7574 121.538 71.0854C121.901 70.4027 122.397 69.8747 123.026 69.5014C123.666 69.1281 124.376 68.9414 125.154 68.9414C125.922 68.9414 126.589 69.1067 127.154 69.4374C127.72 69.7681 128.141 70.1841 128.418 70.6854V69.0854H129.89V77.8534H128.418V76.2214C128.13 76.7334 127.698 77.1601 127.122 77.5014C126.557 77.8321 125.896 77.9974 125.138 77.9974C124.36 77.9974 123.656 77.8054 123.026 77.4214C122.397 77.0374 121.901 76.4987 121.538 75.8054C121.176 75.1121 120.994 74.3227 120.994 73.4374ZM128.418 73.4534C128.418 72.7921 128.285 72.2161 128.018 71.7254C127.752 71.2347 127.389 70.8614 126.93 70.6054C126.482 70.3387 125.986 70.2054 125.442 70.2054C124.898 70.2054 124.402 70.3334 123.954 70.5894C123.506 70.8454 123.149 71.2187 122.882 71.7094C122.616 72.2001 122.482 72.7761 122.482 73.4374C122.482 74.1094 122.616 74.6961 122.882 75.1974C123.149 75.6881 123.506 76.0667 123.954 76.3334C124.402 76.5894 124.898 76.7174 125.442 76.7174C125.986 76.7174 126.482 76.5894 126.93 76.3334C127.389 76.0667 127.752 75.6881 128.018 75.1974C128.285 74.6961 128.418 74.1147 128.418 73.4534ZM135.967 68.9414C136.724 68.9414 137.386 69.1067 137.951 69.4374C138.527 69.7681 138.954 70.1841 139.231 70.6854V69.0854H140.703V78.0454C140.703 78.8454 140.532 79.5547 140.191 80.1734C139.85 80.8027 139.359 81.2934 138.719 81.6454C138.09 81.9974 137.354 82.1734 136.511 82.1734C135.359 82.1734 134.399 81.9014 133.631 81.3574C132.863 80.8134 132.41 80.0721 132.271 79.1334H133.711C133.871 79.6667 134.202 80.0934 134.703 80.4134C135.204 80.7441 135.807 80.9094 136.511 80.9094C137.311 80.9094 137.962 80.6587 138.463 80.1574C138.975 79.6561 139.231 78.9521 139.231 78.0454V76.2054C138.943 76.7174 138.516 77.1441 137.951 77.4854C137.386 77.8267 136.724 77.9974 135.967 77.9974C135.188 77.9974 134.479 77.8054 133.839 77.4214C133.21 77.0374 132.714 76.4987 132.351 75.8054C131.988 75.1121 131.807 74.3227 131.807 73.4374C131.807 72.5414 131.988 71.7574 132.351 71.0854C132.714 70.4027 133.21 69.8747 133.839 69.5014C134.479 69.1281 135.188 68.9414 135.967 68.9414ZM139.231 73.4534C139.231 72.7921 139.098 72.2161 138.831 71.7254C138.564 71.2347 138.202 70.8614 137.743 70.6054C137.295 70.3387 136.799 70.2054 136.255 70.2054C135.711 70.2054 135.215 70.3334 134.767 70.5894C134.319 70.8454 133.962 71.2187 133.695 71.7094C133.428 72.2001 133.295 72.7761 133.295 73.4374C133.295 74.1094 133.428 74.6961 133.695 75.1974C133.962 75.6881 134.319 76.0667 134.767 76.3334C135.215 76.5894 135.711 76.7174 136.255 76.7174C136.799 76.7174 137.295 76.5894 137.743 76.3334C138.202 76.0667 138.564 75.6881 138.831 75.1974C139.098 74.6961 139.231 74.1147 139.231 73.4534ZM151.163 73.1334C151.163 73.4107 151.147 73.7041 151.115 74.0134H144.107C144.161 74.8774 144.454 75.5547 144.987 76.0454C145.531 76.5254 146.187 76.7654 146.955 76.7654C147.585 76.7654 148.107 76.6214 148.523 76.3334C148.95 76.0347 149.249 75.6401 149.419 75.1494H150.987C150.753 75.9921 150.283 76.6801 149.579 77.2134C148.875 77.7361 148.001 77.9974 146.955 77.9974C146.123 77.9974 145.377 77.8107 144.715 77.4374C144.065 77.0641 143.553 76.5361 143.179 75.8534C142.806 75.1601 142.619 74.3601 142.619 73.4534C142.619 72.5467 142.801 71.7521 143.163 71.0694C143.526 70.3867 144.033 69.8641 144.683 69.5014C145.345 69.1281 146.102 68.9414 146.955 68.9414C147.787 68.9414 148.523 69.1227 149.163 69.4854C149.803 69.8481 150.294 70.3494 150.635 70.9894C150.987 71.6187 151.163 72.3334 151.163 73.1334ZM149.659 72.8294C149.659 72.2747 149.537 71.8001 149.291 71.4054C149.046 71.0001 148.71 70.6961 148.283 70.4934C147.867 70.2801 147.403 70.1734 146.891 70.1734C146.155 70.1734 145.526 70.4081 145.003 70.8774C144.491 71.3467 144.198 71.9974 144.123 72.8294H149.659Z" fill="#828282"/>
<g clip-path="url(#clip0)">
<path d="M95.1501 40.6034H57.7751C55.3933 40.6034 53.4626 38.6727 53.4626 36.2909V10.4159C53.4626 8.03414 55.3933 6.10339 57.7751 6.10339H95.1501C97.5318 6.10339 99.4626 8.03414 99.4626 10.4159V36.2909C99.4626 38.6727 97.5318 40.6034 95.1501 40.6034ZM63.5251 11.1346C60.7464 11.1346 58.4938 13.3872 58.4938 16.1659C58.4938 18.9446 60.7464 21.1971 63.5251 21.1971C66.3038 21.1971 68.5563 18.9446 68.5563 16.1659C68.5563 13.3872 66.3038 11.1346 63.5251 11.1346ZM59.2126 34.8534H93.7126V24.7909L85.8499 16.9282C85.4289 16.5072 84.7463 16.5072 84.3252 16.9282L72.1501 29.1034L67.1624 24.1157C66.7414 23.6947 66.0588 23.6947 65.6377 24.1157L59.2126 30.5409V34.8534Z" fill="#828282"/>
</g>
<defs>
<clipPath id="clip0">
<rect width="46" height="46" fill="white" transform="translate(53.4626 0.353394)"/>
</clipPath>
</defs>
</svg>
