<svg width="19" height="19" viewBox="0 0 19 19" fill="none" xmlns="http://www.w3.org/2000/svg">
<g clip-path="url(#clip0)">
<path fill-rule="evenodd" clip-rule="evenodd" d="M4.37109 0.941406C4.52028 0.941406 4.66335 1.00067 4.76884 1.10616C4.87433 1.21165 4.93359 1.35472 4.93359 1.50391V2.06641C4.93359 2.21559 4.87433 2.35866 4.76884 2.46415C4.66335 2.56964 4.52028 2.62891 4.37109 2.62891C4.22191 2.62891 4.07884 2.56964 3.97335 2.46415C3.86786 2.35866 3.80859 2.21559 3.80859 2.06641V1.50391C3.80859 1.35472 3.86786 1.21165 3.97335 1.10616C4.07884 1.00067 4.22191 0.941406 4.37109 0.941406V0.941406ZM14.4961 0.941406C14.6453 0.941406 14.7884 1.00067 14.8938 1.10616C14.9993 1.21165 15.0586 1.35472 15.0586 1.50391V2.06641C15.0586 2.21559 14.9993 2.35866 14.8938 2.46415C14.7884 2.56964 14.6453 2.62891 14.4961 2.62891C14.3469 2.62891 14.2038 2.56964 14.0983 2.46415C13.9929 2.35866 13.9336 2.21559 13.9336 2.06641V1.50391C13.9336 1.35472 13.9929 1.21165 14.0983 1.10616C14.2038 1.00067 14.3469 0.941406 14.4961 0.941406V0.941406Z" fill="#828282"/>
<path d="M2.68359 2.06641C2.08686 2.06641 1.51456 2.30346 1.0926 2.72542C0.670647 3.14737 0.433594 3.71967 0.433594 4.31641L0.433594 5.44141H18.4336V4.31641C18.4336 3.71967 18.1965 3.14737 17.7746 2.72542C17.3526 2.30346 16.7803 2.06641 16.1836 2.06641H2.68359ZM18.4336 6.56641H0.433594V16.6914C0.433594 17.2881 0.670647 17.8604 1.0926 18.2824C1.51456 18.7044 2.08686 18.9414 2.68359 18.9414H16.1836C16.7803 18.9414 17.3526 18.7044 17.7746 18.2824C18.1965 17.8604 18.4336 17.2881 18.4336 16.6914V6.56641Z" fill="#828282"/>
</g>
<defs>
<clipPath id="clip0">
<rect width="18" height="18" fill="white" transform="translate(0.433594 0.941406)"/>
</clipPath>
</defs>
</svg>
