<svg width="19" height="19" viewBox="0 0 19 19" fill="none" xmlns="http://www.w3.org/2000/svg">
<path fill-rule="evenodd" clip-rule="evenodd" d="M4.55859 0.699219C4.70778 0.699219 4.85085 0.758482 4.95634 0.863971C5.06183 0.96946 5.12109 1.11253 5.12109 1.26172V1.82422C5.12109 1.9734 5.06183 2.11648 4.95634 2.22197C4.85085 2.32746 4.70778 2.38672 4.55859 2.38672C4.40941 2.38672 4.26634 2.32746 4.16085 2.22197C4.05536 2.11648 3.99609 1.9734 3.99609 1.82422V1.26172C3.99609 1.11253 4.05536 0.96946 4.16085 0.863971C4.26634 0.758482 4.40941 0.699219 4.55859 0.699219V0.699219ZM14.6836 0.699219C14.8328 0.699219 14.9759 0.758482 15.0813 0.863971C15.1868 0.96946 15.2461 1.11253 15.2461 1.26172V1.82422C15.2461 1.9734 15.1868 2.11648 15.0813 2.22197C14.9759 2.32746 14.8328 2.38672 14.6836 2.38672C14.5344 2.38672 14.3913 2.32746 14.2858 2.22197C14.1804 2.11648 14.1211 1.9734 14.1211 1.82422V1.26172C14.1211 1.11253 14.1804 0.96946 14.2858 0.863971C14.3913 0.758482 14.5344 0.699219 14.6836 0.699219V0.699219Z" fill="#2D9CDB"/>
<path d="M2.87109 1.82422C2.27436 1.82422 1.70206 2.06127 1.2801 2.48323C0.858147 2.90519 0.621094 3.47748 0.621094 4.07422L0.621094 5.19922H18.6211V4.07422C18.6211 3.47748 18.384 2.90519 17.9621 2.48323C17.5401 2.06127 16.9678 1.82422 16.3711 1.82422H2.87109ZM18.6211 6.32422H0.621094V16.4492C0.621094 17.046 0.858147 17.6183 1.2801 18.0402C1.70206 18.4622 2.27436 18.6992 2.87109 18.6992H16.3711C16.9678 18.6992 17.5401 18.4622 17.9621 18.0402C18.384 17.6183 18.6211 17.046 18.6211 16.4492V6.32422Z" fill="#2D9CDB"/>
</svg>
