<svg width="17" height="17" viewBox="0 0 17 17" fill="none" xmlns="http://www.w3.org/2000/svg">
<path d="M8.18433 9.52051C7.68987 9.52051 7.20652 9.37389 6.7954 9.09918C6.38428 8.82448 6.06385 8.43403 5.87463 7.97722C5.68541 7.5204 5.6359 7.01774 5.73236 6.53278C5.82883 6.04783 6.06693 5.60237 6.41656 5.25274C6.76619 4.90311 7.21165 4.66501 7.6966 4.56855C8.18155 4.47208 8.68422 4.52159 9.14104 4.71081C9.59785 4.90003 9.9883 5.22046 10.263 5.63158C10.5377 6.04271 10.6843 6.52606 10.6843 7.02051C10.6835 7.68331 10.4199 8.31873 9.95122 8.7874C9.48255 9.25607 8.84713 9.51972 8.18433 9.52051ZM8.18433 5.52051C7.88766 5.52051 7.59765 5.60848 7.35097 5.7733C7.1043 5.93813 6.91204 6.17239 6.79851 6.44648C6.68498 6.72057 6.65527 7.02217 6.71315 7.31314C6.77103 7.60412 6.91389 7.87139 7.12367 8.08117C7.33345 8.29095 7.60072 8.43381 7.89169 8.49169C8.18266 8.54957 8.48426 8.51986 8.75835 8.40633C9.03244 8.2928 9.26671 8.10054 9.43153 7.85386C9.59635 7.60719 9.68433 7.31718 9.68433 7.02051C9.68393 6.62281 9.52577 6.24151 9.24455 5.96029C8.96333 5.67907 8.58203 5.52091 8.18433 5.52051Z" fill="#4F4F4F"/>
<path d="M8.18433 15.5205L3.96633 10.546C3.90772 10.4713 3.84972 10.3961 3.79233 10.3205C3.07182 9.3714 2.68259 8.21212 2.68433 7.02051C2.68433 5.56182 3.26379 4.16287 4.29524 3.13142C5.32669 2.09997 6.72564 1.52051 8.18433 1.52051C9.64302 1.52051 11.042 2.09997 12.0734 3.13142C13.1049 4.16287 13.6843 5.56182 13.6843 7.02051C13.6861 8.21158 13.297 9.37033 12.5768 10.319L12.5763 10.3205C12.5763 10.3205 12.4263 10.5175 12.4038 10.544L8.18433 15.5205ZM4.59033 9.71801C4.59133 9.71801 4.70733 9.87201 4.73383 9.90501L8.18433 13.9745L11.6393 9.89951C11.6613 9.87201 11.7783 9.71701 11.7788 9.71651C12.3674 8.94106 12.6855 7.99402 12.6843 7.02051C12.6843 5.82703 12.2102 4.68244 11.3663 3.83853C10.5224 2.99461 9.37781 2.52051 8.18433 2.52051C6.99086 2.52051 5.84627 2.99461 5.00235 3.83853C4.15844 4.68244 3.68433 5.82703 3.68433 7.02051C3.68328 7.99463 4.00172 8.94221 4.59083 9.71801H4.59033Z" fill="#4F4F4F"/>
</svg>
