<svg width="25" height="24" viewBox="0 0 25 24" fill="none" xmlns="http://www.w3.org/2000/svg">
<path d="M22.2667 16.4508H7.89916L8.62055 15.0234L20.6068 15.0023C21.0121 15.0023 21.3595 14.7211 21.4319 14.332L23.0918 5.30625C23.1353 5.06953 23.0701 4.82578 22.9109 4.64062C22.8322 4.5495 22.734 4.4761 22.6232 4.42551C22.5124 4.37492 22.3916 4.34835 22.2691 4.34766L7.02094 4.29844L6.89066 3.70312C6.80863 3.32344 6.45637 3.04688 6.05587 3.04688H2.32827C2.10239 3.04688 1.88576 3.13404 1.72604 3.2892C1.56632 3.44436 1.47659 3.65479 1.47659 3.87422C1.47659 4.09364 1.56632 4.30408 1.72604 4.45924C1.88576 4.6144 2.10239 4.70156 2.32827 4.70156H5.36584L5.93523 7.33125L7.337 13.9242L5.53232 16.7859C5.4386 16.9088 5.38215 17.0547 5.36935 17.2071C5.35656 17.3596 5.38794 17.5124 5.45993 17.6484C5.6047 17.9273 5.89663 18.1031 6.21993 18.1031H7.7351C7.41208 18.5199 7.23761 19.0275 7.23808 19.5492C7.23808 20.8758 8.34792 21.9539 9.7135 21.9539C11.0791 21.9539 12.1889 20.8758 12.1889 19.5492C12.1889 19.0266 12.0104 18.518 11.6919 18.1031H15.5787C15.2557 18.5199 15.0812 19.0275 15.0817 19.5492C15.0817 20.8758 16.1916 21.9539 17.5571 21.9539C18.9227 21.9539 20.0325 20.8758 20.0325 19.5492C20.0325 19.0266 19.854 18.518 19.5355 18.1031H22.2691C22.7372 18.1031 23.1208 17.7328 23.1208 17.2758C23.1194 17.0566 23.0288 16.8468 22.8688 16.6923C22.7088 16.5377 22.4923 16.4509 22.2667 16.4508ZM7.37561 5.92969L21.2678 5.97422L19.9071 13.3758L8.99452 13.3945L7.37561 5.92969ZM9.7135 20.2898C9.29369 20.2898 8.95109 19.957 8.95109 19.5492C8.95109 19.1414 9.29369 18.8086 9.7135 18.8086C10.1333 18.8086 10.4759 19.1414 10.4759 19.5492C10.4759 19.7456 10.3956 19.934 10.2526 20.0729C10.1096 20.2118 9.9157 20.2898 9.7135 20.2898ZM17.5571 20.2898C17.1373 20.2898 16.7947 19.957 16.7947 19.5492C16.7947 19.1414 17.1373 18.8086 17.5571 18.8086C17.9769 18.8086 18.3195 19.1414 18.3195 19.5492C18.3195 19.7456 18.2392 19.934 18.0962 20.0729C17.9533 20.2118 17.7593 20.2898 17.5571 20.2898Z" fill="#022E73"/>
</svg>
