<svg width="19" height="18" viewBox="0 0 19 18" fill="none" xmlns="http://www.w3.org/2000/svg">
<path d="M16.6211 0.242188H2.24609C1.86485 0.242188 1.49921 0.393638 1.22963 0.663221C0.960044 0.932805 0.808594 1.29844 0.808594 1.67969V16.0547C0.808594 16.4359 0.960044 16.8016 1.22963 17.0712C1.49921 17.3407 1.86485 17.4922 2.24609 17.4922H16.6211C17.0023 17.4922 17.368 17.3407 17.6376 17.0712C17.9071 16.8016 18.0586 16.4359 18.0586 16.0547V1.67969C18.0586 1.29844 17.9071 0.932805 17.6376 0.663221C17.368 0.393638 17.0023 0.242188 16.6211 0.242188ZM7.99609 12.8203L4.40234 9.25747L5.54516 8.14844L7.99609 10.5534L13.3213 5.27344L14.4648 6.40691L7.99609 12.8203Z" fill="#828282"/>
</svg>
