<svg width="15" height="15" viewBox="0 0 15 15" fill="none" xmlns="http://www.w3.org/2000/svg">
<path d="M7.73878 1.39551C4.29312 1.39551 1.49927 4.13809 1.49927 7.52051C1.49927 10.9029 4.29312 13.6455 7.73878 13.6455C11.1844 13.6455 13.9783 10.9029 13.9783 7.52051C13.9783 4.13809 11.1844 1.39551 7.73878 1.39551ZM7.73878 12.6064C4.87808 12.6064 2.55776 10.3287 2.55776 7.52051C2.55776 4.7123 4.87808 2.43457 7.73878 2.43457C10.5995 2.43457 12.9198 4.7123 12.9198 7.52051C12.9198 10.3287 10.5995 12.6064 7.73878 12.6064Z" fill="#4F4F4F"/>
<path d="M10.1719 9.25137L8.18584 7.8418V4.45801C8.18584 4.39785 8.1357 4.34863 8.07442 4.34863H7.40451C7.34323 4.34863 7.29309 4.39785 7.29309 4.45801V8.22187C7.29309 8.25742 7.3098 8.29023 7.33905 8.31074L9.64266 9.95957C9.6928 9.99512 9.76244 9.98555 9.79865 9.93633L10.197 9.40313C10.2332 9.35391 10.222 9.28555 10.1719 9.25137Z" fill="#4F4F4F"/>
</svg>
