<svg width="17" height="17" viewBox="0 0 17 17" fill="none" xmlns="http://www.w3.org/2000/svg">
<path d="M10.3023 8.46749L16.0356 2.74749C16.2867 2.49642 16.4277 2.15589 16.4277 1.80083C16.4277 1.44576 16.2867 1.10523 16.0356 0.854158C15.7845 0.603087 15.444 0.462036 15.0889 0.462036C14.7339 0.462036 14.3934 0.603087 14.1423 0.854158L8.42228 6.58749L2.70228 0.854158C2.45121 0.603087 2.11068 0.462036 1.75562 0.462036C1.40055 0.462036 1.06002 0.603087 0.808949 0.854158C0.557877 1.10523 0.416826 1.44576 0.416826 1.80083C0.416826 2.15589 0.557877 2.49642 0.808949 2.74749L6.54228 8.46749L0.808949 14.1875C0.683977 14.3114 0.584785 14.4589 0.517094 14.6214C0.449402 14.7839 0.414551 14.9581 0.414551 15.1342C0.414551 15.3102 0.449402 15.4844 0.517094 15.6469C0.584785 15.8094 0.683977 15.9569 0.808949 16.0808C0.932899 16.2058 1.08037 16.305 1.24285 16.3727C1.40533 16.4404 1.5796 16.4752 1.75562 16.4752C1.93163 16.4752 2.10591 16.4404 2.26838 16.3727C2.43086 16.305 2.57833 16.2058 2.70228 16.0808L8.42228 10.3475L14.1423 16.0808C14.2662 16.2058 14.4137 16.305 14.5762 16.3727C14.7387 16.4404 14.9129 16.4752 15.0889 16.4752C15.265 16.4752 15.4392 16.4404 15.6017 16.3727C15.7642 16.305 15.9117 16.2058 16.0356 16.0808C16.1606 15.9569 16.2598 15.8094 16.3275 15.6469C16.3952 15.4844 16.43 15.3102 16.43 15.1342C16.43 14.9581 16.3952 14.7839 16.3275 14.6214C16.2598 14.4589 16.1606 14.3114 16.0356 14.1875L10.3023 8.46749Z" fill="black"/>
</svg>
