<svg width="25" height="22" viewBox="0 0 25 22" fill="none" xmlns="http://www.w3.org/2000/svg">
<path d="M3.85742 0.0444336C3.06177 0.0444336 2.29871 0.347335 1.7361 0.886502C1.17349 1.42567 0.857422 2.15694 0.857422 2.91943L0.857422 4.35693H24.8574V2.91943C24.8574 2.15694 24.5414 1.42567 23.9787 0.886502C23.4161 0.347335 22.6531 0.0444336 21.8574 0.0444336H3.85742ZM24.8574 5.79443H0.857422V18.7319C0.857422 19.4944 1.17349 20.2257 1.7361 20.7649C2.29871 21.304 3.06177 21.6069 3.85742 21.6069H21.8574C22.6531 21.6069 23.4161 21.304 23.9787 20.7649C24.5414 20.2257 24.8574 19.4944 24.8574 18.7319V5.79443Z" fill="#828282"/>
</svg>
