<svg width="76" height="25" viewBox="0 0 76 25" fill="none" xmlns="http://www.w3.org/2000/svg">
<path d="M29.4406 7.04038C30.6566 7.04038 31.7072 7.26972 32.5926 7.72838C33.4886 8.17638 34.1712 8.82172 34.6406 9.66438C35.1206 10.507 35.3606 11.499 35.3606 12.6404C35.3606 13.7817 35.1206 14.7737 34.6406 15.6164C34.1712 16.4484 33.4886 17.0884 32.5926 17.5364C31.7072 17.9737 30.6566 18.1924 29.4406 18.1924H25.9686V7.04038H29.4406ZM29.4406 16.9924C30.8806 16.9924 31.9792 16.6137 32.7366 15.8564C33.4939 15.0884 33.8726 14.0164 33.8726 12.6404C33.8726 11.2537 33.4886 10.171 32.7206 9.39238C31.9632 8.61372 30.8699 8.22438 29.4406 8.22438H27.4246V16.9924H29.4406ZM45.2811 13.4724C45.2811 13.7497 45.2651 14.043 45.2331 14.3524H38.2251C38.2784 15.2164 38.5717 15.8937 39.1051 16.3844C39.6491 16.8644 40.3051 17.1044 41.0731 17.1044C41.7024 17.1044 42.2251 16.9604 42.6411 16.6724C43.0677 16.3737 43.3664 15.979 43.5371 15.4884H45.1051C44.8704 16.331 44.4011 17.019 43.6971 17.5524C42.9931 18.075 42.1184 18.3364 41.0731 18.3364C40.2411 18.3364 39.4944 18.1497 38.8331 17.7764C38.1824 17.403 37.6704 16.875 37.2971 16.1924C36.9237 15.499 36.7371 14.699 36.7371 13.7924C36.7371 12.8857 36.9184 12.091 37.2811 11.4084C37.6437 10.7257 38.1504 10.203 38.8011 9.84038C39.4624 9.46705 40.2197 9.28038 41.0731 9.28038C41.9051 9.28038 42.6411 9.46172 43.2811 9.82438C43.9211 10.187 44.4117 10.6884 44.7531 11.3284C45.1051 11.9577 45.2811 12.6724 45.2811 13.4724ZM43.7771 13.1684C43.7771 12.6137 43.6544 12.139 43.4091 11.7444C43.1637 11.339 42.8277 11.035 42.4011 10.8324C41.9851 10.619 41.5211 10.5124 41.0091 10.5124C40.2731 10.5124 39.6437 10.747 39.1211 11.2164C38.6091 11.6857 38.3157 12.3364 38.2411 13.1684H43.7771ZM48.6589 6.35238V18.1924H47.2029V6.35238H48.6589ZM59.1404 13.4724C59.1404 13.7497 59.1244 14.043 59.0924 14.3524H52.0844C52.1378 15.2164 52.4311 15.8937 52.9644 16.3844C53.5084 16.8644 54.1644 17.1044 54.9324 17.1044C55.5618 17.1044 56.0844 16.9604 56.5004 16.6724C56.9271 16.3737 57.2258 15.979 57.3964 15.4884H58.9644C58.7298 16.331 58.2604 17.019 57.5564 17.5524C56.8524 18.075 55.9778 18.3364 54.9324 18.3364C54.1004 18.3364 53.3538 18.1497 52.6924 17.7764C52.0418 17.403 51.5298 16.875 51.1564 16.1924C50.7831 15.499 50.5964 14.699 50.5964 13.7924C50.5964 12.8857 50.7778 12.091 51.1404 11.4084C51.5031 10.7257 52.0098 10.203 52.6604 9.84038C53.3218 9.46705 54.0791 9.28038 54.9324 9.28038C55.7644 9.28038 56.5004 9.46172 57.1404 9.82438C57.7804 10.187 58.2711 10.6884 58.6124 11.3284C58.9644 11.9577 59.1404 12.6724 59.1404 13.4724ZM57.6364 13.1684C57.6364 12.6137 57.5138 12.139 57.2684 11.7444C57.0231 11.339 56.6871 11.035 56.2604 10.8324C55.8444 10.619 55.3804 10.5124 54.8684 10.5124C54.1324 10.5124 53.5031 10.747 52.9804 11.2164C52.4684 11.6857 52.1751 12.3364 52.1004 13.1684H57.6364ZM62.8383 10.6244V15.7924C62.8383 16.219 62.929 16.523 63.1103 16.7044C63.2917 16.875 63.6063 16.9604 64.0543 16.9604H65.1263V18.1924H63.8143C63.0037 18.1924 62.3957 18.0057 61.9903 17.6324C61.585 17.259 61.3823 16.6457 61.3823 15.7924V10.6244H60.2463V9.42438H61.3823V7.21638H62.8383V9.42438H65.1263V10.6244H62.8383ZM74.8904 13.4724C74.8904 13.7497 74.8744 14.043 74.8424 14.3524H67.8344C67.8878 15.2164 68.1811 15.8937 68.7144 16.3844C69.2584 16.8644 69.9144 17.1044 70.6824 17.1044C71.3118 17.1044 71.8344 16.9604 72.2504 16.6724C72.6771 16.3737 72.9758 15.979 73.1464 15.4884H74.7144C74.4798 16.331 74.0104 17.019 73.3064 17.5524C72.6024 18.075 71.7278 18.3364 70.6824 18.3364C69.8504 18.3364 69.1038 18.1497 68.4424 17.7764C67.7918 17.403 67.2798 16.875 66.9064 16.1924C66.5331 15.499 66.3464 14.699 66.3464 13.7924C66.3464 12.8857 66.5278 12.091 66.8904 11.4084C67.2531 10.7257 67.7598 10.203 68.4104 9.84038C69.0718 9.46705 69.8291 9.28038 70.6824 9.28038C71.5144 9.28038 72.2504 9.46172 72.8904 9.82438C73.5304 10.187 74.0211 10.6884 74.3624 11.3284C74.7144 11.9577 74.8904 12.6724 74.8904 13.4724ZM73.3864 13.1684C73.3864 12.6137 73.2638 12.139 73.0184 11.7444C72.7731 11.339 72.4371 11.035 72.0104 10.8324C71.5944 10.619 71.1304 10.5124 70.6184 10.5124C69.8824 10.5124 69.2531 10.747 68.7304 11.2164C68.2184 11.6857 67.9251 12.3364 67.8504 13.1684H73.3864Z" fill="#4F4F4F"/>
<path d="M14.085 8.19238H12.085V6.94238C12.085 6.39082 11.6365 5.94238 11.085 5.94238H6.08496C5.5334 5.94238 5.08496 6.39082 5.08496 6.94238V8.19238H3.08496C2.8084 8.19238 2.58496 8.41582 2.58496 8.69238V9.19238C2.58496 9.26113 2.64121 9.31738 2.70996 9.31738H3.65371L4.03965 17.4893C4.06465 18.0221 4.50527 18.4424 5.03809 18.4424H12.1318C12.6662 18.4424 13.1053 18.0236 13.1303 17.4893L13.5162 9.31738H14.46C14.5287 9.31738 14.585 9.26113 14.585 9.19238V8.69238C14.585 8.41582 14.3615 8.19238 14.085 8.19238ZM10.96 8.19238H6.20996V7.06738H10.96V8.19238Z" fill="black" fill-opacity="0.5"/>
</svg>
