<svg width="17" height="17" viewBox="0 0 17 17" fill="none" xmlns="http://www.w3.org/2000/svg">
<path d="M14.3398 13.3164H2.83984C2.56328 13.3164 2.33984 13.5398 2.33984 13.8164V14.3789C2.33984 14.4477 2.39609 14.5039 2.46484 14.5039H14.7148C14.7836 14.5039 14.8398 14.4477 14.8398 14.3789V13.8164C14.8398 13.5398 14.6164 13.3164 14.3398 13.3164ZM4.61641 12.0039C4.64766 12.0039 4.67891 12.0008 4.71016 11.9961L7.33828 11.5352C7.36953 11.5289 7.39922 11.5148 7.42109 11.4914L14.0445 4.86797C14.059 4.85351 14.0705 4.83634 14.0783 4.81744C14.0862 4.79854 14.0902 4.77828 14.0902 4.75781C14.0902 4.73735 14.0862 4.71709 14.0783 4.69818C14.0705 4.67928 14.059 4.66211 14.0445 4.64766L11.4477 2.04922C11.418 2.01953 11.3789 2.00391 11.3367 2.00391C11.2945 2.00391 11.2555 2.01953 11.2258 2.04922L4.60234 8.67266C4.57891 8.69609 4.56484 8.72422 4.55859 8.75547L4.09766 11.3836C4.08246 11.4673 4.08789 11.5534 4.11348 11.6346C4.13907 11.7157 4.18405 11.7894 4.24453 11.8492C4.34766 11.9492 4.47734 12.0039 4.61641 12.0039Z" fill="#4C516E"/>
</svg>
