<svg width="53" height="25" viewBox="0 0 53 25" fill="none" xmlns="http://www.w3.org/2000/svg">
<path d="M26.5115 8.22438V11.9524H30.5755V13.1524H26.5115V16.9924H31.0555V18.1924H25.0555V7.02438H31.0555V8.22438H26.5115ZM32.7146 13.7764C32.7146 12.8804 32.8959 12.0964 33.2586 11.4244C33.6213 10.7417 34.1173 10.2137 34.7466 9.84038C35.3866 9.46705 36.1013 9.28038 36.8906 9.28038C37.5733 9.28038 38.2079 9.44038 38.7946 9.76038C39.3813 10.0697 39.8293 10.4804 40.1386 10.9924V6.35238H41.6106V18.1924H40.1386V16.5444C39.8506 17.067 39.4239 17.499 38.8586 17.8404C38.2933 18.171 37.6319 18.3364 36.8746 18.3364C36.0959 18.3364 35.3866 18.1444 34.7466 17.7604C34.1173 17.3764 33.6213 16.8377 33.2586 16.1444C32.8959 15.451 32.7146 14.6617 32.7146 13.7764ZM40.1386 13.7924C40.1386 13.131 40.0053 12.555 39.7386 12.0644C39.4719 11.5737 39.1093 11.2004 38.6506 10.9444C38.2026 10.6777 37.7066 10.5444 37.1626 10.5444C36.6186 10.5444 36.1226 10.6724 35.6746 10.9284C35.2266 11.1844 34.8693 11.5577 34.6026 12.0484C34.3359 12.539 34.2026 13.115 34.2026 13.7764C34.2026 14.4484 34.3359 15.035 34.6026 15.5364C34.8693 16.027 35.2266 16.4057 35.6746 16.6724C36.1226 16.9284 36.6186 17.0564 37.1626 17.0564C37.7066 17.0564 38.2026 16.9284 38.6506 16.6724C39.1093 16.4057 39.4719 16.027 39.7386 15.5364C40.0053 15.035 40.1386 14.4537 40.1386 13.7924ZM44.8231 8.00038C44.5458 8.00038 44.3111 7.90438 44.1191 7.71238C43.9271 7.52038 43.8311 7.28572 43.8311 7.00838C43.8311 6.73105 43.9271 6.49638 44.1191 6.30438C44.3111 6.11238 44.5458 6.01638 44.8231 6.01638C45.0898 6.01638 45.3138 6.11238 45.4951 6.30438C45.6871 6.49638 45.7831 6.73105 45.7831 7.00838C45.7831 7.28572 45.6871 7.52038 45.4951 7.71238C45.3138 7.90438 45.0898 8.00038 44.8231 8.00038ZM45.5271 9.42438V18.1924H44.0711V9.42438H45.5271ZM49.7846 10.6244V15.7924C49.7846 16.219 49.8753 16.523 50.0566 16.7044C50.2379 16.875 50.5526 16.9604 51.0006 16.9604H52.0726V18.1924H50.7606C49.9499 18.1924 49.3419 18.0057 48.9366 17.6324C48.5313 17.259 48.3286 16.6457 48.3286 15.7924V10.6244H47.1926V9.42438H48.3286V7.21638H49.7846V9.42438H52.0726V10.6244H49.7846Z" fill="#4F4F4F"/>
<g clip-path="url(#clip0)">
<path d="M2.56573 14.2146L1.82684 17.4035C1.80135 17.5201 1.80222 17.6409 1.8294 17.757C1.85657 17.8732 1.90936 17.9819 1.9839 18.0751C2.05844 18.1682 2.15286 18.2436 2.26025 18.2956C2.36764 18.3476 2.48529 18.375 2.60462 18.3757C2.66022 18.3813 2.71624 18.3813 2.77184 18.3757L5.98017 17.6368L12.1402 11.5002L8.7024 8.07016L2.56573 14.2146Z" fill="#828282"/>
<path d="M14.0766 8.42794L11.7822 6.13349C11.6314 5.98341 11.4272 5.89915 11.2144 5.89915C11.0016 5.89915 10.7975 5.98341 10.6466 6.13349L9.37109 7.40905L12.805 10.8429L14.0805 9.56738C14.1552 9.49236 14.2143 9.40335 14.2545 9.30545C14.2947 9.20755 14.3152 9.10269 14.3149 8.99685C14.3145 8.89102 14.2933 8.7863 14.2524 8.68868C14.2115 8.59105 14.1518 8.50245 14.0766 8.42794Z" fill="#828282"/>
</g>
<defs>
<clipPath id="clip0">
<rect width="14" height="14" fill="white" transform="translate(0.924561 5.19238)"/>
</clipPath>
</defs>
</svg>
