<svg width="19" height="19" viewBox="0 0 19 19" fill="none" xmlns="http://www.w3.org/2000/svg">
<path d="M9.49986 6.71879C7.9229 6.71879 6.63599 8.00786 6.63599 9.58746C6.63599 11.1671 7.9229 12.4561 9.49986 12.4561C11.0768 12.4561 12.3637 11.1671 12.3637 9.58746C12.3637 8.00786 11.0768 6.71879 9.49986 6.71879ZM18.0893 9.58746C18.0893 8.39953 18.1001 7.22237 18.0335 6.03659C17.9669 4.65928 17.6532 3.43692 16.6477 2.42977C15.6401 1.42046 14.4219 1.10841 13.0469 1.0417C11.861 0.974987 10.6858 0.985748 9.50201 0.985748C8.31607 0.985748 7.14087 0.974987 5.95709 1.0417C4.58208 1.10841 3.36177 1.42261 2.3563 2.42977C1.34869 3.43908 1.03716 4.65928 0.970561 6.03659C0.903959 7.22452 0.914702 8.40169 0.914702 9.58746C0.914702 10.7732 0.903959 11.9526 0.970561 13.1383C1.03716 14.5156 1.35083 15.738 2.3563 16.7452C3.36392 17.7545 4.58208 18.0665 5.95709 18.1332C7.14302 18.1999 8.31822 18.1892 9.50201 18.1892C10.6879 18.1892 11.8631 18.1999 13.0469 18.1332C14.4219 18.0665 15.6422 17.7523 16.6477 16.7452C17.6553 15.7358 17.9669 14.5156 18.0335 13.1383C18.1022 11.9526 18.0893 10.7754 18.0893 9.58746ZM9.49986 14.0013C7.06138 14.0013 5.09341 12.03 5.09341 9.58746C5.09341 7.14489 7.06138 5.17362 9.49986 5.17362C11.9383 5.17362 13.9063 7.14489 13.9063 9.58746C13.9063 12.03 11.9383 14.0013 9.49986 14.0013ZM14.0868 6.02368C13.5174 6.02368 13.0577 5.56314 13.0577 4.99285C13.0577 4.42256 13.5174 3.96202 14.0868 3.96202C14.6561 3.96202 15.1159 4.42256 15.1159 4.99285C15.116 5.12827 15.0895 5.26239 15.0379 5.38753C14.9862 5.51267 14.9104 5.62638 14.8148 5.72214C14.7192 5.81789 14.6057 5.89381 14.4808 5.94556C14.3559 5.9973 14.222 6.02385 14.0868 6.02368Z" fill="#6C7187"/>
</svg>
