<svg width="23" height="23" viewBox="0 0 23 23" fill="none" xmlns="http://www.w3.org/2000/svg">
<path d="M11.346 8.91255C9.7691 8.91255 8.48218 10.1995 8.48218 11.7764C8.48218 13.3534 9.7691 14.6403 11.346 14.6403C12.923 14.6403 14.2099 13.3534 14.2099 11.7764C14.2099 10.1995 12.923 8.91255 11.346 8.91255ZM19.9355 11.7764C19.9355 10.5905 19.9462 9.41529 19.8796 8.2315C19.813 6.8565 19.4994 5.63619 18.4939 4.63072C17.4863 3.6231 16.2681 3.31158 14.8931 3.24497C13.7072 3.17837 12.532 3.18912 11.3482 3.18912C10.1623 3.18912 8.98707 3.17837 7.80328 3.24497C6.42828 3.31158 5.20796 3.62525 4.20249 4.63072C3.19488 5.63833 2.88335 6.8565 2.81675 8.2315C2.75015 9.41744 2.76089 10.5926 2.76089 11.7764C2.76089 12.9602 2.75015 14.1376 2.81675 15.3213C2.88335 16.6963 3.19703 17.9167 4.20249 18.9221C5.21011 19.9297 6.42828 20.2413 7.80328 20.3079C8.98921 20.3745 10.1644 20.3637 11.3482 20.3637C12.5341 20.3637 13.7093 20.3745 14.8931 20.3079C16.2681 20.2413 17.4884 19.9276 18.4939 18.9221C19.5015 17.9145 19.813 16.6963 19.8796 15.3213C19.9484 14.1376 19.9355 12.9624 19.9355 11.7764ZM11.346 16.1829C8.90757 16.1829 6.9396 14.2149 6.9396 11.7764C6.9396 9.33794 8.90757 7.36998 11.346 7.36998C13.7845 7.36998 15.7525 9.33794 15.7525 11.7764C15.7525 14.2149 13.7845 16.1829 11.346 16.1829ZM15.933 8.21861C15.3636 8.21861 14.9039 7.75884 14.9039 7.18951C14.9039 6.62017 15.3636 6.1604 15.933 6.1604C16.5023 6.1604 16.9621 6.62017 16.9621 7.18951C16.9622 7.3247 16.9357 7.45859 16.8841 7.58353C16.8324 7.70846 16.7566 7.82197 16.661 7.91757C16.5654 8.01316 16.4519 8.08896 16.327 8.14062C16.2021 8.19228 16.0682 8.21878 15.933 8.21861Z" fill="white"/>
</svg>
