<svg width="13" height="13" viewBox="0 0 13 13" fill="none" xmlns="http://www.w3.org/2000/svg">
<path d="M8.03103 6.78534L12.331 2.49534C12.5193 2.30704 12.6251 2.05164 12.6251 1.78534C12.6251 1.51904 12.5193 1.26365 12.331 1.07534C12.1427 0.887038 11.8873 0.78125 11.621 0.78125C11.3547 0.78125 11.0993 0.887038 10.911 1.07534L6.62103 5.37534L2.33103 1.07534C2.14273 0.887038 1.88733 0.78125 1.62103 0.78125C1.35473 0.78125 1.09934 0.887038 0.911033 1.07534C0.722729 1.26365 0.616941 1.51904 0.616941 1.78534C0.616941 2.05164 0.722729 2.30704 0.911033 2.49534L5.21103 6.78534L0.911033 11.0753C0.817304 11.1683 0.74291 11.2789 0.692142 11.4008C0.641373 11.5226 0.615234 11.6533 0.615234 11.7853C0.615234 11.9174 0.641373 12.0481 0.692142 12.1699C0.74291 12.2918 0.817304 12.4024 0.911033 12.4953C1.004 12.5891 1.1146 12.6635 1.23646 12.7142C1.35832 12.765 1.48902 12.7911 1.62103 12.7911C1.75304 12.7911 1.88375 12.765 2.00561 12.7142C2.12747 12.6635 2.23807 12.5891 2.33103 12.4953L6.62103 8.19534L10.911 12.4953C11.004 12.5891 11.1146 12.6635 11.2365 12.7142C11.3583 12.765 11.489 12.7911 11.621 12.7911C11.753 12.7911 11.8837 12.765 12.0056 12.7142C12.1275 12.6635 12.2381 12.5891 12.331 12.4953C12.4248 12.4024 12.4992 12.2918 12.5499 12.1699C12.6007 12.0481 12.6268 11.9174 12.6268 11.7853C12.6268 11.6533 12.6007 11.5226 12.5499 11.4008C12.4992 11.2789 12.4248 11.1683 12.331 11.0753L8.03103 6.78534Z" fill="#828282"/>
</svg>
