<svg width="23" height="22" viewBox="0 0 23 22" fill="none" xmlns="http://www.w3.org/2000/svg">
<g clip-path="url(#clip0)">
<path d="M5.64843 21.9616V7.66795H0.932533V21.9616H5.64843ZM3.29109 5.71523C4.93561 5.71523 5.95924 4.61764 5.95924 3.24603C5.9286 1.84349 4.93567 0.776367 3.3223 0.776367C1.70918 0.776367 0.654297 1.84351 0.654297 3.24603C0.654297 4.61771 1.67768 5.71523 3.26031 5.71523H3.29094H3.29109ZM8.25867 21.9616H12.9746V13.9793C12.9746 13.5521 13.0052 13.1254 13.1297 12.82C13.4707 11.9664 14.2466 11.0824 15.5493 11.0824C17.2558 11.0824 17.9385 12.3932 17.9385 14.3147V21.9615H22.6541V13.7656C22.6541 9.3752 20.3276 7.33238 17.2248 7.33238C14.6807 7.33238 13.5637 8.76496 12.9432 9.74069H12.9747V7.66765H8.25877C8.32066 9.00889 8.25877 21.9613 8.25877 21.9613L8.25867 21.9616Z" fill="white"/>
</g>
<defs>
<clipPath id="clip0">
<rect width="22" height="21.1852" fill="white" transform="translate(0.65332 0.776367)"/>
</clipPath>
</defs>
</svg>
