<svg width="23" height="23" viewBox="0 0 23 23" fill="none" xmlns="http://www.w3.org/2000/svg">
<path d="M5.49511 22.1973V7.8797H0.779212V22.1973H5.49511ZM3.13777 5.92371C4.78229 5.92371 5.80592 4.82428 5.80592 3.45037C5.77528 2.04547 4.78235 0.976562 3.16898 0.976562C1.55586 0.976562 0.500977 2.04549 0.500977 3.45037C0.500977 4.82435 1.52436 5.92371 3.10699 5.92371H3.13762H3.13777ZM8.10535 22.1973H12.8212V14.2017C12.8212 13.7737 12.8519 13.3463 12.9764 13.0404C13.3173 12.1854 14.0933 11.2999 15.396 11.2999C17.1025 11.2999 17.7852 12.6129 17.7852 14.5376V22.1972H22.5008V13.9876C22.5008 9.58982 20.1742 7.54357 17.0715 7.54357C14.5274 7.54357 13.4104 8.97856 12.7899 9.95592H12.8214V7.87941H8.10545C8.16734 9.22289 8.10545 22.197 8.10545 22.197L8.10535 22.1973Z" fill="#6C7187"/>
</svg>
