<svg width="27" height="27" viewBox="0 0 27 27" fill="none" xmlns="http://www.w3.org/2000/svg">
<path d="M22.4176 8.2834C22.5699 8.43574 22.6562 8.64141 22.6562 8.85723V24.5156C22.6562 24.965 22.2932 25.3281 21.8438 25.3281H5.59375C5.14434 25.3281 4.78125 24.965 4.78125 24.5156V3.39062C4.78125 2.94121 5.14434 2.57812 5.59375 2.57812H16.3771C16.593 2.57812 16.8012 2.66445 16.9535 2.8168L22.4176 8.2834ZM20.7824 9.23047L16.0039 4.45195V9.23047H20.7824ZM16.7966 17.1336C16.4112 17.1209 16.0014 17.1506 15.536 17.2087C14.919 16.8281 14.5036 16.3053 14.2085 15.5372L14.2357 15.426L14.2672 15.2945C14.3764 14.8342 14.435 14.4983 14.4525 14.1596C14.4657 13.9039 14.4515 13.668 14.4061 13.4494C14.3223 12.9774 13.9884 12.7014 13.5677 12.6844C13.1754 12.6684 12.8148 12.8875 12.7227 13.227C12.5726 13.7759 12.6605 14.4983 12.9786 15.7302C12.5734 16.6963 12.0379 17.829 11.6786 18.4607C11.199 18.708 10.8255 18.933 10.5117 19.1823C10.0978 19.5116 9.83932 19.8501 9.76822 20.2056C9.73369 20.3704 9.78574 20.5857 9.90432 20.7621C10.0389 20.9622 10.2415 21.0922 10.4845 21.111C11.0977 21.1585 11.8513 20.5263 12.6833 19.0985C12.7669 19.0706 12.8552 19.0412 12.9631 19.0046L13.2653 18.9025C13.4565 18.838 13.5951 18.7918 13.7322 18.7474C14.3263 18.5539 14.7758 18.4318 15.1846 18.3622C15.895 18.7426 16.7161 18.9919 17.2691 18.9919C17.7256 18.9919 18.0341 18.7553 18.1456 18.3828C18.2434 18.0557 18.1659 17.6764 17.9557 17.4667C17.7383 17.2531 17.3387 17.1511 16.7966 17.1336ZM10.5 20.3942V20.3851L10.5033 20.3764C10.5404 20.2804 10.5881 20.1888 10.6455 20.1032C10.7541 19.9362 10.9037 19.7605 11.089 19.5733C11.1886 19.473 11.2922 19.3753 11.4138 19.2656C11.441 19.2412 11.6146 19.0866 11.6471 19.0561L11.9307 18.7921L11.7246 19.1204C11.4118 19.619 11.1289 19.9781 10.8867 20.2122C10.7976 20.2985 10.7191 20.362 10.6556 20.4029C10.6347 20.4168 10.6125 20.4289 10.5894 20.4389C10.5789 20.4432 10.5698 20.4458 10.5607 20.4465C10.551 20.4478 10.5412 20.4464 10.5322 20.4427C10.5227 20.4387 10.5145 20.432 10.5088 20.4233C10.503 20.4147 10.5 20.4046 10.5 20.3942ZM13.6977 14.852L13.6403 14.9535L13.6047 14.8423C13.526 14.5927 13.4681 14.2167 13.4521 13.8775C13.4339 13.4915 13.4646 13.26 13.5865 13.26C13.7576 13.26 13.8361 13.5342 13.8421 13.9468C13.8477 14.3094 13.7906 14.6867 13.6974 14.852H13.6977ZM13.5502 16.3363L13.589 16.2335L13.6421 16.3299C13.9389 16.8692 14.3241 17.3192 14.7476 17.6327L14.839 17.7003L14.7275 17.7231C14.3129 17.8089 13.9267 17.9379 13.3986 18.151C13.4537 18.1286 12.8496 18.3759 12.6968 18.4346L12.5635 18.4856L12.6346 18.3617C12.9481 17.8158 13.2379 17.1602 13.5499 16.3363H13.5502ZM17.5522 18.2726C17.3527 18.3513 16.923 18.281 16.1667 17.958L15.9747 17.8762L16.1829 17.861C16.7745 17.8171 17.1935 17.8496 17.4377 17.9389C17.5418 17.977 17.6111 18.025 17.6419 18.0799C17.658 18.1058 17.6635 18.1371 17.657 18.167C17.6506 18.1969 17.6328 18.2231 17.6073 18.2401C17.5912 18.2543 17.5725 18.2653 17.5522 18.2726Z" fill="#4F4F4F"/>
</svg>
