<svg width="31" height="31" viewBox="0 0 31 31" fill="none" xmlns="http://www.w3.org/2000/svg">
<path d="M15.6772 2.56055C8.77725 2.56055 3.17725 8.16055 3.17725 15.0605C3.17725 21.9605 8.77725 27.5605 15.6772 27.5605C22.5772 27.5605 28.1772 21.9605 28.1772 15.0605C28.1772 8.16055 22.5772 2.56055 15.6772 2.56055ZM17.4397 22.673V25.0605H14.1022V22.648C11.9647 22.198 10.1522 20.823 10.0147 18.398H12.4647C12.5897 19.7105 13.4897 20.7355 15.7772 20.7355C18.2272 20.7355 18.7772 19.5105 18.7772 18.748C18.7772 17.7105 18.2272 16.7355 15.4397 16.073C12.3397 15.323 10.2147 14.048 10.2147 11.4855C10.2147 9.33555 11.9522 7.93555 14.1022 7.47305V5.06055H17.4397V7.49805C19.7647 8.06055 20.9272 9.82305 21.0022 11.7355H18.5522C18.4897 10.348 17.7522 9.39805 15.7772 9.39805C13.9022 9.39805 12.7772 10.248 12.7772 11.448C12.7772 12.498 13.5897 13.1855 16.1147 13.8355C18.6397 14.4855 21.3397 15.573 21.3397 18.723C21.3272 21.0105 19.6147 22.2605 17.4397 22.673Z" fill="#828282"/>
</svg>
