<svg width="25" height="25" viewBox="0 0 25 25" fill="none" xmlns="http://www.w3.org/2000/svg">
<path d="M12.3945 2.5708C9.63753 2.5708 7.39453 4.8138 7.39453 7.5708C7.39453 10.3278 9.63753 12.5708 12.3945 12.5708C15.1515 12.5708 17.3945 10.3278 17.3945 7.5708C17.3945 4.8138 15.1515 2.5708 12.3945 2.5708ZM12.3945 10.5708C10.7405 10.5708 9.39453 9.2248 9.39453 7.5708C9.39453 5.9168 10.7405 4.5708 12.3945 4.5708C14.0485 4.5708 15.3945 5.9168 15.3945 7.5708C15.3945 9.2248 14.0485 10.5708 12.3945 10.5708ZM21.3945 21.5708V20.5708C21.3945 16.7118 18.2535 13.5708 14.3945 13.5708H10.3945C6.53453 13.5708 3.39453 16.7118 3.39453 20.5708V21.5708H5.39453V20.5708C5.39453 17.8138 7.63753 15.5708 10.3945 15.5708H14.3945C17.1515 15.5708 19.3945 17.8138 19.3945 20.5708V21.5708H21.3945Z" fill="#879DC1"/>
</svg>
