<svg width="31" height="31" viewBox="0 0 31 31" fill="none" xmlns="http://www.w3.org/2000/svg">
<g clip-path="url(#clip0)">
<path d="M15.0928 0.249023C9.4059 0.249023 4.78027 4.87465 4.78027 10.5615C4.78027 16.2484 9.4059 20.874 15.0928 20.874C20.7778 20.874 25.4053 16.2484 25.4053 10.5615C25.4053 4.87465 20.7778 0.249023 15.0928 0.249023ZM20.5134 9.10277L18.7321 11.334L18.9271 14.2496C18.9496 14.574 18.8015 14.8871 18.5334 15.0765C18.3703 15.1909 18.1809 15.249 17.9896 15.249C17.8659 15.249 17.7403 15.2246 17.624 15.174L15.0928 14.0996L12.5634 15.174C12.2634 15.3015 11.9184 15.2659 11.654 15.0765C11.3878 14.8871 11.2396 14.574 11.2603 14.2496L11.4553 11.334L9.67402 9.10277C9.47527 8.85527 9.41715 8.5234 9.51652 8.22152C9.6159 7.91965 9.86152 7.6909 10.169 7.61027L12.8278 6.91465L14.2865 4.4584C14.624 3.8884 15.5615 3.8884 15.8971 4.4584L17.3559 6.91465L20.0165 7.61027C20.3221 7.6909 20.5678 7.92152 20.669 8.22152C20.7703 8.52152 20.7103 8.8534 20.5134 9.10277Z" fill="#4F4F4F"/>
<path d="M4.54594 16.6421L0.218437 24.1552C0.0290624 24.4852 0.0571874 24.8958 0.287812 25.1958C0.518437 25.4958 0.906562 25.6308 1.27406 25.5296L6.77906 24.0502L8.24344 29.5552C8.34094 29.9208 8.65031 30.1927 9.02531 30.2433C9.06656 30.2471 9.10969 30.249 9.14906 30.249C9.48094 30.249 9.79219 30.0727 9.96094 29.7802L14.0541 22.6965C9.98719 22.3515 6.49219 20.0021 4.54594 16.6421Z" fill="#4F4F4F"/>
<path d="M29.9688 24.1552L25.6395 16.6421C23.6951 20.0021 20.1982 22.3515 16.1313 22.6965L20.2245 29.7802C20.3932 30.0727 20.7045 30.249 21.0363 30.249C21.0757 30.249 21.1188 30.2471 21.1582 30.2415C21.5351 30.1908 21.8426 29.919 21.942 29.5533L23.4063 24.0483L28.9113 25.5277C29.2788 25.629 29.6651 25.494 29.8976 25.194C30.1301 24.8958 30.1563 24.4852 29.9688 24.1552Z" fill="#4F4F4F"/>
</g>
<defs>
<clipPath id="clip0">
<rect width="30" height="30" fill="white" transform="translate(0.0932617 0.249023)"/>
</clipPath>
</defs>
</svg>
