<svg width="24" height="24" viewBox="0 0 24 24" fill="none" xmlns="http://www.w3.org/2000/svg">
<path d="M20.5285 19.4985L14.6954 13.6654C15.6006 12.4952 16.0902 11.0645 16.0902 9.55957C16.0902 7.7582 15.3872 6.06914 14.1159 4.79561C12.8446 3.52207 11.151 2.82129 9.35193 2.82129C7.55281 2.82129 5.85925 3.52432 4.58796 4.79561C3.31443 6.06689 2.61365 7.7582 2.61365 9.55957C2.61365 11.3587 3.31667 13.0522 4.58796 14.3235C5.85925 15.5971 7.55056 16.2979 9.35193 16.2979C10.8568 16.2979 12.2853 15.8082 13.4555 14.9053L19.2886 20.7361C19.3058 20.7532 19.3261 20.7668 19.3484 20.7761C19.3708 20.7853 19.3947 20.7901 19.4189 20.7901C19.4431 20.7901 19.4671 20.7853 19.4894 20.7761C19.5118 20.7668 19.5321 20.7532 19.5492 20.7361L20.5285 19.7591C20.5456 19.742 20.5592 19.7217 20.5684 19.6993C20.5777 19.677 20.5825 19.653 20.5825 19.6288C20.5825 19.6046 20.5777 19.5807 20.5684 19.5583C20.5592 19.5359 20.5456 19.5156 20.5285 19.4985ZM12.9097 13.1174C11.9574 14.0675 10.6951 14.5908 9.35193 14.5908C8.00876 14.5908 6.74646 14.0675 5.79412 13.1174C4.84402 12.165 4.32068 10.9027 4.32068 9.55957C4.32068 8.21641 4.84402 6.95186 5.79412 6.00176C6.74646 5.05166 8.00876 4.52832 9.35193 4.52832C10.6951 4.52832 11.9596 5.04941 12.9097 6.00176C13.8598 6.9541 14.3832 8.21641 14.3832 9.55957C14.3832 10.9027 13.8598 12.1673 12.9097 13.1174Z" fill="#828282"/>
</svg>
