<svg width="22" height="23" viewBox="0 0 22 23" fill="none" xmlns="http://www.w3.org/2000/svg">
<path fill-rule="evenodd" clip-rule="evenodd" d="M16.7924 13.7303C17.9354 12.2566 18.4741 10.4028 18.2989 8.54602C18.1237 6.68925 17.2477 4.96897 15.8491 3.73516C14.4505 2.50136 12.6344 1.84671 10.7703 1.90439C8.90613 1.96208 7.13399 2.72776 5.81436 4.04568C4.49359 5.36451 3.7254 7.13734 3.66633 9.00289C3.60727 10.8684 4.26178 12.6863 5.49649 14.086C6.73119 15.4858 8.45317 16.362 10.3115 16.5363C12.1698 16.7105 14.0247 16.1695 15.498 15.0237L15.5374 15.0649L19.4259 18.9543C19.5111 19.0395 19.6122 19.1071 19.7235 19.1532C19.8348 19.1993 19.954 19.223 20.0745 19.223C20.1949 19.223 20.3142 19.1993 20.4255 19.1532C20.5368 19.1071 20.6379 19.0395 20.723 18.9543C20.8082 18.8692 20.8758 18.7681 20.9218 18.6568C20.9679 18.5455 20.9917 18.4262 20.9917 18.3058C20.9917 18.1854 20.9679 18.0661 20.9218 17.9548C20.8758 17.8435 20.8082 17.7424 20.723 17.6573L16.8336 13.7688C16.8202 13.7556 16.8065 13.7427 16.7924 13.7303ZM14.8894 5.34276C15.4069 5.85195 15.8185 6.45857 16.1005 7.12764C16.3824 7.7967 16.5291 8.51497 16.532 9.241C16.535 9.96703 16.3942 10.6865 16.1177 11.3578C15.8412 12.0291 15.4346 12.6391 14.9212 13.1525C14.4078 13.6659 13.7978 14.0725 13.1265 14.349C12.4551 14.6255 11.7357 14.7663 11.0097 14.7633C10.2836 14.7604 9.56538 14.6137 8.89632 14.3318C8.22726 14.0498 7.62063 13.6382 7.11145 13.1207C6.09387 12.0864 5.52621 10.6919 5.53212 9.241C5.53803 7.79008 6.11702 6.40027 7.14299 5.37431C8.16895 4.34834 9.55876 3.76935 11.0097 3.76344C12.4606 3.75753 13.8551 4.32519 14.8894 5.34276Z" fill="#022E73"/>
</svg>
