<svg width="23" height="19" viewBox="0 0 23 19" fill="none" xmlns="http://www.w3.org/2000/svg">
<g clip-path="url(#clip0)">
<path d="M22.346 2.54946C21.7334 3.46072 20.9818 4.23752 20.0912 4.87987C20.1 5.05214 20.1044 5.24686 20.1044 5.46401C20.1044 6.67056 19.9285 7.87857 19.5767 9.08804C19.2249 10.2975 18.6875 11.4552 17.9645 12.5611C17.2415 13.667 16.3803 14.6467 15.3808 15.5003C14.3814 16.3538 13.18 17.0344 11.7767 17.542C10.3734 18.0496 8.86944 18.3034 7.26481 18.3034C4.76052 18.3034 2.45431 17.6273 0.346191 16.2752C0.720358 16.3168 1.07921 16.3377 1.42276 16.3377C3.51489 16.3377 5.38351 15.6933 7.02859 14.4045C6.05312 14.3866 5.17952 14.0863 4.40777 13.5036C3.63603 12.9209 3.10493 12.1764 2.81449 11.27C3.10157 11.3247 3.38492 11.352 3.66453 11.352C4.067 11.352 4.46303 11.2995 4.85261 11.1945C3.8116 10.986 2.948 10.4675 2.2618 9.63905C1.57562 8.81057 1.23253 7.85435 1.23253 6.77038V6.71452C1.8715 7.06831 2.55307 7.2565 3.27723 7.27909C2.66055 6.86797 2.17161 6.33185 1.81042 5.67074C1.4492 5.00963 1.26859 4.29419 1.26859 3.52442C1.26859 2.71258 1.47203 1.9566 1.8789 1.25648C3.01097 2.64572 4.38272 3.75604 5.99414 4.58745C7.60559 5.41887 9.33436 5.88061 11.1805 5.97268C11.1017 5.64454 11.0623 5.30211 11.0621 4.94538C11.0621 3.69984 11.5029 2.63632 12.3845 1.75484C13.266 0.873358 14.3296 0.432617 15.5751 0.432617C16.8792 0.432617 17.9776 0.90745 18.8704 1.85711C19.8904 1.65507 20.8455 1.28962 21.7356 0.76076C21.3927 1.84004 20.7319 2.67262 19.7532 3.25852C20.6527 3.15163 21.517 2.91528 22.346 2.54946H22.346Z" fill="white"/>
</g>
<defs>
<clipPath id="clip0">
<rect width="22" height="17.8708" fill="white" transform="translate(0.346191 0.432617)"/>
</clipPath>
</defs>
</svg>
