<svg width="23" height="19" viewBox="0 0 23 19" fill="none" xmlns="http://www.w3.org/2000/svg">
<path d="M22.5809 2.46341C21.9683 3.3762 21.2167 4.1543 20.3261 4.79772C20.3349 4.97029 20.3393 5.16533 20.3393 5.38285C20.3393 6.59142 20.1634 7.80146 19.8116 9.01296C19.4598 10.2245 18.9223 11.3841 18.1994 12.4918C17.4764 13.5996 16.6151 14.581 15.6157 15.4359C14.6163 16.2909 13.4149 16.9726 12.0116 17.4811C10.6083 17.9895 9.1043 18.2438 7.49967 18.2438C4.99538 18.2438 2.68918 17.5666 0.581055 16.2122C0.955221 16.2539 1.31408 16.2747 1.65763 16.2747C3.74976 16.2747 5.61837 15.6292 7.26346 14.3383C6.28799 14.3204 5.41438 14.0196 4.64264 13.4359C3.87089 12.8523 3.3398 12.1065 3.04935 11.1985C3.33644 11.2533 3.61978 11.2807 3.89939 11.2807C4.30186 11.2807 4.69789 11.2281 5.08748 11.123C4.04647 10.9141 3.18286 10.3948 2.49666 9.56489C1.81048 8.73502 1.46739 7.7772 1.46739 6.69141V6.63545C2.10637 6.98984 2.78794 7.17834 3.51209 7.20097C2.89541 6.78916 2.40647 6.25214 2.04528 5.58992C1.68406 4.9277 1.50345 4.21106 1.50345 3.44001C1.50345 2.6268 1.70689 1.86955 2.11376 1.16826C3.24584 2.55983 4.61759 3.67201 6.22901 4.50481C7.84045 5.33763 9.56922 5.80015 11.4153 5.89237C11.3366 5.56368 11.2971 5.22067 11.297 4.86335C11.297 3.61571 11.7378 2.55042 12.6193 1.66746C13.5009 0.784498 14.5645 0.343018 15.81 0.343018C17.114 0.343018 18.2124 0.818646 19.1052 1.7699C20.1253 1.56752 21.0804 1.20145 21.9705 0.671711C21.6276 1.7528 20.9667 2.58678 19.988 3.17366C20.8876 3.06659 21.7518 2.82984 22.5809 2.46341H22.5809Z" fill="#6C7187"/>
</svg>
