<svg width="25" height="25" viewBox="0 0 25 25" fill="none" xmlns="http://www.w3.org/2000/svg">
<path fill-rule="evenodd" clip-rule="evenodd" d="M8.54297 13.1924C7.74732 13.1924 6.98426 12.8763 6.42165 12.3137C5.85904 11.7511 5.54297 10.988 5.54297 10.1924C5.54297 9.39673 5.85904 8.63367 6.42165 8.07106C6.98426 7.50845 7.74732 7.19238 8.54297 7.19238C9.33862 7.19238 10.1017 7.50845 10.6643 8.07106C11.2269 8.63367 11.543 9.39673 11.543 10.1924C11.543 10.988 11.2269 11.7511 10.6643 12.3137C10.1017 12.8763 9.33862 13.1924 8.54297 13.1924ZM16.543 13.1924C15.7473 13.1924 14.9843 12.8763 14.4216 12.3137C13.859 11.7511 13.543 10.988 13.543 10.1924C13.543 9.39673 13.859 8.63367 14.4216 8.07106C14.9843 7.50845 15.7473 7.19238 16.543 7.19238C17.3386 7.19238 18.1017 7.50845 18.6643 8.07106C19.2269 8.63367 19.543 9.39673 19.543 10.1924C19.543 10.988 19.2269 11.7511 18.6643 12.3137C18.1017 12.8763 17.3386 13.1924 16.543 13.1924ZM8.54297 15.1924C9.67814 15.191 10.8005 15.4319 11.8352 15.8989C12.8699 16.3659 13.793 17.0482 14.543 17.9004V19.1924H2.54297V17.9004C3.29292 17.0482 4.21606 16.3659 5.25073 15.8989C6.2854 15.4319 7.4078 15.191 8.54297 15.1924ZM16.543 19.1924V17.1444L16.043 16.5774C15.6613 16.1446 15.2431 15.7455 14.793 15.3844C15.3675 15.2564 15.9544 15.192 16.543 15.1924C17.6781 15.191 18.8005 15.4319 19.8352 15.8989C20.8699 16.3659 21.793 17.0482 22.543 17.9004V19.1924H16.543Z" fill="#828282"/>
</svg>
