<svg width="21" height="15" viewBox="0 0 21 15" fill="none" xmlns="http://www.w3.org/2000/svg">
<path d="M10.4194 0.645508C5.83606 0.645508 1.92189 3.49634 0.33606 7.52051C1.92189 11.5447 5.83606 14.3955 10.4194 14.3955C15.0027 14.3955 18.9169 11.5447 20.5027 7.52051C18.9169 3.49634 15.0027 0.645508 10.4194 0.645508ZM10.4194 12.1038C7.88939 12.1038 5.83606 10.0505 5.83606 7.52051C5.83606 4.99051 7.88939 2.93717 10.4194 2.93717C12.9494 2.93717 15.0027 4.99051 15.0027 7.52051C15.0027 10.0505 12.9494 12.1038 10.4194 12.1038ZM10.4194 4.77051C8.89773 4.77051 7.66939 5.99884 7.66939 7.52051C7.66939 9.04217 8.89773 10.2705 10.4194 10.2705C11.9411 10.2705 13.1694 9.04217 13.1694 7.52051C13.1694 5.99884 11.9411 4.77051 10.4194 4.77051Z" fill="#2D9CDB"/>
</svg>
