<svg width="22" height="20" viewBox="0 0 22 20" fill="none" xmlns="http://www.w3.org/2000/svg">
<path d="M21.1309 13.6432H6.59229L7.32227 12.2158L19.4512 12.1947C19.8613 12.1947 20.2129 11.9135 20.2861 11.5244L21.9658 2.49863C22.0098 2.26191 21.9438 2.01816 21.7827 1.83301C21.7031 1.74188 21.6037 1.66848 21.4916 1.61789C21.3795 1.5673 21.2572 1.54074 21.1333 1.54004L5.70361 1.49082L5.57178 0.895508C5.48877 0.51582 5.13232 0.239258 4.72705 0.239258H0.955078C0.72651 0.239258 0.507304 0.326424 0.345682 0.481581C0.18406 0.636738 0.0932617 0.847176 0.0932617 1.0666C0.0932617 1.28603 0.18406 1.49646 0.345682 1.65162C0.507304 1.80678 0.72651 1.89395 0.955078 1.89395H4.02881L4.60498 4.52363L6.02344 11.1166L4.19727 13.9783C4.10243 14.1012 4.04531 14.2471 4.03237 14.3995C4.01942 14.552 4.05117 14.7048 4.12402 14.8408C4.27051 15.1197 4.56592 15.2955 4.89307 15.2955H6.42627C6.09941 15.7123 5.92286 16.2199 5.92334 16.7416C5.92334 18.0682 7.04639 19.1463 8.42822 19.1463C9.81006 19.1463 10.9331 18.0682 10.9331 16.7416C10.9331 16.2189 10.7524 15.7104 10.4302 15.2955H14.3633C14.0364 15.7123 13.8599 16.2199 13.8604 16.7416C13.8604 18.0682 14.9834 19.1463 16.3652 19.1463C17.7471 19.1463 18.8701 18.0682 18.8701 16.7416C18.8701 16.2189 18.6895 15.7104 18.3672 15.2955H21.1333C21.6069 15.2955 21.9951 14.9252 21.9951 14.4682C21.9937 14.249 21.902 14.0392 21.7401 13.8846C21.5782 13.7301 21.3592 13.6433 21.1309 13.6432ZM6.0625 3.12207L20.1201 3.1666L18.7432 10.5682L7.70068 10.5869L6.0625 3.12207ZM8.42822 17.4822C8.00342 17.4822 7.65674 17.1494 7.65674 16.7416C7.65674 16.3338 8.00342 16.001 8.42822 16.001C8.85303 16.001 9.19971 16.3338 9.19971 16.7416C9.19971 16.938 9.11843 17.1264 8.97375 17.2653C8.82906 17.4042 8.63283 17.4822 8.42822 17.4822ZM16.3652 17.4822C15.9404 17.4822 15.5938 17.1494 15.5938 16.7416C15.5938 16.3338 15.9404 16.001 16.3652 16.001C16.79 16.001 17.1367 16.3338 17.1367 16.7416C17.1367 16.938 17.0554 17.1264 16.9108 17.2653C16.7661 17.4042 16.5698 17.4822 16.3652 17.4822Z" fill="#F2F2F2"/>
</svg>
