<svg width="26" height="25" viewBox="0 0 26 25" fill="none" xmlns="http://www.w3.org/2000/svg">
<path d="M23.1894 16.9721H8.57865L9.31225 15.5448L21.5014 15.5237C21.9136 15.5237 22.2669 15.2425 22.3405 14.8534L24.0285 5.82761C24.0727 5.59089 24.0064 5.34714 23.8445 5.16199C23.7645 5.07086 23.6646 4.99746 23.5519 4.94687C23.4392 4.89628 23.3164 4.86972 23.1919 4.86902L7.68557 4.8198L7.55308 4.22449C7.46966 3.8448 7.11144 3.56824 6.70416 3.56824H2.91346C2.68376 3.56824 2.46346 3.6554 2.30104 3.81056C2.13861 3.96572 2.04736 4.17616 2.04736 4.39558C2.04736 4.61501 2.13861 4.82544 2.30104 4.9806C2.46346 5.13576 2.68376 5.22292 2.91346 5.22292H6.00245L6.58148 7.85261L8.00698 14.4456L6.17174 17.3073C6.07643 17.4302 6.01903 17.5761 6.00602 17.7285C5.99301 17.8809 6.02492 18.0338 6.09814 18.1698C6.24535 18.4487 6.54222 18.6245 6.871 18.6245H8.41181C8.08333 19.0413 7.9059 19.5489 7.90638 20.0706C7.90638 21.3971 9.03501 22.4753 10.4237 22.4753C11.8124 22.4753 12.941 21.3971 12.941 20.0706C12.941 19.5479 12.7595 19.0393 12.4356 18.6245H16.3882C16.0597 19.0413 15.8823 19.5489 15.8828 20.0706C15.8828 21.3971 17.0114 22.4753 18.4001 22.4753C19.7888 22.4753 20.9174 21.3971 20.9174 20.0706C20.9174 19.5479 20.7359 19.0393 20.412 18.6245H23.1919C23.6678 18.6245 24.0579 18.2542 24.0579 17.7971C24.0565 17.5779 23.9644 17.3682 23.8017 17.2136C23.639 17.0591 23.4189 16.9723 23.1894 16.9721ZM8.04624 6.45105L22.1736 6.49558L20.7899 13.8971L9.69255 13.9159L8.04624 6.45105ZM10.4237 20.8112C9.99679 20.8112 9.64839 20.4784 9.64839 20.0706C9.64839 19.6628 9.99679 19.33 10.4237 19.33C10.8506 19.33 11.199 19.6628 11.199 20.0706C11.199 20.267 11.1173 20.4554 10.9719 20.5943C10.8265 20.7332 10.6293 20.8112 10.4237 20.8112ZM18.4001 20.8112C17.9732 20.8112 17.6248 20.4784 17.6248 20.0706C17.6248 19.6628 17.9732 19.33 18.4001 19.33C18.827 19.33 19.1754 19.6628 19.1754 20.0706C19.1754 20.267 19.0937 20.4554 18.9483 20.5943C18.8029 20.7332 18.6057 20.8112 18.4001 20.8112Z" fill="#F2F2F2"/>
</svg>
